<svg width="165" height="72" viewBox="0 0 165 72" fill="none" xmlns="http://www.w3.org/2000/svg">
<rect x="75.5" y="0.707107" width="19.5061" height="19.5061" transform="rotate(45 75.5 0.707107)" fill="black" fill-opacity="0.53" stroke="black"/>
<rect x="90.2486" y="0.707107" width="19.5061" height="19.5061" transform="rotate(45 90.2486 0.707107)" stroke="black"/>
<path d="M6.24 59V58.6L7.88 58.2C8.97333 57.96 9.52 57.2933 9.52 56.2V33.4H6.12C5.13333 33.4 4.42667 33.6667 4 34.2C3.57333 34.7067 3.12 35.4133 2.64 36.32L1.2 39.12H0.8L1 32.6H24.08L24.24 39.12H23.84L22.4 36.32C21.9467 35.4133 21.5067 34.7067 21.08 34.2C20.6533 33.6667 19.9467 33.4 18.96 33.4H15.56V56.2C15.56 57.2933 16.1067 57.96 17.2 58.2L18.84 58.6V59H6.24ZM38.2475 59.72C36.2208 59.72 34.4208 59.36 32.8475 58.64C31.3008 57.92 30.0875 56.7867 29.2075 55.24C28.3542 53.6667 27.9275 51.6 27.9275 49.04V35.24C27.9275 34.2267 27.4075 33.56 26.3675 33.24L25.4875 33V32.6H36.5675V33L35.4075 33.32C34.4208 33.56 33.9275 34.2267 33.9275 35.32V50.08C33.9275 52.56 34.4475 54.4 35.4875 55.6C36.5275 56.7733 38.0208 57.36 39.9675 57.36C41.9942 57.36 43.5942 56.7333 44.7675 55.48C45.9675 54.2267 46.5675 52.4533 46.5675 50.16V35.48C46.5675 34.9467 46.4742 34.48 46.2875 34.08C46.1275 33.6533 45.7808 33.3733 45.2475 33.24L44.2475 33V32.6H49.8475V33L48.7675 33.28C48.2608 33.3867 47.9275 33.64 47.7675 34.04C47.6075 34.44 47.5275 34.9067 47.5275 35.44V50.08C47.5275 52.0267 47.1408 53.7333 46.3675 55.2C45.5942 56.64 44.5142 57.76 43.1275 58.56C41.7408 59.3333 40.1142 59.72 38.2475 59.72ZM58.0691 59.6C56.4957 59.6 55.0824 59.2533 53.8291 58.56C52.5757 57.84 51.5757 56.7467 50.8291 55.28C50.1091 53.7867 49.7491 51.88 49.7491 49.56C49.7491 47.2133 50.1624 45.28 50.9891 43.76C51.8157 42.2133 52.9091 41.0667 54.2691 40.32C55.6291 39.5467 57.1091 39.16 58.7091 39.16C59.6424 39.16 60.5357 39.2533 61.3891 39.44C62.2424 39.6267 63.0024 39.9067 63.6691 40.28V35.08C63.6691 34.52 63.5757 34.1067 63.3891 33.84C63.2291 33.5733 62.8691 33.3867 62.3091 33.28L61.5491 33.12V32.72L68.8291 30.96L69.2691 31.32L69.1091 36.92V56.48C69.1091 57.0133 69.2024 57.4533 69.3891 57.8C69.5757 58.12 69.9224 58.3467 70.4291 58.48L70.7891 58.6V59L63.9491 59.44L63.5891 58C62.8691 58.48 62.0424 58.8667 61.1091 59.16C60.2024 59.4533 59.1891 59.6 58.0691 59.6ZM60.3891 58.12C61.5091 58.12 62.5357 57.7867 63.4691 57.12V41.24C62.4824 40.6 61.4691 40.28 60.4291 40.28C59.1491 40.28 58.0557 41.0267 57.1491 42.52C56.2424 43.9867 55.7891 46.3067 55.7891 49.48C55.7891 52.6533 56.2157 54.8933 57.0691 56.2C57.9224 57.48 59.0291 58.12 60.3891 58.12ZM82.5978 39.16C84.3311 39.16 85.8111 39.52 87.0378 40.24C88.2645 40.9333 89.1978 41.8933 89.8378 43.12C90.5045 44.32 90.8378 45.6933 90.8378 47.24C90.8378 47.5333 90.8245 47.84 90.7978 48.16C90.7711 48.4533 90.7178 48.72 90.6378 48.96H78.7178C78.7445 51.84 79.2511 53.92 80.2378 55.2C81.2511 56.4533 82.7445 57.08 84.7178 57.08C86.0511 57.08 87.1311 56.8667 87.9578 56.44C88.7845 56.0133 89.5578 55.3867 90.2778 54.56L90.6778 54.92C89.8511 56.3867 88.7445 57.5333 87.3578 58.36C85.9978 59.1867 84.3578 59.6 82.4378 59.6C80.5445 59.6 78.8645 59.2 77.3978 58.4C75.9311 57.5733 74.7845 56.4 73.9578 54.88C73.1311 53.36 72.7178 51.5467 72.7178 49.44C72.7178 47.2533 73.1978 45.4 74.1578 43.88C75.1178 42.3333 76.3445 41.16 77.8378 40.36C79.3578 39.56 80.9445 39.16 82.5978 39.16ZM82.4778 39.96C81.7045 39.96 81.0378 40.2 80.4778 40.68C79.9445 41.1333 79.5178 41.96 79.1978 43.16C78.9045 44.3333 78.7445 46 78.7178 48.16H85.5578C85.8245 45.2533 85.7178 43.16 85.2378 41.88C84.7578 40.6 83.8378 39.96 82.4778 39.96ZM99.7513 59.6C98.4446 59.6 97.2713 59.44 96.2313 59.12C95.1913 58.8267 94.2312 58.4533 93.3512 58L93.3913 53.24H93.7913L95.1513 55.64C95.7379 56.7067 96.3779 57.5067 97.0713 58.04C97.7913 58.5467 98.6979 58.8 99.7913 58.8C101.071 58.8 102.098 58.52 102.871 57.96C103.671 57.3733 104.071 56.6 104.071 55.64C104.071 54.76 103.791 54.04 103.231 53.48C102.671 52.92 101.631 52.4133 100.111 51.96L98.4313 51.44C96.8046 50.96 95.5246 50.2133 94.5913 49.2C93.6579 48.1867 93.1913 46.9467 93.1913 45.48C93.1913 43.72 93.8846 42.2267 95.2713 41C96.6579 39.7733 98.6446 39.16 101.231 39.16C102.271 39.16 103.245 39.28 104.151 39.52C105.085 39.7333 105.978 40.0667 106.831 40.52L106.591 44.84H106.191L104.791 42.36C104.285 41.48 103.778 40.8667 103.271 40.52C102.791 40.1467 102.058 39.96 101.071 39.96C100.165 39.96 99.3113 40.2133 98.5113 40.72C97.7112 41.2267 97.3112 41.9467 97.3112 42.88C97.3112 43.7867 97.6446 44.5067 98.3113 45.04C99.0046 45.5733 100.018 46.0667 101.351 46.52L103.151 47.04C105.071 47.6267 106.445 48.44 107.271 49.48C108.098 50.4933 108.511 51.72 108.511 53.16C108.511 55.1067 107.738 56.6667 106.191 57.84C104.671 59.0133 102.525 59.6 99.7513 59.6ZM114.936 37.08C114.029 37.08 113.256 36.8 112.616 36.24C112.003 35.6533 111.696 34.92 111.696 34.04C111.696 33.1333 112.003 32.4 112.616 31.84C113.256 31.28 114.029 31 114.936 31C115.843 31 116.603 31.28 117.216 31.84C117.829 32.4 118.136 33.1333 118.136 34.04C118.136 34.92 117.829 35.6533 117.216 36.24C116.603 36.8 115.843 37.08 114.936 37.08ZM110.216 59V58.6L110.776 58.44C111.309 58.28 111.669 58.04 111.856 57.72C112.069 57.4 112.176 56.9733 112.176 56.44V43.92C112.176 43.36 112.069 42.9467 111.856 42.68C111.669 42.3867 111.309 42.1867 110.776 42.08L110.216 41.96V41.56L117.536 39.2L117.936 39.6L117.816 45.28V56.48C117.816 57.0133 117.909 57.44 118.096 57.76C118.309 58.08 118.669 58.32 119.176 58.48L119.576 58.6V59H110.216ZM130.067 52.08C128.227 52.08 126.667 51.7733 125.387 51.16V52.52C125.387 53.3467 125.8 53.84 126.627 54L134.147 55.4C135.4 55.64 136.534 55.96 137.547 56.36C138.56 56.7333 139.374 57.28 139.987 58C140.6 58.6933 140.907 59.6533 140.907 60.88C140.907 62.1867 140.48 63.3867 139.627 64.48C138.774 65.6 137.507 66.4933 135.827 67.16C134.174 67.8533 132.107 68.2 129.627 68.2C127.494 68.2 125.8 67.9733 124.547 67.52C123.294 67.0933 122.4 66.5333 121.867 65.84C121.36 65.1467 121.107 64.4133 121.107 63.64C121.107 62.68 121.427 61.7067 122.067 60.72C122.734 59.76 123.547 58.9867 124.507 58.4C123.68 58.08 123.08 57.6667 122.707 57.16C122.334 56.6533 122.147 56.1067 122.147 55.52C122.147 54.9867 122.28 54.4933 122.547 54.04C122.84 53.56 123.187 53.08 123.587 52.6L124.907 50.92C122.96 49.8 121.987 48.04 121.987 45.64C121.987 43.72 122.667 42.16 124.027 40.96C125.414 39.76 127.44 39.16 130.107 39.16C131.467 39.16 132.654 39.32 133.667 39.64C134.707 39.96 135.56 40.4133 136.227 41C137.08 40.8667 137.88 40.6533 138.627 40.36C139.4 40.04 140.094 39.6133 140.707 39.08L141.267 39.48V41.52H136.747C137.707 42.5867 138.187 43.96 138.187 45.64C138.187 47.5067 137.494 49.0533 136.107 50.28C134.747 51.48 132.734 52.08 130.067 52.08ZM130.027 51.28C131.094 51.28 131.867 50.84 132.347 49.96C132.854 49.08 133.107 47.6133 133.107 45.56C133.107 43.5067 132.854 42.0667 132.347 41.24C131.867 40.3867 131.12 39.96 130.107 39.96C129.12 39.96 128.374 40.4 127.867 41.28C127.36 42.1333 127.107 43.5867 127.107 45.64C127.107 47.6933 127.334 49.1467 127.787 50C128.267 50.8533 129.014 51.28 130.027 51.28ZM124.067 62.36C124.067 63.9333 124.547 65.12 125.507 65.92C126.494 66.72 128.04 67.12 130.147 67.12C132.36 67.12 134.027 66.76 135.147 66.04C136.267 65.32 136.827 64.3067 136.827 63C136.827 62.2533 136.547 61.6533 135.987 61.2C135.454 60.7467 134.534 60.4 133.227 60.16L125.987 58.8C125.774 58.7467 125.56 58.6933 125.347 58.64C124.974 59.1733 124.667 59.7733 124.427 60.44C124.187 61.1333 124.067 61.7733 124.067 62.36ZM142.597 59V58.6L143.157 58.44C144.09 58.1733 144.557 57.52 144.557 56.48V43.96C144.557 43.3733 144.464 42.9467 144.277 42.68C144.09 42.3867 143.73 42.1867 143.197 42.08L142.597 41.92V41.52L149.437 39.2L149.837 39.6L150.157 42C151.09 41.1733 152.144 40.4933 153.317 39.96C154.49 39.4267 155.65 39.16 156.797 39.16C158.557 39.16 159.904 39.64 160.837 40.6C161.797 41.56 162.277 43.0267 162.277 45V56.52C162.277 57.56 162.784 58.2133 163.797 58.48L164.157 58.6V59H154.717V58.6L155.237 58.44C156.17 58.1467 156.637 57.4933 156.637 56.48V43.72C156.637 42.0133 155.784 41.16 154.077 41.16C152.904 41.16 151.624 41.7467 150.237 42.92V56.52C150.237 57.56 150.704 58.2133 151.637 58.48L151.997 58.6V59H142.597Z" fill="black"/>
<rect x="114.596" y="29" width="7" height="7" transform="rotate(45 114.596 29)" fill="black"/>
</svg>
