<svg width="337" height="331" viewBox="0 0 337 331" fill="none" xmlns="http://www.w3.org/2000/svg">
<rect width="337" height="331" fill="#F2F2F2"/>
<path d="M34.7 64.85H37.075V49.775H32.675V52.75H30.875V48.55H45.425V52.75H43.625V49.775H39.225V64.85H41.6V66H34.7V64.85ZM55.6836 66.3C54.5503 66.3 53.5753 66.175 52.7586 65.925C51.9586 65.675 51.3003 65.2667 50.7836 64.7C50.2669 64.1333 49.8919 63.4083 49.6586 62.525C49.4253 61.6417 49.3086 60.5583 49.3086 59.275V49.7H47.4336V48.55H53.3336V49.7H51.4586V59.675C51.4586 60.5583 51.5336 61.325 51.6836 61.975C51.8336 62.625 52.0753 63.1667 52.4086 63.6C52.7586 64.0167 53.2086 64.3333 53.7586 64.55C54.3086 64.7667 54.9919 64.875 55.8086 64.875C57.4419 64.875 58.6003 64.45 59.2836 63.6C59.9669 62.7333 60.3086 61.425 60.3086 59.675V49.7H58.4336V48.55H63.5586V49.7H61.6836V58.95C61.6836 60.2167 61.5836 61.3167 61.3836 62.25C61.1836 63.1667 60.8419 63.925 60.3586 64.525C59.8919 65.125 59.2753 65.575 58.5086 65.875C57.7419 66.1583 56.8003 66.3 55.6836 66.3ZM70.7291 66.3C69.1291 66.3 67.8458 65.725 66.8791 64.575C65.9291 63.4083 65.4541 61.7333 65.4541 59.55C65.4541 57.3667 65.9291 55.7 66.8791 54.55C67.8458 53.3833 69.1291 52.8 70.7291 52.8C71.7291 52.8 72.5374 53.0167 73.1541 53.45C73.7874 53.8833 74.2458 54.4083 74.5291 55.025H74.6291V48.925L72.7541 48.6V47.725L76.6791 47V64.375L78.5291 64.7V65.55L74.6291 66.3V64.05H74.5291C74.2458 64.6667 73.7958 65.2 73.1791 65.65C72.5624 66.0833 71.7458 66.3 70.7291 66.3ZM71.3291 64.875C71.7291 64.875 72.1291 64.8167 72.5291 64.7C72.9291 64.5833 73.2791 64.4167 73.5791 64.2C73.8958 63.9833 74.1458 63.7167 74.3291 63.4C74.5291 63.0667 74.6291 62.7 74.6291 62.3V56.8C74.6291 56.4 74.5291 56.0417 74.3291 55.725C74.1458 55.3917 73.8958 55.1167 73.5791 54.9C73.2791 54.6833 72.9291 54.5167 72.5291 54.4C72.1291 54.2833 71.7291 54.225 71.3291 54.225C70.1791 54.225 69.2791 54.6167 68.6291 55.4C67.9958 56.1667 67.6791 57.2 67.6791 58.5V60.6C67.6791 61.9 67.9958 62.9417 68.6291 63.725C69.2791 64.4917 70.1791 64.875 71.3291 64.875ZM86.3891 66.3C85.4724 66.3 84.6474 66.1417 83.9141 65.825C83.1974 65.4917 82.5891 65.0333 82.0891 64.45C81.5891 63.8667 81.2057 63.1583 80.9391 62.325C80.6724 61.4917 80.5391 60.5667 80.5391 59.55C80.5391 58.55 80.6807 57.6417 80.9641 56.825C81.2641 55.9917 81.6641 55.275 82.1641 54.675C82.6807 54.075 83.2891 53.6167 83.9891 53.3C84.6891 52.9667 85.4557 52.8 86.2891 52.8C87.1391 52.8 87.8974 52.95 88.5641 53.25C89.2307 53.55 89.7891 53.975 90.2391 54.525C90.7057 55.0583 91.0641 55.7 91.3141 56.45C91.5641 57.2 91.6891 58.0167 91.6891 58.9V59.475H82.8141V60.125C82.8141 61.5417 83.1641 62.6583 83.8641 63.475C84.5807 64.2917 85.5307 64.7 86.7141 64.7C87.7474 64.7 88.5641 64.4917 89.1641 64.075C89.7807 63.6417 90.2641 63.0833 90.6141 62.4L91.4391 62.925C91.2724 63.3583 91.0391 63.7833 90.7391 64.2C90.4557 64.6 90.1057 64.9583 89.6891 65.275C89.2724 65.575 88.7891 65.8167 88.2391 66C87.6891 66.2 87.0724 66.3 86.3891 66.3ZM82.8141 58.325H89.5391V58.075C89.5391 57.4917 89.4724 56.95 89.3391 56.45C89.2224 55.95 89.0307 55.5167 88.7641 55.15C88.4974 54.7833 88.1557 54.5 87.7391 54.3C87.3391 54.0833 86.8557 53.975 86.2891 53.975C85.7224 53.975 85.2224 54.075 84.7891 54.275C84.3557 54.475 83.9891 54.7583 83.6891 55.125C83.4057 55.4917 83.1891 55.925 83.0391 56.425C82.8891 56.9083 82.8141 57.4417 82.8141 58.025V58.325ZM99.1174 66.3C98.334 66.3 97.6507 66.1417 97.0674 65.825C96.484 65.4917 96.1007 65.125 95.9174 64.725H95.8174V66H94.3174V62.125H95.8174V62.65C95.8174 63.3667 96.0424 63.95 96.4924 64.4C96.9424 64.85 97.684 65.075 98.7174 65.075C99.6674 65.075 100.401 64.9083 100.917 64.575C101.451 64.225 101.717 63.675 101.717 62.925C101.717 61.7583 101.009 61.0167 99.5924 60.7L98.0924 60.375C96.859 60.1083 95.9257 59.6583 95.2924 59.025C94.6757 58.3917 94.3674 57.525 94.3674 56.425C94.3674 55.2917 94.759 54.4083 95.5424 53.775C96.3257 53.125 97.3757 52.8 98.6924 52.8C99.4924 52.8 100.142 52.925 100.642 53.175C101.159 53.425 101.501 53.75 101.667 54.15H101.767V53.1H103.267V56.975H101.767V56.025C101.767 54.6917 100.834 54.025 98.9674 54.025C98.1174 54.025 97.4507 54.1917 96.9674 54.525C96.5007 54.8417 96.2674 55.35 96.2674 56.05C96.2674 56.6333 96.459 57.125 96.8424 57.525C97.2257 57.9083 97.7507 58.175 98.4174 58.325L99.8174 58.625C101.101 58.8917 102.059 59.3333 102.692 59.95C103.342 60.5667 103.667 61.425 103.667 62.525C103.667 63.0583 103.559 63.5583 103.342 64.025C103.142 64.475 102.842 64.875 102.442 65.225C102.059 65.5583 101.584 65.8167 101.017 66C100.467 66.2 99.834 66.3 99.1174 66.3ZM109.149 50.125C108.716 50.125 108.383 50 108.149 49.75C107.933 49.4833 107.824 49.1667 107.824 48.8V48.675C107.824 48.3083 107.933 48 108.149 47.75C108.383 47.4833 108.716 47.35 109.149 47.35C109.583 47.35 109.916 47.4833 110.149 47.75C110.383 48 110.499 48.3083 110.499 48.675V48.8C110.499 49.1667 110.383 49.4833 110.149 49.75C109.916 50 109.583 50.125 109.149 50.125ZM106.274 64.85H108.124V54.725L106.274 54.4V53.55L110.174 52.8V64.85H112.024V66H106.274V64.85ZM119.46 71.3C118.46 71.3 117.61 71.225 116.91 71.075C116.21 70.925 115.643 70.7167 115.21 70.45C114.777 70.1833 114.46 69.8583 114.26 69.475C114.077 69.0917 113.985 68.6667 113.985 68.2C113.985 67.8667 114.06 67.5583 114.21 67.275C114.36 66.9917 114.56 66.7417 114.81 66.525C115.06 66.3083 115.343 66.125 115.66 65.975C115.977 65.8083 116.302 65.6833 116.635 65.6V65.5C115.585 65.1333 115.06 64.425 115.06 63.375C115.06 62.7083 115.268 62.1833 115.685 61.8C116.118 61.4167 116.618 61.15 117.185 61V60.875C116.402 60.5417 115.777 60.05 115.31 59.4C114.86 58.75 114.635 57.9667 114.635 57.05C114.635 56.4 114.752 55.8167 114.985 55.3C115.235 54.7667 115.577 54.3167 116.01 53.95C116.46 53.5833 116.985 53.3 117.585 53.1C118.185 52.9 118.843 52.8 119.56 52.8C120.343 52.8 121.01 52.9083 121.56 53.125C122.127 53.325 122.602 53.575 122.985 53.875C123.002 52.9083 123.185 52.25 123.535 51.9C123.902 51.55 124.327 51.375 124.81 51.375C125.177 51.375 125.477 51.4833 125.71 51.7C125.96 51.9167 126.085 52.2083 126.085 52.575C126.085 52.925 125.968 53.2167 125.735 53.45C125.518 53.6667 125.21 53.775 124.81 53.775C124.343 53.775 123.985 53.6083 123.735 53.275H123.66V54.525C123.843 54.775 124.035 55.1 124.235 55.5C124.435 55.9 124.535 56.4167 124.535 57.05C124.535 57.7 124.41 58.2917 124.16 58.825C123.91 59.3583 123.56 59.8083 123.11 60.175C122.677 60.5417 122.152 60.825 121.535 61.025C120.935 61.225 120.277 61.325 119.56 61.325C119.093 61.325 118.652 61.275 118.235 61.175C117.802 61.2583 117.41 61.4417 117.06 61.725C116.71 61.9917 116.535 62.3167 116.535 62.7C116.535 63.1167 116.693 63.4083 117.01 63.575C117.327 63.7417 117.86 63.825 118.61 63.825H121.56C123.027 63.825 124.11 64.125 124.81 64.725C125.527 65.3083 125.885 66.15 125.885 67.25C125.885 68.4833 125.343 69.4667 124.26 70.2C123.177 70.9333 121.577 71.3 119.46 71.3ZM119.585 60.25C120.502 60.25 121.185 60.0083 121.635 59.525C122.102 59.0417 122.335 58.3833 122.335 57.55V56.575C122.335 55.7417 122.102 55.0833 121.635 54.6C121.185 54.1167 120.502 53.875 119.585 53.875C118.668 53.875 117.977 54.1167 117.51 54.6C117.06 55.0833 116.835 55.7417 116.835 56.575V57.55C116.835 58.3833 117.06 59.0417 117.51 59.525C117.977 60.0083 118.668 60.25 119.585 60.25ZM115.81 68.075C115.81 68.7417 116.093 69.2417 116.66 69.575C117.243 69.9083 118.018 70.075 118.985 70.075H120.16C121.41 70.075 122.385 69.8667 123.085 69.45C123.802 69.0333 124.16 68.475 124.16 67.775C124.16 67.1417 123.943 66.6583 123.51 66.325C123.077 66.0083 122.318 65.85 121.235 65.85H117.335C116.802 66.0833 116.41 66.3917 116.16 66.775C115.927 67.1583 115.81 67.5917 115.81 68.075ZM127.759 64.85H129.609V54.725L127.759 54.4V53.55L131.609 52.8V55.05H131.709C131.809 54.8 131.959 54.5417 132.159 54.275C132.375 54.0083 132.634 53.7667 132.934 53.55C133.25 53.3333 133.617 53.1583 134.034 53.025C134.45 52.875 134.909 52.8 135.409 52.8C136.959 52.8 138.067 53.2083 138.734 54.025C139.417 54.825 139.759 56.0333 139.759 57.65V64.85H141.609V66H135.859V64.85H137.709V57.825C137.709 55.425 136.7 54.225 134.684 54.225C134.317 54.225 133.95 54.275 133.584 54.375C133.234 54.475 132.909 54.6333 132.609 54.85C132.325 55.0667 132.092 55.3333 131.909 55.65C131.742 55.9667 131.659 56.3417 131.659 56.775V64.85H133.509V66H127.759V64.85ZM150.186 49.7H148.861V48.55H154.711V49.7H152.461L155.711 63.45H155.811L159.636 48.55H161.761L165.686 63.45H165.786L169.061 49.7H166.811V48.55H171.911V49.7H170.586L166.436 66H164.361L160.386 51.4H160.286L156.411 66H154.336L150.186 49.7ZM178.332 66.3C177.416 66.3 176.591 66.1417 175.857 65.825C175.141 65.4917 174.532 65.0333 174.032 64.45C173.532 63.8667 173.149 63.1583 172.882 62.325C172.616 61.4917 172.482 60.5667 172.482 59.55C172.482 58.55 172.624 57.6417 172.907 56.825C173.207 55.9917 173.607 55.275 174.107 54.675C174.624 54.075 175.232 53.6167 175.932 53.3C176.632 52.9667 177.399 52.8 178.232 52.8C179.082 52.8 179.841 52.95 180.507 53.25C181.174 53.55 181.732 53.975 182.182 54.525C182.649 55.0583 183.007 55.7 183.257 56.45C183.507 57.2 183.632 58.0167 183.632 58.9V59.475H174.757V60.125C174.757 61.5417 175.107 62.6583 175.807 63.475C176.524 64.2917 177.474 64.7 178.657 64.7C179.691 64.7 180.507 64.4917 181.107 64.075C181.724 63.6417 182.207 63.0833 182.557 62.4L183.382 62.925C183.216 63.3583 182.982 63.7833 182.682 64.2C182.399 64.6 182.049 64.9583 181.632 65.275C181.216 65.575 180.732 65.8167 180.182 66C179.632 66.2 179.016 66.3 178.332 66.3ZM174.757 58.325H181.482V58.075C181.482 57.4917 181.416 56.95 181.282 56.45C181.166 55.95 180.974 55.5167 180.707 55.15C180.441 54.7833 180.099 54.5 179.682 54.3C179.282 54.0833 178.799 53.975 178.232 53.975C177.666 53.975 177.166 54.075 176.732 54.275C176.299 54.475 175.932 54.7583 175.632 55.125C175.349 55.4917 175.132 55.925 174.982 56.425C174.832 56.9083 174.757 57.4417 174.757 58.025V58.325ZM193.186 66.3C192.152 66.3 191.319 66.0833 190.686 65.65C190.052 65.2167 189.594 64.6917 189.311 64.075H189.211L188.061 66H187.236V48.925L185.386 48.6V47.725L189.286 47V55.05H189.386C189.669 54.4333 190.119 53.9083 190.736 53.475C191.352 53.025 192.169 52.8 193.186 52.8C194.786 52.8 196.061 53.3833 197.011 54.55C197.977 55.7 198.461 57.3667 198.461 59.55C198.461 61.7333 197.977 63.4083 197.011 64.575C196.061 65.725 194.786 66.3 193.186 66.3ZM192.586 64.875C193.736 64.875 194.627 64.4917 195.261 63.725C195.911 62.9417 196.236 61.9 196.236 60.6V58.5C196.236 57.2 195.911 56.1667 195.261 55.4C194.627 54.6167 193.736 54.225 192.586 54.225C192.186 54.225 191.786 54.2833 191.386 54.4C190.986 54.5167 190.627 54.6833 190.311 54.9C190.011 55.1167 189.761 55.3917 189.561 55.725C189.377 56.0417 189.286 56.4 189.286 56.8V62.3C189.286 62.7 189.377 63.0667 189.561 63.4C189.761 63.7167 190.011 63.9833 190.311 64.2C190.627 64.4167 190.986 64.5833 191.386 64.7C191.786 64.8167 192.186 64.875 192.586 64.875ZM206.002 66.3C205.219 66.3 204.535 66.1417 203.952 65.825C203.369 65.4917 202.985 65.125 202.802 64.725H202.702V66H201.202V62.125H202.702V62.65C202.702 63.3667 202.927 63.95 203.377 64.4C203.827 64.85 204.569 65.075 205.602 65.075C206.552 65.075 207.285 64.9083 207.802 64.575C208.335 64.225 208.602 63.675 208.602 62.925C208.602 61.7583 207.894 61.0167 206.477 60.7L204.977 60.375C203.744 60.1083 202.81 59.6583 202.177 59.025C201.56 58.3917 201.252 57.525 201.252 56.425C201.252 55.2917 201.644 54.4083 202.427 53.775C203.21 53.125 204.26 52.8 205.577 52.8C206.377 52.8 207.027 52.925 207.527 53.175C208.044 53.425 208.385 53.75 208.552 54.15H208.652V53.1H210.152V56.975H208.652V56.025C208.652 54.6917 207.719 54.025 205.852 54.025C205.002 54.025 204.335 54.1917 203.852 54.525C203.385 54.8417 203.152 55.35 203.152 56.05C203.152 56.6333 203.344 57.125 203.727 57.525C204.11 57.9083 204.635 58.175 205.302 58.325L206.702 58.625C207.985 58.8917 208.944 59.3333 209.577 59.95C210.227 60.5667 210.552 61.425 210.552 62.525C210.552 63.0583 210.444 63.5583 210.227 64.025C210.027 64.475 209.727 64.875 209.327 65.225C208.944 65.5583 208.469 65.8167 207.902 66C207.352 66.2 206.719 66.3 206.002 66.3ZM216.034 50.125C215.601 50.125 215.268 50 215.034 49.75C214.818 49.4833 214.709 49.1667 214.709 48.8V48.675C214.709 48.3083 214.818 48 215.034 47.75C215.268 47.4833 215.601 47.35 216.034 47.35C216.468 47.35 216.801 47.4833 217.034 47.75C217.268 48 217.384 48.3083 217.384 48.675V48.8C217.384 49.1667 217.268 49.4833 217.034 49.75C216.801 50 216.468 50.125 216.034 50.125ZM213.159 64.85H215.009V54.725L213.159 54.4V53.55L217.059 52.8V64.85H218.909V66H213.159V64.85ZM224.845 66.15C223.962 66.15 223.353 65.975 223.02 65.625C222.687 65.2583 222.52 64.6417 222.52 63.775V54.325H220.87V53.1H221.095C221.445 53.1 221.72 53.075 221.92 53.025C222.137 52.975 222.303 52.9083 222.42 52.825C222.553 52.725 222.645 52.6083 222.695 52.475C222.762 52.325 222.82 52.1583 222.87 51.975L223.445 49.75H224.57V53.1H227.895V54.325H224.57V64.775H227.895V65.6C227.745 65.6833 227.553 65.7583 227.32 65.825C227.103 65.8917 226.853 65.95 226.57 66C226.303 66.05 226.02 66.0833 225.72 66.1C225.42 66.1333 225.128 66.15 224.845 66.15ZM235.583 66.3C234.667 66.3 233.842 66.1417 233.108 65.825C232.392 65.4917 231.783 65.0333 231.283 64.45C230.783 63.8667 230.4 63.1583 230.133 62.325C229.867 61.4917 229.733 60.5667 229.733 59.55C229.733 58.55 229.875 57.6417 230.158 56.825C230.458 55.9917 230.858 55.275 231.358 54.675C231.875 54.075 232.483 53.6167 233.183 53.3C233.883 52.9667 234.65 52.8 235.483 52.8C236.333 52.8 237.092 52.95 237.758 53.25C238.425 53.55 238.983 53.975 239.433 54.525C239.9 55.0583 240.258 55.7 240.508 56.45C240.758 57.2 240.883 58.0167 240.883 58.9V59.475H232.008V60.125C232.008 61.5417 232.358 62.6583 233.058 63.475C233.775 64.2917 234.725 64.7 235.908 64.7C236.942 64.7 237.758 64.4917 238.358 64.075C238.975 63.6417 239.458 63.0833 239.808 62.4L240.633 62.925C240.467 63.3583 240.233 63.7833 239.933 64.2C239.65 64.6 239.3 64.9583 238.883 65.275C238.467 65.575 237.983 65.8167 237.433 66C236.883 66.2 236.267 66.3 235.583 66.3ZM232.008 58.325H238.733V58.075C238.733 57.4917 238.667 56.95 238.533 56.45C238.417 55.95 238.225 55.5167 237.958 55.15C237.692 54.7833 237.35 54.5 236.933 54.3C236.533 54.0833 236.05 53.975 235.483 53.975C234.917 53.975 234.417 54.075 233.983 54.275C233.55 54.475 233.183 54.7583 232.883 55.125C232.6 55.4917 232.383 55.925 232.233 56.425C232.083 56.9083 232.008 57.4417 232.008 58.025V58.325Z" fill="black"/>
<path d="M46.3564 98.1504L42.9199 111H41.417L38.8682 102.352C38.792 102.105 38.7188 101.859 38.6484 101.613C38.584 101.361 38.5225 101.124 38.4639 100.901C38.4053 100.673 38.3555 100.474 38.3145 100.304C38.2793 100.128 38.2529 99.9961 38.2354 99.9082C38.2236 99.9961 38.2002 100.125 38.165 100.295C38.1357 100.465 38.0947 100.661 38.042 100.884C37.9951 101.106 37.9365 101.344 37.8662 101.596C37.8018 101.848 37.7314 102.103 37.6553 102.36L35.1768 111H33.6738L30.2637 98.1504H31.8193L33.8848 106.21C33.9551 106.479 34.0195 106.746 34.0781 107.01C34.1426 107.268 34.1982 107.52 34.2451 107.766C34.2979 108.012 34.3447 108.252 34.3857 108.486C34.4268 108.721 34.4648 108.949 34.5 109.172C34.5293 108.943 34.5674 108.706 34.6143 108.46C34.6611 108.208 34.7109 107.953 34.7637 107.695C34.8223 107.438 34.8838 107.177 34.9482 106.913C35.0186 106.649 35.0918 106.386 35.168 106.122L37.4795 98.1504H39.0176L41.4258 106.184C41.5078 106.459 41.584 106.731 41.6543 107.001C41.7246 107.271 41.7861 107.534 41.8389 107.792C41.8975 108.044 41.9473 108.287 41.9883 108.521C42.0352 108.75 42.0762 108.967 42.1113 109.172C42.1523 108.885 42.2021 108.583 42.2607 108.267C42.3193 107.95 42.3867 107.619 42.4629 107.273C42.5449 106.928 42.6328 106.57 42.7266 106.201L44.792 98.1504H46.3564ZM51.876 101.191C52.6963 101.191 53.3994 101.373 53.9854 101.736C54.5713 102.1 55.0195 102.609 55.3301 103.266C55.6406 103.916 55.7959 104.678 55.7959 105.551V106.456H49.1426C49.1602 107.587 49.4414 108.448 49.9863 109.04C50.5312 109.632 51.2988 109.928 52.2891 109.928C52.8984 109.928 53.4375 109.872 53.9062 109.761C54.375 109.649 54.8613 109.485 55.3652 109.269V110.552C54.8789 110.769 54.3955 110.927 53.915 111.026C53.4404 111.126 52.8779 111.176 52.2275 111.176C51.3018 111.176 50.4932 110.988 49.8018 110.613C49.1162 110.232 48.583 109.676 48.2021 108.943C47.8213 108.211 47.6309 107.314 47.6309 106.254C47.6309 105.217 47.8037 104.32 48.1494 103.564C48.501 102.803 48.9932 102.217 49.626 101.807C50.2646 101.396 51.0146 101.191 51.876 101.191ZM51.8584 102.387C51.0791 102.387 50.458 102.642 49.9951 103.151C49.5322 103.661 49.2568 104.373 49.1689 105.287H54.2666C54.2607 104.713 54.1699 104.209 53.9941 103.775C53.8242 103.336 53.5635 102.996 53.2119 102.756C52.8604 102.51 52.4092 102.387 51.8584 102.387ZM66.3779 111.176C65.1592 111.176 64.1924 110.76 63.4775 109.928C62.7686 109.096 62.4141 107.859 62.4141 106.219C62.4141 104.561 62.7773 103.31 63.5039 102.466C64.2305 101.616 65.1973 101.191 66.4043 101.191C66.9141 101.191 67.3594 101.259 67.7402 101.394C68.1211 101.528 68.4492 101.71 68.7246 101.938C69 102.161 69.2314 102.416 69.4189 102.703H69.5244C69.501 102.521 69.4775 102.272 69.4541 101.956C69.4307 101.64 69.4189 101.382 69.4189 101.183V97.3242H70.8779V111H69.7002L69.4805 109.629H69.4189C69.2373 109.916 69.0059 110.177 68.7246 110.411C68.4492 110.646 68.1182 110.833 67.7314 110.974C67.3506 111.108 66.8994 111.176 66.3779 111.176ZM66.6064 109.963C67.6377 109.963 68.3672 109.67 68.7949 109.084C69.2227 108.498 69.4365 107.628 69.4365 106.474V106.21C69.4365 104.985 69.2314 104.045 68.8213 103.389C68.417 102.732 67.6787 102.404 66.6064 102.404C65.71 102.404 65.0391 102.75 64.5938 103.441C64.1484 104.127 63.9258 105.064 63.9258 106.254C63.9258 107.438 64.1455 108.352 64.585 108.996C65.0303 109.641 65.7041 109.963 66.6064 109.963ZM77.6807 101.191C78.501 101.191 79.2041 101.373 79.79 101.736C80.376 102.1 80.8242 102.609 81.1348 103.266C81.4453 103.916 81.6006 104.678 81.6006 105.551V106.456H74.9473C74.9648 107.587 75.2461 108.448 75.791 109.04C76.3359 109.632 77.1035 109.928 78.0938 109.928C78.7031 109.928 79.2422 109.872 79.7109 109.761C80.1797 109.649 80.666 109.485 81.1699 109.269V110.552C80.6836 110.769 80.2002 110.927 79.7197 111.026C79.2451 111.126 78.6826 111.176 78.0322 111.176C77.1064 111.176 76.2979 110.988 75.6064 110.613C74.9209 110.232 74.3877 109.676 74.0068 108.943C73.626 108.211 73.4355 107.314 73.4355 106.254C73.4355 105.217 73.6084 104.32 73.9541 103.564C74.3057 102.803 74.7979 102.217 75.4307 101.807C76.0693 101.396 76.8193 101.191 77.6807 101.191ZM77.6631 102.387C76.8838 102.387 76.2627 102.642 75.7998 103.151C75.3369 103.661 75.0615 104.373 74.9736 105.287H80.0713C80.0654 104.713 79.9746 104.209 79.7988 103.775C79.6289 103.336 79.3682 102.996 79.0166 102.756C78.665 102.51 78.2139 102.387 77.6631 102.387ZM90.3105 108.363C90.3105 108.979 90.1553 109.497 89.8447 109.919C89.54 110.335 89.1006 110.648 88.5264 110.859C87.958 111.07 87.2783 111.176 86.4873 111.176C85.8135 111.176 85.2305 111.123 84.7383 111.018C84.2461 110.912 83.8154 110.763 83.4463 110.569V109.225C83.8389 109.418 84.3076 109.594 84.8525 109.752C85.3975 109.91 85.9541 109.989 86.5225 109.989C87.3545 109.989 87.958 109.854 88.333 109.585C88.708 109.315 88.8955 108.949 88.8955 108.486C88.8955 108.223 88.8193 107.991 88.667 107.792C88.5205 107.587 88.2715 107.391 87.9199 107.203C87.5684 107.01 87.082 106.799 86.4609 106.57C85.8457 106.336 85.3125 106.104 84.8613 105.876C84.416 105.642 84.0703 105.357 83.8242 105.023C83.584 104.689 83.4639 104.256 83.4639 103.723C83.4639 102.908 83.792 102.284 84.4482 101.851C85.1104 101.411 85.9775 101.191 87.0498 101.191C87.6299 101.191 88.1719 101.25 88.6758 101.367C89.1855 101.479 89.6602 101.631 90.0996 101.824L89.6074 102.993C89.209 102.823 88.7842 102.68 88.333 102.562C87.8818 102.445 87.4219 102.387 86.9531 102.387C86.2793 102.387 85.7607 102.498 85.3975 102.721C85.04 102.943 84.8613 103.248 84.8613 103.635C84.8613 103.934 84.9434 104.18 85.1074 104.373C85.2773 104.566 85.5469 104.748 85.916 104.918C86.2852 105.088 86.7715 105.287 87.375 105.516C87.9785 105.738 88.5 105.97 88.9395 106.21C89.3789 106.444 89.7158 106.731 89.9502 107.071C90.1904 107.405 90.3105 107.836 90.3105 108.363ZM94.1162 101.367V111H92.6572V101.367H94.1162ZM93.4043 97.7637C93.6445 97.7637 93.8496 97.8428 94.0195 98.001C94.1953 98.1533 94.2832 98.3936 94.2832 98.7217C94.2832 99.0439 94.1953 99.2842 94.0195 99.4424C93.8496 99.6006 93.6445 99.6797 93.4043 99.6797C93.1523 99.6797 92.9414 99.6006 92.7715 99.4424C92.6074 99.2842 92.5254 99.0439 92.5254 98.7217C92.5254 98.3936 92.6074 98.1533 92.7715 98.001C92.9414 97.8428 93.1523 97.7637 93.4043 97.7637ZM99.8994 115.324C98.6338 115.324 97.6582 115.087 96.9727 114.612C96.2871 114.144 95.9443 113.484 95.9443 112.635C95.9443 112.031 96.1348 111.516 96.5156 111.088C96.9023 110.66 97.4355 110.376 98.1152 110.235C97.8633 110.118 97.6465 109.942 97.4648 109.708C97.2891 109.474 97.2012 109.204 97.2012 108.899C97.2012 108.548 97.2979 108.24 97.4912 107.977C97.6904 107.707 97.9922 107.449 98.3965 107.203C97.8926 106.998 97.4824 106.652 97.166 106.166C96.8555 105.674 96.7002 105.103 96.7002 104.452C96.7002 103.761 96.8438 103.172 97.1309 102.686C97.418 102.193 97.834 101.818 98.3789 101.561C98.9238 101.303 99.583 101.174 100.356 101.174C100.526 101.174 100.696 101.183 100.866 101.2C101.042 101.212 101.209 101.232 101.367 101.262C101.525 101.285 101.663 101.314 101.78 101.35H105.085V102.29L103.31 102.51C103.485 102.738 103.632 103.014 103.749 103.336C103.866 103.658 103.925 104.016 103.925 104.408C103.925 105.369 103.6 106.134 102.949 106.702C102.299 107.265 101.405 107.546 100.269 107.546C99.999 107.546 99.7236 107.522 99.4424 107.476C99.1553 107.634 98.9355 107.81 98.7832 108.003C98.6367 108.196 98.5635 108.419 98.5635 108.671C98.5635 108.858 98.6191 109.008 98.7305 109.119C98.8477 109.23 99.0146 109.312 99.2314 109.365C99.4482 109.412 99.709 109.436 100.014 109.436H101.71C102.759 109.436 103.562 109.655 104.118 110.095C104.681 110.534 104.962 111.176 104.962 112.02C104.962 113.086 104.528 113.903 103.661 114.472C102.794 115.04 101.54 115.324 99.8994 115.324ZM99.9434 114.182C100.74 114.182 101.399 114.1 101.921 113.936C102.448 113.777 102.841 113.546 103.099 113.241C103.362 112.942 103.494 112.585 103.494 112.169C103.494 111.782 103.406 111.489 103.23 111.29C103.055 111.097 102.797 110.968 102.457 110.903C102.117 110.833 101.701 110.798 101.209 110.798H99.5391C99.1055 110.798 98.7275 110.865 98.4053 111C98.083 111.135 97.834 111.334 97.6582 111.598C97.4883 111.861 97.4033 112.189 97.4033 112.582C97.4033 113.104 97.623 113.499 98.0625 113.769C98.502 114.044 99.1289 114.182 99.9434 114.182ZM100.321 106.482C101.019 106.482 101.543 106.307 101.895 105.955C102.246 105.604 102.422 105.091 102.422 104.417C102.422 103.696 102.243 103.157 101.886 102.8C101.528 102.437 101.001 102.255 100.304 102.255C99.6357 102.255 99.1201 102.442 98.7568 102.817C98.3994 103.187 98.2207 103.729 98.2207 104.443C98.2207 105.1 98.4023 105.604 98.7656 105.955C99.1289 106.307 99.6475 106.482 100.321 106.482ZM111.545 101.191C112.688 101.191 113.552 101.473 114.138 102.035C114.724 102.592 115.017 103.488 115.017 104.725V111H113.575V104.821C113.575 104.019 113.391 103.418 113.021 103.02C112.658 102.621 112.099 102.422 111.343 102.422C110.276 102.422 109.526 102.724 109.093 103.327C108.659 103.931 108.442 104.807 108.442 105.955V111H106.983V101.367H108.161L108.381 102.756H108.46C108.665 102.416 108.926 102.132 109.242 101.903C109.559 101.669 109.913 101.493 110.306 101.376C110.698 101.253 111.111 101.191 111.545 101.191ZM121.731 101.191C122.552 101.191 123.255 101.373 123.841 101.736C124.427 102.1 124.875 102.609 125.186 103.266C125.496 103.916 125.651 104.678 125.651 105.551V106.456H118.998C119.016 107.587 119.297 108.448 119.842 109.04C120.387 109.632 121.154 109.928 122.145 109.928C122.754 109.928 123.293 109.872 123.762 109.761C124.23 109.649 124.717 109.485 125.221 109.269V110.552C124.734 110.769 124.251 110.927 123.771 111.026C123.296 111.126 122.733 111.176 122.083 111.176C121.157 111.176 120.349 110.988 119.657 110.613C118.972 110.232 118.438 109.676 118.058 108.943C117.677 108.211 117.486 107.314 117.486 106.254C117.486 105.217 117.659 104.32 118.005 103.564C118.356 102.803 118.849 102.217 119.481 101.807C120.12 101.396 120.87 101.191 121.731 101.191ZM121.714 102.387C120.935 102.387 120.313 102.642 119.851 103.151C119.388 103.661 119.112 104.373 119.024 105.287H124.122C124.116 104.713 124.025 104.209 123.85 103.775C123.68 103.336 123.419 102.996 123.067 102.756C122.716 102.51 122.265 102.387 121.714 102.387ZM131.558 111.176C130.339 111.176 129.372 110.76 128.657 109.928C127.948 109.096 127.594 107.859 127.594 106.219C127.594 104.561 127.957 103.31 128.684 102.466C129.41 101.616 130.377 101.191 131.584 101.191C132.094 101.191 132.539 101.259 132.92 101.394C133.301 101.528 133.629 101.71 133.904 101.938C134.18 102.161 134.411 102.416 134.599 102.703H134.704C134.681 102.521 134.657 102.272 134.634 101.956C134.61 101.64 134.599 101.382 134.599 101.183V97.3242H136.058V111H134.88L134.66 109.629H134.599C134.417 109.916 134.186 110.177 133.904 110.411C133.629 110.646 133.298 110.833 132.911 110.974C132.53 111.108 132.079 111.176 131.558 111.176ZM131.786 109.963C132.817 109.963 133.547 109.67 133.975 109.084C134.402 108.498 134.616 107.628 134.616 106.474V106.21C134.616 104.985 134.411 104.045 134.001 103.389C133.597 102.732 132.858 102.404 131.786 102.404C130.89 102.404 130.219 102.75 129.773 103.441C129.328 104.127 129.105 105.064 129.105 106.254C129.105 107.438 129.325 108.352 129.765 108.996C130.21 109.641 130.884 109.963 131.786 109.963ZM146.938 109.98C147.179 109.98 147.425 109.96 147.677 109.919C147.929 109.878 148.134 109.828 148.292 109.77V110.903C148.122 110.979 147.885 111.044 147.58 111.097C147.281 111.149 146.988 111.176 146.701 111.176C146.191 111.176 145.729 111.088 145.312 110.912C144.896 110.73 144.562 110.426 144.311 109.998C144.064 109.57 143.941 108.979 143.941 108.223V102.51H142.57V101.798L143.95 101.227L144.53 99.1348H145.409V101.367H148.23V102.51H145.409V108.179C145.409 108.782 145.547 109.233 145.822 109.532C146.104 109.831 146.476 109.98 146.938 109.98ZM151.702 97.3242V101.411C151.702 101.646 151.696 101.883 151.685 102.123C151.673 102.357 151.652 102.574 151.623 102.773H151.72C151.919 102.434 152.171 102.149 152.476 101.921C152.786 101.687 153.138 101.511 153.53 101.394C153.923 101.271 154.339 101.209 154.778 101.209C155.552 101.209 156.196 101.332 156.712 101.578C157.233 101.824 157.623 102.205 157.881 102.721C158.145 103.236 158.276 103.904 158.276 104.725V111H156.835V104.821C156.835 104.019 156.65 103.418 156.281 103.02C155.918 102.621 155.358 102.422 154.603 102.422C153.888 102.422 153.316 102.56 152.889 102.835C152.467 103.104 152.162 103.503 151.975 104.03C151.793 104.558 151.702 105.202 151.702 105.964V111H150.243V97.3242H151.702ZM164.991 101.191C165.812 101.191 166.515 101.373 167.101 101.736C167.687 102.1 168.135 102.609 168.445 103.266C168.756 103.916 168.911 104.678 168.911 105.551V106.456H162.258C162.275 107.587 162.557 108.448 163.102 109.04C163.646 109.632 164.414 109.928 165.404 109.928C166.014 109.928 166.553 109.872 167.021 109.761C167.49 109.649 167.977 109.485 168.48 109.269V110.552C167.994 110.769 167.511 110.927 167.03 111.026C166.556 111.126 165.993 111.176 165.343 111.176C164.417 111.176 163.608 110.988 162.917 110.613C162.231 110.232 161.698 109.676 161.317 108.943C160.937 108.211 160.746 107.314 160.746 106.254C160.746 105.217 160.919 104.32 161.265 103.564C161.616 102.803 162.108 102.217 162.741 101.807C163.38 101.396 164.13 101.191 164.991 101.191ZM164.974 102.387C164.194 102.387 163.573 102.642 163.11 103.151C162.647 103.661 162.372 104.373 162.284 105.287H167.382C167.376 104.713 167.285 104.209 167.109 103.775C166.939 103.336 166.679 102.996 166.327 102.756C165.976 102.51 165.524 102.387 164.974 102.387ZM183.905 110.982L182.191 105.375C182.115 105.135 182.042 104.9 181.972 104.672C181.907 104.438 181.846 104.215 181.787 104.004C181.734 103.787 181.685 103.588 181.638 103.406C181.597 103.219 181.562 103.058 181.532 102.923H181.471C181.447 103.058 181.415 103.219 181.374 103.406C181.333 103.588 181.283 103.787 181.225 104.004C181.172 104.221 181.113 104.449 181.049 104.689C180.984 104.924 180.911 105.161 180.829 105.401L179.036 110.982H177.393L174.738 101.35H176.25L177.639 106.667C177.732 107.019 177.82 107.367 177.902 107.713C177.99 108.053 178.063 108.375 178.122 108.68C178.187 108.979 178.233 109.239 178.263 109.462H178.333C178.368 109.315 178.406 109.14 178.447 108.935C178.494 108.729 178.544 108.513 178.597 108.284C178.655 108.05 178.717 107.818 178.781 107.59C178.846 107.355 178.91 107.136 178.975 106.931L180.75 101.35H182.323L184.037 106.922C184.125 107.203 184.21 107.496 184.292 107.801C184.38 108.105 184.459 108.401 184.529 108.688C184.6 108.97 184.649 109.222 184.679 109.444H184.749C184.772 109.245 184.816 108.999 184.881 108.706C184.945 108.413 185.019 108.091 185.101 107.739C185.188 107.388 185.279 107.03 185.373 106.667L186.779 101.35H188.265L185.602 110.982H183.905ZM193.731 101.191C194.552 101.191 195.255 101.373 195.841 101.736C196.427 102.1 196.875 102.609 197.186 103.266C197.496 103.916 197.651 104.678 197.651 105.551V106.456H190.998C191.016 107.587 191.297 108.448 191.842 109.04C192.387 109.632 193.154 109.928 194.145 109.928C194.754 109.928 195.293 109.872 195.762 109.761C196.23 109.649 196.717 109.485 197.221 109.269V110.552C196.734 110.769 196.251 110.927 195.771 111.026C195.296 111.126 194.733 111.176 194.083 111.176C193.157 111.176 192.349 110.988 191.657 110.613C190.972 110.232 190.438 109.676 190.058 108.943C189.677 108.211 189.486 107.314 189.486 106.254C189.486 105.217 189.659 104.32 190.005 103.564C190.356 102.803 190.849 102.217 191.481 101.807C192.12 101.396 192.87 101.191 193.731 101.191ZM193.714 102.387C192.935 102.387 192.313 102.642 191.851 103.151C191.388 103.661 191.112 104.373 191.024 105.287H196.122C196.116 104.713 196.025 104.209 195.85 103.775C195.68 103.336 195.419 102.996 195.067 102.756C194.716 102.51 194.265 102.387 193.714 102.387ZM201.589 97.3242V100.743C201.589 101.136 201.577 101.517 201.554 101.886C201.536 102.255 201.521 102.542 201.51 102.747H201.589C201.853 102.313 202.233 101.947 202.731 101.648C203.229 101.35 203.865 101.2 204.639 101.2C205.846 101.2 206.807 101.619 207.521 102.457C208.242 103.289 208.603 104.528 208.603 106.175C208.603 107.259 208.438 108.173 208.11 108.917C207.782 109.661 207.319 110.224 206.722 110.604C206.124 110.985 205.418 111.176 204.604 111.176C203.842 111.176 203.215 111.035 202.723 110.754C202.236 110.467 201.861 110.118 201.598 109.708H201.483L201.185 111H200.13V97.3242H201.589ZM204.401 102.422C203.704 102.422 203.15 102.56 202.74 102.835C202.33 103.104 202.034 103.515 201.853 104.065C201.677 104.61 201.589 105.302 201.589 106.14V106.219C201.589 107.432 201.791 108.36 202.195 109.005C202.6 109.644 203.335 109.963 204.401 109.963C205.298 109.963 205.969 109.635 206.414 108.979C206.865 108.322 207.091 107.385 207.091 106.166C207.091 104.924 206.868 103.989 206.423 103.362C205.983 102.735 205.31 102.422 204.401 102.422ZM217.383 108.363C217.383 108.979 217.228 109.497 216.917 109.919C216.612 110.335 216.173 110.648 215.599 110.859C215.03 111.07 214.351 111.176 213.56 111.176C212.886 111.176 212.303 111.123 211.811 111.018C211.318 110.912 210.888 110.763 210.519 110.569V109.225C210.911 109.418 211.38 109.594 211.925 109.752C212.47 109.91 213.026 109.989 213.595 109.989C214.427 109.989 215.03 109.854 215.405 109.585C215.78 109.315 215.968 108.949 215.968 108.486C215.968 108.223 215.892 107.991 215.739 107.792C215.593 107.587 215.344 107.391 214.992 107.203C214.641 107.01 214.154 106.799 213.533 106.57C212.918 106.336 212.385 106.104 211.934 105.876C211.488 105.642 211.143 105.357 210.896 105.023C210.656 104.689 210.536 104.256 210.536 103.723C210.536 102.908 210.864 102.284 211.521 101.851C212.183 101.411 213.05 101.191 214.122 101.191C214.702 101.191 215.244 101.25 215.748 101.367C216.258 101.479 216.732 101.631 217.172 101.824L216.68 102.993C216.281 102.823 215.856 102.68 215.405 102.562C214.954 102.445 214.494 102.387 214.025 102.387C213.352 102.387 212.833 102.498 212.47 102.721C212.112 102.943 211.934 103.248 211.934 103.635C211.934 103.934 212.016 104.18 212.18 104.373C212.35 104.566 212.619 104.748 212.988 104.918C213.357 105.088 213.844 105.287 214.447 105.516C215.051 105.738 215.572 105.97 216.012 106.21C216.451 106.444 216.788 106.731 217.022 107.071C217.263 107.405 217.383 107.836 217.383 108.363ZM221.188 101.367V111H219.729V101.367H221.188ZM220.477 97.7637C220.717 97.7637 220.922 97.8428 221.092 98.001C221.268 98.1533 221.355 98.3936 221.355 98.7217C221.355 99.0439 221.268 99.2842 221.092 99.4424C220.922 99.6006 220.717 99.6797 220.477 99.6797C220.225 99.6797 220.014 99.6006 219.844 99.4424C219.68 99.2842 219.598 99.0439 219.598 98.7217C219.598 98.3936 219.68 98.1533 219.844 98.001C220.014 97.8428 220.225 97.7637 220.477 97.7637ZM227.394 109.98C227.634 109.98 227.88 109.96 228.132 109.919C228.384 109.878 228.589 109.828 228.747 109.77V110.903C228.577 110.979 228.34 111.044 228.035 111.097C227.736 111.149 227.443 111.176 227.156 111.176C226.646 111.176 226.184 111.088 225.768 110.912C225.352 110.73 225.018 110.426 224.766 109.998C224.52 109.57 224.396 108.979 224.396 108.223V102.51H223.025V101.798L224.405 101.227L224.985 99.1348H225.864V101.367H228.686V102.51H225.864V108.179C225.864 108.782 226.002 109.233 226.277 109.532C226.559 109.831 226.931 109.98 227.394 109.98ZM234.407 101.191C235.228 101.191 235.931 101.373 236.517 101.736C237.103 102.1 237.551 102.609 237.861 103.266C238.172 103.916 238.327 104.678 238.327 105.551V106.456H231.674C231.691 107.587 231.973 108.448 232.518 109.04C233.062 109.632 233.83 109.928 234.82 109.928C235.43 109.928 235.969 109.872 236.438 109.761C236.906 109.649 237.393 109.485 237.896 109.269V110.552C237.41 110.769 236.927 110.927 236.446 111.026C235.972 111.126 235.409 111.176 234.759 111.176C233.833 111.176 233.024 110.988 232.333 110.613C231.647 110.232 231.114 109.676 230.733 108.943C230.353 108.211 230.162 107.314 230.162 106.254C230.162 105.217 230.335 104.32 230.681 103.564C231.032 102.803 231.524 102.217 232.157 101.807C232.796 101.396 233.546 101.191 234.407 101.191ZM234.39 102.387C233.61 102.387 232.989 102.642 232.526 103.151C232.063 103.661 231.788 104.373 231.7 105.287H236.798C236.792 104.713 236.701 104.209 236.525 103.775C236.355 103.336 236.095 102.996 235.743 102.756C235.392 102.51 234.94 102.387 234.39 102.387ZM253.787 106.166C253.787 106.957 253.685 107.663 253.479 108.284C253.274 108.905 252.979 109.43 252.592 109.857C252.205 110.285 251.736 110.613 251.186 110.842C250.641 111.064 250.022 111.176 249.331 111.176C248.687 111.176 248.095 111.064 247.556 110.842C247.022 110.613 246.56 110.285 246.167 109.857C245.78 109.43 245.479 108.905 245.262 108.284C245.051 107.663 244.945 106.957 244.945 106.166C244.945 105.111 245.124 104.215 245.481 103.477C245.839 102.732 246.349 102.167 247.011 101.78C247.679 101.388 248.473 101.191 249.393 101.191C250.271 101.191 251.039 101.388 251.695 101.78C252.357 102.173 252.87 102.741 253.233 103.485C253.603 104.224 253.787 105.117 253.787 106.166ZM246.457 106.166C246.457 106.939 246.56 107.61 246.765 108.179C246.97 108.747 247.286 109.187 247.714 109.497C248.142 109.808 248.692 109.963 249.366 109.963C250.034 109.963 250.582 109.808 251.01 109.497C251.443 109.187 251.763 108.747 251.968 108.179C252.173 107.61 252.275 106.939 252.275 106.166C252.275 105.398 252.173 104.736 251.968 104.18C251.763 103.617 251.446 103.184 251.019 102.879C250.591 102.574 250.037 102.422 249.357 102.422C248.355 102.422 247.62 102.753 247.151 103.415C246.688 104.077 246.457 104.994 246.457 106.166ZM260.599 102.51H258.199V111H256.74V102.51H255.035V101.807L256.74 101.323V100.682C256.74 99.873 256.86 99.2168 257.101 98.7129C257.341 98.2031 257.689 97.8281 258.146 97.5879C258.604 97.3477 259.16 97.2275 259.816 97.2275C260.186 97.2275 260.522 97.2598 260.827 97.3242C261.138 97.3887 261.41 97.4619 261.645 97.5439L261.267 98.6953C261.067 98.6309 260.842 98.5723 260.59 98.5195C260.344 98.4609 260.092 98.4316 259.834 98.4316C259.277 98.4316 258.864 98.6133 258.595 98.9766C258.331 99.334 258.199 99.8965 258.199 100.664V101.367H260.599V102.51ZM275.355 106.166C275.355 106.957 275.253 107.663 275.048 108.284C274.843 108.905 274.547 109.43 274.16 109.857C273.773 110.285 273.305 110.613 272.754 110.842C272.209 111.064 271.591 111.176 270.899 111.176C270.255 111.176 269.663 111.064 269.124 110.842C268.591 110.613 268.128 110.285 267.735 109.857C267.349 109.43 267.047 108.905 266.83 108.284C266.619 107.663 266.514 106.957 266.514 106.166C266.514 105.111 266.692 104.215 267.05 103.477C267.407 102.732 267.917 102.167 268.579 101.78C269.247 101.388 270.041 101.191 270.961 101.191C271.84 101.191 272.607 101.388 273.264 101.78C273.926 102.173 274.438 102.741 274.802 103.485C275.171 104.224 275.355 105.117 275.355 106.166ZM268.025 106.166C268.025 106.939 268.128 107.61 268.333 108.179C268.538 108.747 268.854 109.187 269.282 109.497C269.71 109.808 270.261 109.963 270.935 109.963C271.603 109.963 272.15 109.808 272.578 109.497C273.012 109.187 273.331 108.747 273.536 108.179C273.741 107.61 273.844 106.939 273.844 106.166C273.844 105.398 273.741 104.736 273.536 104.18C273.331 103.617 273.015 103.184 272.587 102.879C272.159 102.574 271.605 102.422 270.926 102.422C269.924 102.422 269.188 102.753 268.72 103.415C268.257 104.077 268.025 104.994 268.025 106.166ZM285.832 101.367V111H284.637L284.426 109.646H284.347C284.147 109.98 283.89 110.262 283.573 110.49C283.257 110.719 282.899 110.889 282.501 111C282.108 111.117 281.689 111.176 281.244 111.176C280.482 111.176 279.844 111.053 279.328 110.807C278.812 110.561 278.423 110.18 278.159 109.664C277.901 109.148 277.772 108.486 277.772 107.678V101.367H279.249V107.572C279.249 108.375 279.431 108.976 279.794 109.374C280.157 109.767 280.711 109.963 281.455 109.963C282.17 109.963 282.738 109.828 283.16 109.559C283.588 109.289 283.896 108.894 284.083 108.372C284.271 107.845 284.364 107.2 284.364 106.438V101.367H285.832ZM293.294 101.191C293.487 101.191 293.689 101.203 293.9 101.227C294.111 101.244 294.299 101.271 294.463 101.306L294.278 102.659C294.12 102.618 293.944 102.586 293.751 102.562C293.558 102.539 293.376 102.527 293.206 102.527C292.819 102.527 292.453 102.606 292.107 102.765C291.768 102.917 291.469 103.14 291.211 103.433C290.953 103.72 290.751 104.068 290.604 104.479C290.458 104.883 290.385 105.334 290.385 105.832V111H288.917V101.367H290.13L290.288 103.143H290.35C290.549 102.785 290.789 102.46 291.07 102.167C291.352 101.868 291.677 101.631 292.046 101.455C292.421 101.279 292.837 101.191 293.294 101.191ZM39.8438 131.166C39.8438 131.957 39.7412 132.663 39.5361 133.284C39.3311 133.905 39.0352 134.43 38.6484 134.857C38.2617 135.285 37.793 135.613 37.2422 135.842C36.6973 136.064 36.0791 136.176 35.3877 136.176C34.7432 136.176 34.1514 136.064 33.6123 135.842C33.0791 135.613 32.6162 135.285 32.2236 134.857C31.8369 134.43 31.5352 133.905 31.3184 133.284C31.1074 132.663 31.002 131.957 31.002 131.166C31.002 130.111 31.1807 129.215 31.5381 128.477C31.8955 127.732 32.4053 127.167 33.0674 126.78C33.7354 126.388 34.5293 126.191 35.4492 126.191C36.3281 126.191 37.0957 126.388 37.752 126.78C38.4141 127.173 38.9268 127.741 39.29 128.485C39.6592 129.224 39.8438 130.117 39.8438 131.166ZM32.5137 131.166C32.5137 131.939 32.6162 132.61 32.8213 133.179C33.0264 133.747 33.3428 134.187 33.7705 134.497C34.1982 134.808 34.749 134.963 35.4229 134.963C36.0908 134.963 36.6387 134.808 37.0664 134.497C37.5 134.187 37.8193 133.747 38.0244 133.179C38.2295 132.61 38.332 131.939 38.332 131.166C38.332 130.398 38.2295 129.736 38.0244 129.18C37.8193 128.617 37.5029 128.184 37.0752 127.879C36.6475 127.574 36.0938 127.422 35.4141 127.422C34.4121 127.422 33.6768 127.753 33.208 128.415C32.7451 129.077 32.5137 129.994 32.5137 131.166ZM50.2061 135.982L48.4922 130.375C48.416 130.135 48.3428 129.9 48.2725 129.672C48.208 129.438 48.1465 129.215 48.0879 129.004C48.0352 128.787 47.9854 128.588 47.9385 128.406C47.8975 128.219 47.8623 128.058 47.833 127.923H47.7715C47.748 128.058 47.7158 128.219 47.6748 128.406C47.6338 128.588 47.584 128.787 47.5254 129.004C47.4727 129.221 47.4141 129.449 47.3496 129.689C47.2852 129.924 47.2119 130.161 47.1299 130.401L45.3369 135.982H43.6934L41.0391 126.35H42.5508L43.9395 131.667C44.0332 132.019 44.1211 132.367 44.2031 132.713C44.291 133.053 44.3643 133.375 44.4229 133.68C44.4873 133.979 44.5342 134.239 44.5635 134.462H44.6338C44.6689 134.315 44.707 134.14 44.748 133.935C44.7949 133.729 44.8447 133.513 44.8975 133.284C44.9561 133.05 45.0176 132.818 45.082 132.59C45.1465 132.355 45.2109 132.136 45.2754 131.931L47.0508 126.35H48.624L50.3379 131.922C50.4258 132.203 50.5107 132.496 50.5928 132.801C50.6807 133.105 50.7598 133.401 50.8301 133.688C50.9004 133.97 50.9502 134.222 50.9795 134.444H51.0498C51.0732 134.245 51.1172 133.999 51.1816 133.706C51.2461 133.413 51.3193 133.091 51.4014 132.739C51.4893 132.388 51.5801 132.03 51.6738 131.667L53.0801 126.35H54.5654L51.9023 135.982H50.2061ZM60.8848 126.191C62.0273 126.191 62.8916 126.473 63.4775 127.035C64.0635 127.592 64.3564 128.488 64.3564 129.725V136H62.915V129.821C62.915 129.019 62.7305 128.418 62.3613 128.02C61.998 127.621 61.4385 127.422 60.6826 127.422C59.6162 127.422 58.8662 127.724 58.4326 128.327C57.999 128.931 57.7822 129.807 57.7822 130.955V136H56.3232V126.367H57.501L57.7207 127.756H57.7998C58.0049 127.416 58.2656 127.132 58.582 126.903C58.8984 126.669 59.2529 126.493 59.6455 126.376C60.0381 126.253 60.4512 126.191 60.8848 126.191ZM78.2695 133.363C78.2695 133.979 78.1143 134.497 77.8037 134.919C77.499 135.335 77.0596 135.648 76.4854 135.859C75.917 136.07 75.2373 136.176 74.4463 136.176C73.7725 136.176 73.1895 136.123 72.6973 136.018C72.2051 135.912 71.7744 135.763 71.4053 135.569V134.225C71.7979 134.418 72.2666 134.594 72.8115 134.752C73.3564 134.91 73.9131 134.989 74.4814 134.989C75.3135 134.989 75.917 134.854 76.292 134.585C76.667 134.315 76.8545 133.949 76.8545 133.486C76.8545 133.223 76.7783 132.991 76.626 132.792C76.4795 132.587 76.2305 132.391 75.8789 132.203C75.5273 132.01 75.041 131.799 74.4199 131.57C73.8047 131.336 73.2715 131.104 72.8203 130.876C72.375 130.642 72.0293 130.357 71.7832 130.023C71.543 129.689 71.4229 129.256 71.4229 128.723C71.4229 127.908 71.751 127.284 72.4072 126.851C73.0693 126.411 73.9365 126.191 75.0088 126.191C75.5889 126.191 76.1309 126.25 76.6348 126.367C77.1445 126.479 77.6191 126.631 78.0586 126.824L77.5664 127.993C77.168 127.823 76.7432 127.68 76.292 127.562C75.8408 127.445 75.3809 127.387 74.9121 127.387C74.2383 127.387 73.7197 127.498 73.3564 127.721C72.999 127.943 72.8203 128.248 72.8203 128.635C72.8203 128.934 72.9023 129.18 73.0664 129.373C73.2363 129.566 73.5059 129.748 73.875 129.918C74.2441 130.088 74.7305 130.287 75.334 130.516C75.9375 130.738 76.459 130.97 76.8984 131.21C77.3379 131.444 77.6748 131.731 77.9092 132.071C78.1494 132.405 78.2695 132.836 78.2695 133.363ZM83.7275 134.98C83.9678 134.98 84.2139 134.96 84.4658 134.919C84.7178 134.878 84.9229 134.828 85.0811 134.77V135.903C84.9111 135.979 84.6738 136.044 84.3691 136.097C84.0703 136.149 83.7773 136.176 83.4902 136.176C82.9805 136.176 82.5176 136.088 82.1016 135.912C81.6855 135.73 81.3516 135.426 81.0996 134.998C80.8535 134.57 80.7305 133.979 80.7305 133.223V127.51H79.3594V126.798L80.7393 126.227L81.3193 124.135H82.1982V126.367H85.0195V127.51H82.1982V133.179C82.1982 133.782 82.3359 134.233 82.6113 134.532C82.8926 134.831 83.2646 134.98 83.7275 134.98ZM94.9863 126.367V136H93.791L93.5801 134.646H93.501C93.3018 134.98 93.0439 135.262 92.7275 135.49C92.4111 135.719 92.0537 135.889 91.6553 136C91.2627 136.117 90.8438 136.176 90.3984 136.176C89.6367 136.176 88.998 136.053 88.4824 135.807C87.9668 135.561 87.5771 135.18 87.3135 134.664C87.0557 134.148 86.9268 133.486 86.9268 132.678V126.367H88.4033V132.572C88.4033 133.375 88.585 133.976 88.9482 134.374C89.3115 134.767 89.8652 134.963 90.6094 134.963C91.3242 134.963 91.8926 134.828 92.3145 134.559C92.7422 134.289 93.0498 133.894 93.2373 133.372C93.4248 132.845 93.5186 132.2 93.5186 131.438V126.367H94.9863ZM101.499 136.176C100.28 136.176 99.3135 135.76 98.5986 134.928C97.8896 134.096 97.5352 132.859 97.5352 131.219C97.5352 129.561 97.8984 128.31 98.625 127.466C99.3516 126.616 100.318 126.191 101.525 126.191C102.035 126.191 102.48 126.259 102.861 126.394C103.242 126.528 103.57 126.71 103.846 126.938C104.121 127.161 104.353 127.416 104.54 127.703H104.646C104.622 127.521 104.599 127.272 104.575 126.956C104.552 126.64 104.54 126.382 104.54 126.183V122.324H105.999V136H104.821L104.602 134.629H104.54C104.358 134.916 104.127 135.177 103.846 135.411C103.57 135.646 103.239 135.833 102.853 135.974C102.472 136.108 102.021 136.176 101.499 136.176ZM101.728 134.963C102.759 134.963 103.488 134.67 103.916 134.084C104.344 133.498 104.558 132.628 104.558 131.474V131.21C104.558 129.985 104.353 129.045 103.942 128.389C103.538 127.732 102.8 127.404 101.728 127.404C100.831 127.404 100.16 127.75 99.7148 128.441C99.2695 129.127 99.0469 130.064 99.0469 131.254C99.0469 132.438 99.2666 133.352 99.7061 133.996C100.151 134.641 100.825 134.963 101.728 134.963ZM112.802 126.191C113.622 126.191 114.325 126.373 114.911 126.736C115.497 127.1 115.945 127.609 116.256 128.266C116.566 128.916 116.722 129.678 116.722 130.551V131.456H110.068C110.086 132.587 110.367 133.448 110.912 134.04C111.457 134.632 112.225 134.928 113.215 134.928C113.824 134.928 114.363 134.872 114.832 134.761C115.301 134.649 115.787 134.485 116.291 134.269V135.552C115.805 135.769 115.321 135.927 114.841 136.026C114.366 136.126 113.804 136.176 113.153 136.176C112.228 136.176 111.419 135.988 110.728 135.613C110.042 135.232 109.509 134.676 109.128 133.943C108.747 133.211 108.557 132.314 108.557 131.254C108.557 130.217 108.729 129.32 109.075 128.564C109.427 127.803 109.919 127.217 110.552 126.807C111.19 126.396 111.94 126.191 112.802 126.191ZM112.784 127.387C112.005 127.387 111.384 127.642 110.921 128.151C110.458 128.661 110.183 129.373 110.095 130.287H115.192C115.187 129.713 115.096 129.209 114.92 128.775C114.75 128.336 114.489 127.996 114.138 127.756C113.786 127.51 113.335 127.387 112.784 127.387ZM123.762 126.191C124.904 126.191 125.769 126.473 126.354 127.035C126.94 127.592 127.233 128.488 127.233 129.725V136H125.792V129.821C125.792 129.019 125.607 128.418 125.238 128.02C124.875 127.621 124.315 127.422 123.56 127.422C122.493 127.422 121.743 127.724 121.31 128.327C120.876 128.931 120.659 129.807 120.659 130.955V136H119.2V126.367H120.378L120.598 127.756H120.677C120.882 127.416 121.143 127.132 121.459 126.903C121.775 126.669 122.13 126.493 122.522 126.376C122.915 126.253 123.328 126.191 123.762 126.191ZM133.351 134.98C133.591 134.98 133.837 134.96 134.089 134.919C134.341 134.878 134.546 134.828 134.704 134.77V135.903C134.534 135.979 134.297 136.044 133.992 136.097C133.693 136.149 133.4 136.176 133.113 136.176C132.604 136.176 132.141 136.088 131.725 135.912C131.309 135.73 130.975 135.426 130.723 134.998C130.477 134.57 130.354 133.979 130.354 133.223V127.51H128.982V126.798L130.362 126.227L130.942 124.135H131.821V126.367H134.643V127.51H131.821V133.179C131.821 133.782 131.959 134.233 132.234 134.532C132.516 134.831 132.888 134.98 133.351 134.98ZM145.189 136.176C144.322 136.176 143.558 135.997 142.896 135.64C142.233 135.282 141.718 134.737 141.349 134.005C140.979 133.272 140.795 132.35 140.795 131.236C140.795 130.07 140.988 129.118 141.375 128.38C141.768 127.636 142.307 127.085 142.992 126.728C143.678 126.37 144.457 126.191 145.33 126.191C145.811 126.191 146.273 126.241 146.719 126.341C147.17 126.435 147.539 126.555 147.826 126.701L147.387 127.923C147.094 127.806 146.754 127.7 146.367 127.606C145.986 127.513 145.629 127.466 145.295 127.466C144.627 127.466 144.07 127.609 143.625 127.896C143.186 128.184 142.854 128.605 142.632 129.162C142.415 129.719 142.307 130.404 142.307 131.219C142.307 131.998 142.412 132.663 142.623 133.214C142.84 133.765 143.159 134.187 143.581 134.479C144.009 134.767 144.542 134.91 145.181 134.91C145.69 134.91 146.15 134.857 146.561 134.752C146.971 134.641 147.343 134.512 147.677 134.365V135.666C147.354 135.83 146.994 135.956 146.596 136.044C146.203 136.132 145.734 136.176 145.189 136.176ZM151.43 136H149.962V122.324H151.43V136ZM162.469 126.367V136H161.273L161.062 134.646H160.983C160.784 134.98 160.526 135.262 160.21 135.49C159.894 135.719 159.536 135.889 159.138 136C158.745 136.117 158.326 136.176 157.881 136.176C157.119 136.176 156.48 136.053 155.965 135.807C155.449 135.561 155.06 135.18 154.796 134.664C154.538 134.148 154.409 133.486 154.409 132.678V126.367H155.886V132.572C155.886 133.375 156.067 133.976 156.431 134.374C156.794 134.767 157.348 134.963 158.092 134.963C158.807 134.963 159.375 134.828 159.797 134.559C160.225 134.289 160.532 133.894 160.72 133.372C160.907 132.845 161.001 132.2 161.001 131.438V126.367H162.469ZM167.013 122.324V125.743C167.013 126.136 167.001 126.517 166.978 126.886C166.96 127.255 166.945 127.542 166.934 127.747H167.013C167.276 127.313 167.657 126.947 168.155 126.648C168.653 126.35 169.289 126.2 170.062 126.2C171.27 126.2 172.23 126.619 172.945 127.457C173.666 128.289 174.026 129.528 174.026 131.175C174.026 132.259 173.862 133.173 173.534 133.917C173.206 134.661 172.743 135.224 172.146 135.604C171.548 135.985 170.842 136.176 170.027 136.176C169.266 136.176 168.639 136.035 168.146 135.754C167.66 135.467 167.285 135.118 167.021 134.708H166.907L166.608 136H165.554V122.324H167.013ZM169.825 127.422C169.128 127.422 168.574 127.56 168.164 127.835C167.754 128.104 167.458 128.515 167.276 129.065C167.101 129.61 167.013 130.302 167.013 131.14V131.219C167.013 132.432 167.215 133.36 167.619 134.005C168.023 134.644 168.759 134.963 169.825 134.963C170.722 134.963 171.393 134.635 171.838 133.979C172.289 133.322 172.515 132.385 172.515 131.166C172.515 129.924 172.292 128.989 171.847 128.362C171.407 127.735 170.733 127.422 169.825 127.422ZM176.355 135.086C176.355 134.676 176.455 134.386 176.654 134.216C176.854 134.04 177.097 133.952 177.384 133.952C177.683 133.952 177.935 134.04 178.14 134.216C178.345 134.386 178.447 134.676 178.447 135.086C178.447 135.49 178.345 135.786 178.14 135.974C177.935 136.155 177.683 136.246 177.384 136.246C177.097 136.246 176.854 136.155 176.654 135.974C176.455 135.786 176.355 135.49 176.355 135.086Z" fill="black"/>
<rect y="0.706985" width="26.3268" height="26.3268" transform="matrix(0.707228 0.706985 -0.707228 0.706985 156.826 259.207)" fill="url(#paint0_linear_168_355)" stroke="black"/>
<rect y="0.706985" width="26.3268" height="26.3268" transform="matrix(0.707228 0.706985 -0.707228 0.706985 176.484 259.207)" stroke="black"/>
<defs>
<linearGradient id="paint0_linear_168_355" x1="13.6634" y1="0" x2="13.6634" y2="27.3268" gradientUnits="userSpaceOnUse">
<stop stop-color="#25B7F6"/>
<stop offset="1" stop-color="#3CD39D"/>
</linearGradient>
</defs>
</svg>
