<svg width="316" height="89" viewBox="0 0 316 89" fill="none" xmlns="http://www.w3.org/2000/svg">
<g filter="url(#filter0_d_175_903)">
<rect x="15" y="11" width="286" height="59" rx="29.5" fill="url(#paint0_linear_175_903)" shape-rendering="crispEdges"/>
<path d="M69.4971 37.3672V47H68.0381V37.3672H69.4971ZM68.7852 33.7637C69.0254 33.7637 69.2305 33.8428 69.4004 34.001C69.5762 34.1533 69.6641 34.3936 69.6641 34.7217C69.6641 35.0439 69.5762 35.2842 69.4004 35.4424C69.2305 35.6006 69.0254 35.6797 68.7852 35.6797C68.5332 35.6797 68.3223 35.6006 68.1523 35.4424C67.9883 35.2842 67.9062 35.0439 67.9062 34.7217C67.9062 34.3936 67.9883 34.1533 68.1523 34.001C68.3223 33.8428 68.5332 33.7637 68.7852 33.7637ZM77.1523 37.1914C78.2949 37.1914 79.1592 37.4727 79.7451 38.0352C80.3311 38.5918 80.624 39.4883 80.624 40.7246V47H79.1826V40.8213C79.1826 40.0186 78.998 39.418 78.6289 39.0195C78.2656 38.6211 77.7061 38.4219 76.9502 38.4219C75.8838 38.4219 75.1338 38.7236 74.7002 39.3271C74.2666 39.9307 74.0498 40.8066 74.0498 41.9551V47H72.5908V37.3672H73.7686L73.9883 38.7559H74.0674C74.2725 38.416 74.5332 38.1318 74.8496 37.9033C75.166 37.6689 75.5205 37.4932 75.9131 37.376C76.3057 37.2529 76.7188 37.1914 77.1523 37.1914ZM87.9189 38.5098H85.5195V47H84.0605V38.5098H82.3555V37.8066L84.0605 37.3232V36.6816C84.0605 35.873 84.1807 35.2168 84.4209 34.7129C84.6611 34.2031 85.0098 33.8281 85.4668 33.5879C85.9238 33.3477 86.4805 33.2275 87.1367 33.2275C87.5059 33.2275 87.8428 33.2598 88.1475 33.3242C88.458 33.3887 88.7305 33.4619 88.9648 33.5439L88.5869 34.6953C88.3877 34.6309 88.1621 34.5723 87.9102 34.5195C87.6641 34.4609 87.4121 34.4316 87.1543 34.4316C86.5977 34.4316 86.1846 34.6133 85.915 34.9766C85.6514 35.334 85.5195 35.8965 85.5195 36.6641V37.3672H87.9189V38.5098ZM98 42.166C98 42.957 97.8975 43.6631 97.6924 44.2842C97.4873 44.9053 97.1914 45.4297 96.8047 45.8574C96.418 46.2852 95.9492 46.6133 95.3984 46.8418C94.8535 47.0645 94.2354 47.1758 93.5439 47.1758C92.8994 47.1758 92.3076 47.0645 91.7686 46.8418C91.2354 46.6133 90.7725 46.2852 90.3799 45.8574C89.9932 45.4297 89.6914 44.9053 89.4746 44.2842C89.2637 43.6631 89.1582 42.957 89.1582 42.166C89.1582 41.1113 89.3369 40.2148 89.6943 39.4766C90.0518 38.7324 90.5615 38.167 91.2236 37.7803C91.8916 37.3877 92.6855 37.1914 93.6055 37.1914C94.4844 37.1914 95.252 37.3877 95.9082 37.7803C96.5703 38.1729 97.083 38.7412 97.4463 39.4854C97.8154 40.2236 98 41.1172 98 42.166ZM90.6699 42.166C90.6699 42.9395 90.7725 43.6104 90.9775 44.1787C91.1826 44.7471 91.499 45.1865 91.9268 45.4971C92.3545 45.8076 92.9053 45.9629 93.5791 45.9629C94.2471 45.9629 94.7949 45.8076 95.2227 45.4971C95.6562 45.1865 95.9756 44.7471 96.1807 44.1787C96.3857 43.6104 96.4883 42.9395 96.4883 42.166C96.4883 41.3984 96.3857 40.7363 96.1807 40.1797C95.9756 39.6172 95.6592 39.1836 95.2314 38.8789C94.8037 38.5742 94.25 38.4219 93.5703 38.4219C92.5684 38.4219 91.833 38.7529 91.3643 39.415C90.9014 40.0771 90.6699 40.9941 90.6699 42.166ZM114.093 40.584C114.093 41.1406 114.028 41.6855 113.899 42.2188C113.776 42.7461 113.586 43.2236 113.328 43.6514C113.07 44.0732 112.748 44.4102 112.361 44.6621C111.98 44.9141 111.529 45.04 111.008 45.04C110.463 45.04 110.029 44.8818 109.707 44.5654C109.385 44.249 109.191 43.874 109.127 43.4404H109.048C108.825 43.9033 108.497 44.2871 108.063 44.5918C107.636 44.8906 107.108 45.04 106.481 45.04C105.567 45.04 104.861 44.7383 104.363 44.1348C103.871 43.5254 103.625 42.7168 103.625 41.709C103.625 40.9238 103.78 40.2295 104.091 39.626C104.407 39.0166 104.85 38.5391 105.418 38.1934C105.992 37.8418 106.669 37.666 107.448 37.666C107.97 37.666 108.477 37.71 108.969 37.7979C109.461 37.8857 109.854 37.9824 110.146 38.0879L109.971 41.6299C109.965 41.8467 109.959 42.0137 109.953 42.1309C109.947 42.2422 109.944 42.3301 109.944 42.3945C109.944 43.0273 110.056 43.4551 110.278 43.6777C110.507 43.8945 110.782 44.0029 111.104 44.0029C111.497 44.0029 111.825 43.8506 112.089 43.5459C112.358 43.2354 112.563 42.8223 112.704 42.3066C112.845 41.7852 112.915 41.208 112.915 40.5752C112.915 39.4561 112.689 38.501 112.238 37.71C111.787 36.9189 111.163 36.3154 110.366 35.8994C109.575 35.4834 108.664 35.2754 107.633 35.2754C106.607 35.2754 105.696 35.4365 104.899 35.7588C104.108 36.0811 103.438 36.5381 102.887 37.1299C102.342 37.7158 101.929 38.4131 101.647 39.2217C101.366 40.0303 101.226 40.9238 101.226 41.9023C101.226 43.0977 101.437 44.1143 101.858 44.9521C102.286 45.79 102.91 46.4287 103.73 46.8682C104.557 47.3018 105.562 47.5186 106.745 47.5186C107.46 47.5186 108.148 47.4395 108.811 47.2812C109.473 47.123 110.064 46.9443 110.586 46.7451V47.8877C110.07 48.1045 109.493 48.2803 108.854 48.415C108.216 48.5557 107.513 48.626 106.745 48.626C105.333 48.626 104.126 48.3594 103.124 47.8262C102.122 47.2988 101.354 46.5371 100.821 45.541C100.288 44.5449 100.021 43.3496 100.021 41.9551C100.021 40.8242 100.194 39.7842 100.54 38.835C100.892 37.8857 101.396 37.0625 102.052 36.3652C102.714 35.668 103.514 35.1289 104.451 34.748C105.395 34.3613 106.455 34.168 107.633 34.168C108.893 34.168 110.006 34.4287 110.973 34.9502C111.945 35.4658 112.707 36.2041 113.258 37.165C113.814 38.1201 114.093 39.2598 114.093 40.584ZM104.935 41.7441C104.935 42.5234 105.09 43.0947 105.4 43.458C105.711 43.8213 106.142 44.0029 106.692 44.0029C107.372 44.0029 107.87 43.748 108.187 43.2383C108.509 42.7285 108.693 42.0547 108.74 41.2168L108.846 38.9229C108.676 38.8701 108.468 38.8262 108.222 38.791C107.981 38.75 107.729 38.7295 107.466 38.7295C106.862 38.7295 106.373 38.873 105.998 39.1602C105.629 39.4473 105.359 39.8193 105.189 40.2764C105.02 40.7334 104.935 41.2227 104.935 41.7441ZM119.771 45.9805C120.011 45.9805 120.257 45.96 120.509 45.9189C120.761 45.8779 120.966 45.8281 121.124 45.7695V46.9033C120.954 46.9795 120.717 47.0439 120.412 47.0967C120.113 47.1494 119.82 47.1758 119.533 47.1758C119.023 47.1758 118.561 47.0879 118.145 46.9121C117.729 46.7305 117.395 46.4258 117.143 45.998C116.896 45.5703 116.773 44.9785 116.773 44.2227V38.5098H115.402V37.7979L116.782 37.2266L117.362 35.1348H118.241V37.3672H121.062V38.5098H118.241V44.1787C118.241 44.7822 118.379 45.2334 118.654 45.5322C118.936 45.8311 119.308 45.9805 119.771 45.9805ZM131.029 37.3672V47H129.834L129.623 45.6465H129.544C129.345 45.9805 129.087 46.2617 128.771 46.4902C128.454 46.7188 128.097 46.8887 127.698 47C127.306 47.1172 126.887 47.1758 126.441 47.1758C125.68 47.1758 125.041 47.0527 124.525 46.8066C124.01 46.5605 123.62 46.1797 123.356 45.6641C123.099 45.1484 122.97 44.4863 122.97 43.6777V37.3672H124.446V43.5723C124.446 44.375 124.628 44.9756 124.991 45.374C125.354 45.7666 125.908 45.9629 126.652 45.9629C127.367 45.9629 127.936 45.8281 128.357 45.5586C128.785 45.2891 129.093 44.8936 129.28 44.3721C129.468 43.8447 129.562 43.2002 129.562 42.4385V37.3672H131.029ZM137.542 47.1758C136.323 47.1758 135.356 46.7598 134.642 45.9277C133.933 45.0957 133.578 43.8594 133.578 42.2188C133.578 40.5605 133.941 39.3096 134.668 38.4658C135.395 37.6162 136.361 37.1914 137.568 37.1914C138.078 37.1914 138.523 37.2588 138.904 37.3936C139.285 37.5283 139.613 37.71 139.889 37.9385C140.164 38.1611 140.396 38.416 140.583 38.7031H140.688C140.665 38.5215 140.642 38.2725 140.618 37.9561C140.595 37.6396 140.583 37.3818 140.583 37.1826V33.3242H142.042V47H140.864L140.645 45.6289H140.583C140.401 45.916 140.17 46.1768 139.889 46.4111C139.613 46.6455 139.282 46.833 138.896 46.9736C138.515 47.1084 138.063 47.1758 137.542 47.1758ZM137.771 45.9629C138.802 45.9629 139.531 45.6699 139.959 45.084C140.387 44.498 140.601 43.6279 140.601 42.4736V42.21C140.601 40.9854 140.396 40.0449 139.985 39.3887C139.581 38.7324 138.843 38.4043 137.771 38.4043C136.874 38.4043 136.203 38.75 135.758 39.4414C135.312 40.127 135.09 41.0645 135.09 42.2539C135.09 43.4375 135.31 44.3516 135.749 44.9961C136.194 45.6406 136.868 45.9629 137.771 45.9629ZM148.845 37.1914C149.665 37.1914 150.368 37.373 150.954 37.7363C151.54 38.0996 151.988 38.6094 152.299 39.2656C152.609 39.916 152.765 40.6777 152.765 41.5508V42.4561H146.111C146.129 43.5869 146.41 44.4482 146.955 45.04C147.5 45.6318 148.268 45.9277 149.258 45.9277C149.867 45.9277 150.406 45.8721 150.875 45.7607C151.344 45.6494 151.83 45.4854 152.334 45.2686V46.5518C151.848 46.7686 151.364 46.9268 150.884 47.0264C150.409 47.126 149.847 47.1758 149.196 47.1758C148.271 47.1758 147.462 46.9883 146.771 46.6133C146.085 46.2324 145.552 45.6758 145.171 44.9434C144.79 44.2109 144.6 43.3145 144.6 42.2539C144.6 41.2168 144.772 40.3203 145.118 39.5645C145.47 38.8027 145.962 38.2168 146.595 37.8066C147.233 37.3965 147.983 37.1914 148.845 37.1914ZM148.827 38.3867C148.048 38.3867 147.427 38.6416 146.964 39.1514C146.501 39.6611 146.226 40.373 146.138 41.2871H151.235C151.229 40.7129 151.139 40.209 150.963 39.7754C150.793 39.3359 150.532 38.9961 150.181 38.7559C149.829 38.5098 149.378 38.3867 148.827 38.3867ZM161.475 44.3633C161.475 44.9785 161.319 45.4971 161.009 45.9189C160.704 46.335 160.265 46.6484 159.69 46.8594C159.122 47.0703 158.442 47.1758 157.651 47.1758C156.978 47.1758 156.395 47.123 155.902 47.0176C155.41 46.9121 154.979 46.7627 154.61 46.5693V45.2246C155.003 45.418 155.472 45.5938 156.017 45.752C156.562 45.9102 157.118 45.9893 157.687 45.9893C158.519 45.9893 159.122 45.8545 159.497 45.585C159.872 45.3154 160.06 44.9492 160.06 44.4863C160.06 44.2227 159.983 43.9912 159.831 43.792C159.685 43.5869 159.436 43.3906 159.084 43.2031C158.732 43.0098 158.246 42.7988 157.625 42.5703C157.01 42.3359 156.477 42.1045 156.025 41.876C155.58 41.6416 155.234 41.3574 154.988 41.0234C154.748 40.6895 154.628 40.2559 154.628 39.7227C154.628 38.9082 154.956 38.2842 155.612 37.8506C156.274 37.4111 157.142 37.1914 158.214 37.1914C158.794 37.1914 159.336 37.25 159.84 37.3672C160.35 37.4785 160.824 37.6309 161.264 37.8242L160.771 38.9932C160.373 38.8232 159.948 38.6797 159.497 38.5625C159.046 38.4453 158.586 38.3867 158.117 38.3867C157.443 38.3867 156.925 38.498 156.562 38.7207C156.204 38.9434 156.025 39.248 156.025 39.6348C156.025 39.9336 156.107 40.1797 156.271 40.373C156.441 40.5664 156.711 40.748 157.08 40.918C157.449 41.0879 157.936 41.2871 158.539 41.5156C159.143 41.7383 159.664 41.9697 160.104 42.21C160.543 42.4443 160.88 42.7314 161.114 43.0713C161.354 43.4053 161.475 43.8359 161.475 44.3633ZM165.28 37.3672V47H163.821V37.3672H165.28ZM164.568 33.7637C164.809 33.7637 165.014 33.8428 165.184 34.001C165.359 34.1533 165.447 34.3936 165.447 34.7217C165.447 35.0439 165.359 35.2842 165.184 35.4424C165.014 35.6006 164.809 35.6797 164.568 35.6797C164.316 35.6797 164.105 35.6006 163.936 35.4424C163.771 35.2842 163.689 35.0439 163.689 34.7217C163.689 34.3936 163.771 34.1533 163.936 34.001C164.105 33.8428 164.316 33.7637 164.568 33.7637ZM171.063 51.3242C169.798 51.3242 168.822 51.0869 168.137 50.6123C167.451 50.1436 167.108 49.4844 167.108 48.6348C167.108 48.0312 167.299 47.5156 167.68 47.0879C168.066 46.6602 168.6 46.376 169.279 46.2354C169.027 46.1182 168.811 45.9424 168.629 45.708C168.453 45.4736 168.365 45.2041 168.365 44.8994C168.365 44.5479 168.462 44.2402 168.655 43.9766C168.854 43.707 169.156 43.4492 169.561 43.2031C169.057 42.998 168.646 42.6523 168.33 42.166C168.02 41.6738 167.864 41.1025 167.864 40.4521C167.864 39.7607 168.008 39.1719 168.295 38.6855C168.582 38.1934 168.998 37.8184 169.543 37.5605C170.088 37.3027 170.747 37.1738 171.521 37.1738C171.69 37.1738 171.86 37.1826 172.03 37.2002C172.206 37.2119 172.373 37.2324 172.531 37.2617C172.689 37.2852 172.827 37.3145 172.944 37.3496H176.249V38.29L174.474 38.5098C174.649 38.7383 174.796 39.0137 174.913 39.3359C175.03 39.6582 175.089 40.0156 175.089 40.4082C175.089 41.3691 174.764 42.1338 174.113 42.7021C173.463 43.2646 172.569 43.5459 171.433 43.5459C171.163 43.5459 170.888 43.5225 170.606 43.4756C170.319 43.6338 170.1 43.8096 169.947 44.0029C169.801 44.1963 169.728 44.4189 169.728 44.6709C169.728 44.8584 169.783 45.0078 169.895 45.1191C170.012 45.2305 170.179 45.3125 170.396 45.3652C170.612 45.4121 170.873 45.4355 171.178 45.4355H172.874C173.923 45.4355 174.726 45.6553 175.282 46.0947C175.845 46.5342 176.126 47.1758 176.126 48.0195C176.126 49.0859 175.692 49.9033 174.825 50.4717C173.958 51.04 172.704 51.3242 171.063 51.3242ZM171.107 50.1816C171.904 50.1816 172.563 50.0996 173.085 49.9355C173.612 49.7773 174.005 49.5459 174.263 49.2412C174.526 48.9424 174.658 48.585 174.658 48.1689C174.658 47.7822 174.57 47.4893 174.395 47.29C174.219 47.0967 173.961 46.9678 173.621 46.9033C173.281 46.833 172.865 46.7979 172.373 46.7979H170.703C170.27 46.7979 169.892 46.8652 169.569 47C169.247 47.1348 168.998 47.334 168.822 47.5977C168.652 47.8613 168.567 48.1895 168.567 48.582C168.567 49.1035 168.787 49.499 169.227 49.7686C169.666 50.0439 170.293 50.1816 171.107 50.1816ZM171.485 42.4824C172.183 42.4824 172.707 42.3066 173.059 41.9551C173.41 41.6035 173.586 41.0908 173.586 40.417C173.586 39.6963 173.407 39.1572 173.05 38.7998C172.692 38.4365 172.165 38.2549 171.468 38.2549C170.8 38.2549 170.284 38.4424 169.921 38.8174C169.563 39.1865 169.385 39.7285 169.385 40.4434C169.385 41.0996 169.566 41.6035 169.93 41.9551C170.293 42.3066 170.812 42.4824 171.485 42.4824ZM182.709 37.1914C183.852 37.1914 184.716 37.4727 185.302 38.0352C185.888 38.5918 186.181 39.4883 186.181 40.7246V47H184.739V40.8213C184.739 40.0186 184.555 39.418 184.186 39.0195C183.822 38.6211 183.263 38.4219 182.507 38.4219C181.44 38.4219 180.69 38.7236 180.257 39.3271C179.823 39.9307 179.606 40.8066 179.606 41.9551V47H178.147V37.3672H179.325L179.545 38.7559H179.624C179.829 38.416 180.09 38.1318 180.406 37.9033C180.723 37.6689 181.077 37.4932 181.47 37.376C181.862 37.2529 182.275 37.1914 182.709 37.1914ZM193.045 47.1758C192.178 47.1758 191.413 46.9971 190.751 46.6396C190.089 46.2822 189.573 45.7373 189.204 45.0049C188.835 44.2725 188.65 43.3496 188.65 42.2363C188.65 41.0703 188.844 40.1182 189.23 39.3799C189.623 38.6357 190.162 38.085 190.848 37.7275C191.533 37.3701 192.312 37.1914 193.186 37.1914C193.666 37.1914 194.129 37.2412 194.574 37.3408C195.025 37.4346 195.395 37.5547 195.682 37.7012L195.242 38.9229C194.949 38.8057 194.609 38.7002 194.223 38.6064C193.842 38.5127 193.484 38.4658 193.15 38.4658C192.482 38.4658 191.926 38.6094 191.48 38.8965C191.041 39.1836 190.71 39.6055 190.487 40.1621C190.271 40.7188 190.162 41.4043 190.162 42.2188C190.162 42.998 190.268 43.6631 190.479 44.2139C190.695 44.7646 191.015 45.1865 191.437 45.4795C191.864 45.7666 192.397 45.9102 193.036 45.9102C193.546 45.9102 194.006 45.8574 194.416 45.752C194.826 45.6406 195.198 45.5117 195.532 45.3652V46.666C195.21 46.8301 194.85 46.9561 194.451 47.0439C194.059 47.1318 193.59 47.1758 193.045 47.1758ZM199.285 47H197.817V33.3242H199.285V47ZM210.324 37.3672V47H209.129L208.918 45.6465H208.839C208.64 45.9805 208.382 46.2617 208.065 46.4902C207.749 46.7188 207.392 46.8887 206.993 47C206.601 47.1172 206.182 47.1758 205.736 47.1758C204.975 47.1758 204.336 47.0527 203.82 46.8066C203.305 46.5605 202.915 46.1797 202.651 45.6641C202.394 45.1484 202.265 44.4863 202.265 43.6777V37.3672H203.741V43.5723C203.741 44.375 203.923 44.9756 204.286 45.374C204.649 45.7666 205.203 45.9629 205.947 45.9629C206.662 45.9629 207.23 45.8281 207.652 45.5586C208.08 45.2891 208.388 44.8936 208.575 44.3721C208.763 43.8447 208.856 43.2002 208.856 42.4385V37.3672H210.324ZM214.868 33.3242V36.7432C214.868 37.1357 214.856 37.5166 214.833 37.8857C214.815 38.2549 214.801 38.542 214.789 38.7471H214.868C215.132 38.3135 215.513 37.9473 216.011 37.6484C216.509 37.3496 217.145 37.2002 217.918 37.2002C219.125 37.2002 220.086 37.6191 220.801 38.457C221.521 39.2891 221.882 40.5283 221.882 42.1748C221.882 43.2588 221.718 44.1729 221.39 44.917C221.062 45.6611 220.599 46.2236 220.001 46.6045C219.403 46.9854 218.697 47.1758 217.883 47.1758C217.121 47.1758 216.494 47.0352 216.002 46.7539C215.516 46.4668 215.141 46.1182 214.877 45.708H214.763L214.464 47H213.409V33.3242H214.868ZM217.681 38.4219C216.983 38.4219 216.43 38.5596 216.02 38.835C215.609 39.1045 215.313 39.5146 215.132 40.0654C214.956 40.6104 214.868 41.3018 214.868 42.1396V42.2188C214.868 43.4316 215.07 44.3604 215.475 45.0049C215.879 45.6436 216.614 45.9629 217.681 45.9629C218.577 45.9629 219.248 45.6348 219.693 44.9785C220.145 44.3223 220.37 43.3848 220.37 42.166C220.37 40.9238 220.147 39.9893 219.702 39.3623C219.263 38.7354 218.589 38.4219 217.681 38.4219ZM224.211 46.0859C224.211 45.6758 224.311 45.3857 224.51 45.2158C224.709 45.04 224.952 44.9521 225.239 44.9521C225.538 44.9521 225.79 45.04 225.995 45.2158C226.2 45.3857 226.303 45.6758 226.303 46.0859C226.303 46.4902 226.2 46.7861 225.995 46.9736C225.79 47.1553 225.538 47.2461 225.239 47.2461C224.952 47.2461 224.709 47.1553 224.51 46.9736C224.311 46.7861 224.211 46.4902 224.211 46.0859ZM232.587 47.1758C231.368 47.1758 230.401 46.7598 229.687 45.9277C228.978 45.0957 228.623 43.8594 228.623 42.2188C228.623 40.5605 228.986 39.3096 229.713 38.4658C230.439 37.6162 231.406 37.1914 232.613 37.1914C233.123 37.1914 233.568 37.2588 233.949 37.3936C234.33 37.5283 234.658 37.71 234.934 37.9385C235.209 38.1611 235.44 38.416 235.628 38.7031H235.733C235.71 38.5215 235.687 38.2725 235.663 37.9561C235.64 37.6396 235.628 37.3818 235.628 37.1826V33.3242H237.087V47H235.909L235.689 45.6289H235.628C235.446 45.916 235.215 46.1768 234.934 46.4111C234.658 46.6455 234.327 46.833 233.94 46.9736C233.56 47.1084 233.108 47.1758 232.587 47.1758ZM232.815 45.9629C233.847 45.9629 234.576 45.6699 235.004 45.084C235.432 44.498 235.646 43.6279 235.646 42.4736V42.21C235.646 40.9854 235.44 40.0449 235.03 39.3887C234.626 38.7324 233.888 38.4043 232.815 38.4043C231.919 38.4043 231.248 38.75 230.803 39.4414C230.357 40.127 230.135 41.0645 230.135 42.2539C230.135 43.4375 230.354 44.3516 230.794 44.9961C231.239 45.6406 231.913 45.9629 232.815 45.9629ZM243.89 37.1914C244.71 37.1914 245.413 37.373 245.999 37.7363C246.585 38.0996 247.033 38.6094 247.344 39.2656C247.654 39.916 247.81 40.6777 247.81 41.5508V42.4561H241.156C241.174 43.5869 241.455 44.4482 242 45.04C242.545 45.6318 243.312 45.9277 244.303 45.9277C244.912 45.9277 245.451 45.8721 245.92 45.7607C246.389 45.6494 246.875 45.4854 247.379 45.2686V46.5518C246.893 46.7686 246.409 46.9268 245.929 47.0264C245.454 47.126 244.892 47.1758 244.241 47.1758C243.315 47.1758 242.507 46.9883 241.815 46.6133C241.13 46.2324 240.597 45.6758 240.216 44.9434C239.835 44.2109 239.645 43.3145 239.645 42.2539C239.645 41.2168 239.817 40.3203 240.163 39.5645C240.515 38.8027 241.007 38.2168 241.64 37.8066C242.278 37.3965 243.028 37.1914 243.89 37.1914ZM243.872 38.3867C243.093 38.3867 242.472 38.6416 242.009 39.1514C241.546 39.6611 241.271 40.373 241.183 41.2871H246.28C246.274 40.7129 246.184 40.209 246.008 39.7754C245.838 39.3359 245.577 38.9961 245.226 38.7559C244.874 38.5098 244.423 38.3867 243.872 38.3867Z" fill="white"/>
</g>
<defs>
<filter id="filter0_d_175_903" x="0" y="0" width="316" height="89" filterUnits="userSpaceOnUse" color-interpolation-filters="sRGB">
<feFlood flood-opacity="0" result="BackgroundImageFix"/>
<feColorMatrix in="SourceAlpha" type="matrix" values="0 0 0 0 0 0 0 0 0 0 0 0 0 0 0 0 0 0 127 0" result="hardAlpha"/>
<feOffset dy="4"/>
<feGaussianBlur stdDeviation="7.5"/>
<feComposite in2="hardAlpha" operator="out"/>
<feColorMatrix type="matrix" values="0 0 0 0 0 0 0 0 0 0 0 0 0 0 0 0 0 0 0.2 0"/>
<feBlend mode="normal" in2="BackgroundImageFix" result="effect1_dropShadow_175_903"/>
<feBlend mode="normal" in="SourceGraphic" in2="effect1_dropShadow_175_903" result="shape"/>
</filter>
<linearGradient id="paint0_linear_175_903" x1="20.9924" y1="40.7757" x2="301" y2="40.7757" gradientUnits="userSpaceOnUse">
<stop stop-color="#25B6F5"/>
<stop offset="1" stop-color="#3CD29C"/>
</linearGradient>
</defs>
</svg>
