<svg width="1223" height="124" viewBox="0 0 1223 124" fill="none" xmlns="http://www.w3.org/2000/svg">
<path d="M1222.12 76.1213C1223.29 74.9497 1223.29 73.0503 1222.12 71.8787L1203.03 52.7868C1201.86 51.6152 1199.96 51.6152 1198.79 52.7868C1197.62 53.9584 1197.62 55.8579 1198.79 57.0294L1215.76 74L1198.79 90.9706C1197.62 92.1421 1197.62 94.0416 1198.79 95.2132C1199.96 96.3848 1201.86 96.3848 1203.03 95.2132L1222.12 76.1213ZM463 77L1220 77V71L463 71V77Z" fill="url(#paint0_linear_286_142)"/>
<line x1="648" y1="62" x2="648" y2="87" stroke="black" stroke-width="4"/>
<path d="M610.082 108.367V118H608.623V108.367H610.082ZM609.37 104.764C609.61 104.764 609.815 104.843 609.985 105.001C610.161 105.153 610.249 105.394 610.249 105.722C610.249 106.044 610.161 106.284 609.985 106.442C609.815 106.601 609.61 106.68 609.37 106.68C609.118 106.68 608.907 106.601 608.737 106.442C608.573 106.284 608.491 106.044 608.491 105.722C608.491 105.394 608.573 105.153 608.737 105.001C608.907 104.843 609.118 104.764 609.37 104.764ZM617.737 108.191C618.88 108.191 619.744 108.473 620.33 109.035C620.916 109.592 621.209 110.488 621.209 111.725V118H619.768V111.821C619.768 111.019 619.583 110.418 619.214 110.02C618.851 109.621 618.291 109.422 617.535 109.422C616.469 109.422 615.719 109.724 615.285 110.327C614.852 110.931 614.635 111.807 614.635 112.955V118H613.176V108.367H614.354L614.573 109.756H614.652C614.857 109.416 615.118 109.132 615.435 108.903C615.751 108.669 616.105 108.493 616.498 108.376C616.891 108.253 617.304 108.191 617.737 108.191ZM628.504 109.51H626.104V118H624.646V109.51H622.94V108.807L624.646 108.323V107.682C624.646 106.873 624.766 106.217 625.006 105.713C625.246 105.203 625.595 104.828 626.052 104.588C626.509 104.348 627.065 104.228 627.722 104.228C628.091 104.228 628.428 104.26 628.732 104.324C629.043 104.389 629.315 104.462 629.55 104.544L629.172 105.695C628.973 105.631 628.747 105.572 628.495 105.52C628.249 105.461 627.997 105.432 627.739 105.432C627.183 105.432 626.77 105.613 626.5 105.977C626.236 106.334 626.104 106.896 626.104 107.664V108.367H628.504V109.51ZM638.585 113.166C638.585 113.957 638.482 114.663 638.277 115.284C638.072 115.905 637.776 116.43 637.39 116.857C637.003 117.285 636.534 117.613 635.983 117.842C635.438 118.064 634.82 118.176 634.129 118.176C633.484 118.176 632.893 118.064 632.354 117.842C631.82 117.613 631.357 117.285 630.965 116.857C630.578 116.43 630.276 115.905 630.06 115.284C629.849 114.663 629.743 113.957 629.743 113.166C629.743 112.111 629.922 111.215 630.279 110.477C630.637 109.732 631.146 109.167 631.809 108.78C632.477 108.388 633.271 108.191 634.19 108.191C635.069 108.191 635.837 108.388 636.493 108.78C637.155 109.173 637.668 109.741 638.031 110.485C638.4 111.224 638.585 112.117 638.585 113.166ZM631.255 113.166C631.255 113.939 631.357 114.61 631.562 115.179C631.768 115.747 632.084 116.187 632.512 116.497C632.939 116.808 633.49 116.963 634.164 116.963C634.832 116.963 635.38 116.808 635.808 116.497C636.241 116.187 636.561 115.747 636.766 115.179C636.971 114.61 637.073 113.939 637.073 113.166C637.073 112.398 636.971 111.736 636.766 111.18C636.561 110.617 636.244 110.184 635.816 109.879C635.389 109.574 634.835 109.422 634.155 109.422C633.153 109.422 632.418 109.753 631.949 110.415C631.486 111.077 631.255 111.994 631.255 113.166ZM649.492 108.191C650.312 108.191 651.016 108.373 651.602 108.736C652.188 109.1 652.636 109.609 652.946 110.266C653.257 110.916 653.412 111.678 653.412 112.551V113.456H646.759C646.776 114.587 647.058 115.448 647.603 116.04C648.147 116.632 648.915 116.928 649.905 116.928C650.515 116.928 651.054 116.872 651.522 116.761C651.991 116.649 652.478 116.485 652.981 116.269V117.552C652.495 117.769 652.012 117.927 651.531 118.026C651.057 118.126 650.494 118.176 649.844 118.176C648.918 118.176 648.109 117.988 647.418 117.613C646.732 117.232 646.199 116.676 645.818 115.943C645.438 115.211 645.247 114.314 645.247 113.254C645.247 112.217 645.42 111.32 645.766 110.564C646.117 109.803 646.609 109.217 647.242 108.807C647.881 108.396 648.631 108.191 649.492 108.191ZM649.475 109.387C648.695 109.387 648.074 109.642 647.611 110.151C647.148 110.661 646.873 111.373 646.785 112.287H651.883C651.877 111.713 651.786 111.209 651.61 110.775C651.44 110.336 651.18 109.996 650.828 109.756C650.477 109.51 650.025 109.387 649.475 109.387ZM658.009 118L654.353 108.367H655.917L658.035 114.194C658.182 114.593 658.331 115.032 658.483 115.513C658.636 115.993 658.741 116.38 658.8 116.673H658.861C658.932 116.38 659.049 115.993 659.213 115.513C659.377 115.026 659.526 114.587 659.661 114.194L661.779 108.367H663.344L659.679 118H658.009ZM668.6 108.191C669.42 108.191 670.123 108.373 670.709 108.736C671.295 109.1 671.743 109.609 672.054 110.266C672.364 110.916 672.52 111.678 672.52 112.551V113.456H665.866C665.884 114.587 666.165 115.448 666.71 116.04C667.255 116.632 668.022 116.928 669.013 116.928C669.622 116.928 670.161 116.872 670.63 116.761C671.099 116.649 671.585 116.485 672.089 116.269V117.552C671.603 117.769 671.119 117.927 670.639 118.026C670.164 118.126 669.602 118.176 668.951 118.176C668.025 118.176 667.217 117.988 666.525 117.613C665.84 117.232 665.307 116.676 664.926 115.943C664.545 115.211 664.354 114.314 664.354 113.254C664.354 112.217 664.527 111.32 664.873 110.564C665.225 109.803 665.717 109.217 666.35 108.807C666.988 108.396 667.738 108.191 668.6 108.191ZM668.582 109.387C667.803 109.387 667.182 109.642 666.719 110.151C666.256 110.661 665.98 111.373 665.893 112.287H670.99C670.984 111.713 670.894 111.209 670.718 110.775C670.548 110.336 670.287 109.996 669.936 109.756C669.584 109.51 669.133 109.387 668.582 109.387ZM679.56 108.191C680.702 108.191 681.566 108.473 682.152 109.035C682.738 109.592 683.031 110.488 683.031 111.725V118H681.59V111.821C681.59 111.019 681.405 110.418 681.036 110.02C680.673 109.621 680.113 109.422 679.357 109.422C678.291 109.422 677.541 109.724 677.107 110.327C676.674 110.931 676.457 111.807 676.457 112.955V118H674.998V108.367H676.176L676.396 109.756H676.475C676.68 109.416 676.94 109.132 677.257 108.903C677.573 108.669 677.928 108.493 678.32 108.376C678.713 108.253 679.126 108.191 679.56 108.191ZM689.148 116.98C689.389 116.98 689.635 116.96 689.887 116.919C690.139 116.878 690.344 116.828 690.502 116.77V117.903C690.332 117.979 690.095 118.044 689.79 118.097C689.491 118.149 689.198 118.176 688.911 118.176C688.401 118.176 687.938 118.088 687.522 117.912C687.106 117.73 686.772 117.426 686.521 116.998C686.274 116.57 686.151 115.979 686.151 115.223V109.51H684.78V108.798L686.16 108.227L686.74 106.135H687.619V108.367H690.44V109.51H687.619V115.179C687.619 115.782 687.757 116.233 688.032 116.532C688.313 116.831 688.686 116.98 689.148 116.98Z" fill="black"/>
<path d="M909.303 115.363C909.303 115.979 909.147 116.497 908.837 116.919C908.532 117.335 908.093 117.648 907.519 117.859C906.95 118.07 906.271 118.176 905.479 118.176C904.806 118.176 904.223 118.123 903.73 118.018C903.238 117.912 902.808 117.763 902.438 117.569V116.225C902.831 116.418 903.3 116.594 903.845 116.752C904.39 116.91 904.946 116.989 905.515 116.989C906.347 116.989 906.95 116.854 907.325 116.585C907.7 116.315 907.888 115.949 907.888 115.486C907.888 115.223 907.812 114.991 907.659 114.792C907.513 114.587 907.264 114.391 906.912 114.203C906.561 114.01 906.074 113.799 905.453 113.57C904.838 113.336 904.305 113.104 903.854 112.876C903.408 112.642 903.062 112.357 902.816 112.023C902.576 111.689 902.456 111.256 902.456 110.723C902.456 109.908 902.784 109.284 903.44 108.851C904.103 108.411 904.97 108.191 906.042 108.191C906.622 108.191 907.164 108.25 907.668 108.367C908.178 108.479 908.652 108.631 909.092 108.824L908.6 109.993C908.201 109.823 907.776 109.68 907.325 109.562C906.874 109.445 906.414 109.387 905.945 109.387C905.271 109.387 904.753 109.498 904.39 109.721C904.032 109.943 903.854 110.248 903.854 110.635C903.854 110.934 903.936 111.18 904.1 111.373C904.27 111.566 904.539 111.748 904.908 111.918C905.277 112.088 905.764 112.287 906.367 112.516C906.971 112.738 907.492 112.97 907.932 113.21C908.371 113.444 908.708 113.731 908.942 114.071C909.183 114.405 909.303 114.836 909.303 115.363ZM917.881 115.363C917.881 115.979 917.726 116.497 917.415 116.919C917.11 117.335 916.671 117.648 916.097 117.859C915.528 118.07 914.849 118.176 914.058 118.176C913.384 118.176 912.801 118.123 912.309 118.018C911.816 117.912 911.386 117.763 911.017 117.569V116.225C911.409 116.418 911.878 116.594 912.423 116.752C912.968 116.91 913.524 116.989 914.093 116.989C914.925 116.989 915.528 116.854 915.903 116.585C916.278 116.315 916.466 115.949 916.466 115.486C916.466 115.223 916.39 114.991 916.237 114.792C916.091 114.587 915.842 114.391 915.49 114.203C915.139 114.01 914.652 113.799 914.031 113.57C913.416 113.336 912.883 113.104 912.432 112.876C911.986 112.642 911.641 112.357 911.395 112.023C911.154 111.689 911.034 111.256 911.034 110.723C911.034 109.908 911.362 109.284 912.019 108.851C912.681 108.411 913.548 108.191 914.62 108.191C915.2 108.191 915.742 108.25 916.246 108.367C916.756 108.479 917.23 108.631 917.67 108.824L917.178 109.993C916.779 109.823 916.354 109.68 915.903 109.562C915.452 109.445 914.992 109.387 914.523 109.387C913.85 109.387 913.331 109.498 912.968 109.721C912.61 109.943 912.432 110.248 912.432 110.635C912.432 110.934 912.514 111.18 912.678 111.373C912.848 111.566 913.117 111.748 913.486 111.918C913.855 112.088 914.342 112.287 914.945 112.516C915.549 112.738 916.07 112.97 916.51 113.21C916.949 113.444 917.286 113.731 917.521 114.071C917.761 114.405 917.881 114.836 917.881 115.363ZM927.997 118H919.577V116.778L923.014 113.289C923.652 112.645 924.188 112.07 924.622 111.566C925.062 111.062 925.396 110.567 925.624 110.081C925.853 109.589 925.967 109.05 925.967 108.464C925.967 107.737 925.75 107.184 925.316 106.803C924.889 106.416 924.323 106.223 923.62 106.223C923.005 106.223 922.46 106.328 921.985 106.539C921.511 106.75 921.024 107.049 920.526 107.436L919.744 106.451C920.084 106.164 920.453 105.909 920.852 105.687C921.256 105.464 921.687 105.288 922.144 105.159C922.606 105.03 923.099 104.966 923.62 104.966C924.411 104.966 925.094 105.104 925.668 105.379C926.242 105.654 926.685 106.047 926.995 106.557C927.312 107.066 927.47 107.673 927.47 108.376C927.47 109.056 927.335 109.688 927.065 110.274C926.796 110.854 926.418 111.432 925.932 112.006C925.445 112.574 924.877 113.178 924.227 113.816L921.432 116.603V116.664H927.997V118ZM938.939 115.021H937.015V118H935.591V115.021H929.377V113.79L935.494 105.08H937.015V113.702H938.939V115.021ZM935.591 113.702V109.501C935.591 109.179 935.594 108.889 935.6 108.631C935.605 108.367 935.614 108.124 935.626 107.901C935.638 107.673 935.646 107.456 935.652 107.251C935.664 107.046 935.673 106.844 935.679 106.645H935.608C935.497 106.879 935.368 107.128 935.222 107.392C935.081 107.649 934.938 107.881 934.791 108.086L930.827 113.702H935.591ZM950.031 108.191C951.232 108.191 952.19 108.604 952.905 109.431C953.62 110.257 953.978 111.499 953.978 113.157C953.978 114.253 953.813 115.173 953.485 115.917C953.157 116.661 952.694 117.224 952.097 117.604C951.505 117.985 950.805 118.176 949.996 118.176C949.486 118.176 949.038 118.108 948.651 117.974C948.265 117.839 947.934 117.657 947.658 117.429C947.383 117.2 947.154 116.951 946.973 116.682H946.867C946.885 116.91 946.905 117.186 946.929 117.508C946.958 117.83 946.973 118.111 946.973 118.352V122.307H945.505V108.367H946.709L946.902 109.791H946.973C947.16 109.498 947.389 109.231 947.658 108.991C947.928 108.745 948.256 108.552 948.643 108.411C949.035 108.265 949.498 108.191 950.031 108.191ZM949.776 109.422C949.108 109.422 948.569 109.551 948.159 109.809C947.755 110.066 947.459 110.453 947.271 110.969C947.084 111.479 946.984 112.12 946.973 112.894V113.175C946.973 113.989 947.061 114.678 947.236 115.24C947.418 115.803 947.714 116.23 948.124 116.523C948.54 116.816 949.097 116.963 949.794 116.963C950.392 116.963 950.89 116.802 951.288 116.479C951.687 116.157 951.982 115.709 952.176 115.135C952.375 114.555 952.475 113.89 952.475 113.14C952.475 112.003 952.252 111.101 951.807 110.433C951.367 109.759 950.69 109.422 949.776 109.422ZM960.903 108.191C961.097 108.191 961.299 108.203 961.51 108.227C961.721 108.244 961.908 108.271 962.072 108.306L961.888 109.659C961.729 109.618 961.554 109.586 961.36 109.562C961.167 109.539 960.985 109.527 960.815 109.527C960.429 109.527 960.062 109.606 959.717 109.765C959.377 109.917 959.078 110.14 958.82 110.433C958.562 110.72 958.36 111.068 958.214 111.479C958.067 111.883 957.994 112.334 957.994 112.832V118H956.526V108.367H957.739L957.897 110.143H957.959C958.158 109.785 958.398 109.46 958.68 109.167C958.961 108.868 959.286 108.631 959.655 108.455C960.03 108.279 960.446 108.191 960.903 108.191ZM972.197 113.166C972.197 113.957 972.095 114.663 971.89 115.284C971.685 115.905 971.389 116.43 971.002 116.857C970.615 117.285 970.146 117.613 969.596 117.842C969.051 118.064 968.433 118.176 967.741 118.176C967.097 118.176 966.505 118.064 965.966 117.842C965.433 117.613 964.97 117.285 964.577 116.857C964.19 116.43 963.889 115.905 963.672 115.284C963.461 114.663 963.355 113.957 963.355 113.166C963.355 112.111 963.534 111.215 963.892 110.477C964.249 109.732 964.759 109.167 965.421 108.78C966.089 108.388 966.883 108.191 967.803 108.191C968.682 108.191 969.449 108.388 970.105 108.78C970.768 109.173 971.28 109.741 971.644 110.485C972.013 111.224 972.197 112.117 972.197 113.166ZM964.867 113.166C964.867 113.939 964.97 114.61 965.175 115.179C965.38 115.747 965.696 116.187 966.124 116.497C966.552 116.808 967.103 116.963 967.776 116.963C968.444 116.963 968.992 116.808 969.42 116.497C969.854 116.187 970.173 115.747 970.378 115.179C970.583 114.61 970.686 113.939 970.686 113.166C970.686 112.398 970.583 111.736 970.378 111.18C970.173 110.617 969.856 110.184 969.429 109.879C969.001 109.574 968.447 109.422 967.768 109.422C966.766 109.422 966.03 109.753 965.562 110.415C965.099 111.077 964.867 111.994 964.867 113.166ZM973.56 122.324C973.261 122.324 973 122.301 972.777 122.254C972.555 122.213 972.361 122.163 972.197 122.104V120.918C972.379 120.977 972.563 121.021 972.751 121.05C972.938 121.085 973.149 121.103 973.384 121.103C973.782 121.103 974.104 120.991 974.351 120.769C974.597 120.546 974.72 120.142 974.72 119.556V108.367H976.179V119.521C976.179 120.106 976.085 120.607 975.897 121.023C975.71 121.445 975.423 121.768 975.036 121.99C974.649 122.213 974.157 122.324 973.56 122.324ZM974.588 105.722C974.588 105.394 974.67 105.153 974.834 105.001C975.004 104.843 975.215 104.764 975.467 104.764C975.707 104.764 975.912 104.843 976.082 105.001C976.258 105.153 976.346 105.394 976.346 105.722C976.346 106.044 976.258 106.284 976.082 106.442C975.912 106.601 975.707 106.68 975.467 106.68C975.215 106.68 975.004 106.601 974.834 106.442C974.67 106.284 974.588 106.044 974.588 105.722ZM982.981 108.191C983.802 108.191 984.505 108.373 985.091 108.736C985.677 109.1 986.125 109.609 986.436 110.266C986.746 110.916 986.901 111.678 986.901 112.551V113.456H980.248C980.266 114.587 980.547 115.448 981.092 116.04C981.637 116.632 982.404 116.928 983.395 116.928C984.004 116.928 984.543 116.872 985.012 116.761C985.48 116.649 985.967 116.485 986.471 116.269V117.552C985.984 117.769 985.501 117.927 985.021 118.026C984.546 118.126 983.983 118.176 983.333 118.176C982.407 118.176 981.599 117.988 980.907 117.613C980.222 117.232 979.688 116.676 979.308 115.943C978.927 115.211 978.736 114.314 978.736 113.254C978.736 112.217 978.909 111.32 979.255 110.564C979.606 109.803 980.099 109.217 980.731 108.807C981.37 108.396 982.12 108.191 982.981 108.191ZM982.964 109.387C982.185 109.387 981.563 109.642 981.101 110.151C980.638 110.661 980.362 111.373 980.274 112.287H985.372C985.366 111.713 985.275 111.209 985.1 110.775C984.93 110.336 984.669 109.996 984.317 109.756C983.966 109.51 983.515 109.387 982.964 109.387ZM993.238 118.176C992.371 118.176 991.606 117.997 990.944 117.64C990.282 117.282 989.767 116.737 989.397 116.005C989.028 115.272 988.844 114.35 988.844 113.236C988.844 112.07 989.037 111.118 989.424 110.38C989.816 109.636 990.355 109.085 991.041 108.728C991.727 108.37 992.506 108.191 993.379 108.191C993.859 108.191 994.322 108.241 994.768 108.341C995.219 108.435 995.588 108.555 995.875 108.701L995.436 109.923C995.143 109.806 994.803 109.7 994.416 109.606C994.035 109.513 993.678 109.466 993.344 109.466C992.676 109.466 992.119 109.609 991.674 109.896C991.234 110.184 990.903 110.605 990.681 111.162C990.464 111.719 990.355 112.404 990.355 113.219C990.355 113.998 990.461 114.663 990.672 115.214C990.889 115.765 991.208 116.187 991.63 116.479C992.058 116.767 992.591 116.91 993.229 116.91C993.739 116.91 994.199 116.857 994.609 116.752C995.02 116.641 995.392 116.512 995.726 116.365V117.666C995.403 117.83 995.043 117.956 994.645 118.044C994.252 118.132 993.783 118.176 993.238 118.176ZM1001.12 116.98C1001.36 116.98 1001.61 116.96 1001.86 116.919C1002.11 116.878 1002.32 116.828 1002.48 116.77V117.903C1002.31 117.979 1002.07 118.044 1001.76 118.097C1001.46 118.149 1001.17 118.176 1000.88 118.176C1000.38 118.176 999.912 118.088 999.496 117.912C999.08 117.73 998.746 117.426 998.494 116.998C998.248 116.57 998.125 115.979 998.125 115.223V109.51H996.754V108.798L998.134 108.227L998.714 106.135H999.593V108.367H1002.41V109.51H999.593V115.179C999.593 115.782 999.73 116.233 1000.01 116.532C1000.29 116.831 1000.66 116.98 1001.12 116.98ZM1010.66 115.363C1010.66 115.979 1010.5 116.497 1010.19 116.919C1009.89 117.335 1009.45 117.648 1008.87 117.859C1008.31 118.07 1007.63 118.176 1006.83 118.176C1006.16 118.176 1005.58 118.123 1005.09 118.018C1004.59 117.912 1004.16 117.763 1003.79 117.569V116.225C1004.19 116.418 1004.66 116.594 1005.2 116.752C1005.75 116.91 1006.3 116.989 1006.87 116.989C1007.7 116.989 1008.31 116.854 1008.68 116.585C1009.06 116.315 1009.24 115.949 1009.24 115.486C1009.24 115.223 1009.17 114.991 1009.01 114.792C1008.87 114.587 1008.62 114.391 1008.27 114.203C1007.92 114.01 1007.43 113.799 1006.81 113.57C1006.19 113.336 1005.66 113.104 1005.21 112.876C1004.76 112.642 1004.42 112.357 1004.17 112.023C1003.93 111.689 1003.81 111.256 1003.81 110.723C1003.81 109.908 1004.14 109.284 1004.8 108.851C1005.46 108.411 1006.33 108.191 1007.4 108.191C1007.98 108.191 1008.52 108.25 1009.02 108.367C1009.53 108.479 1010.01 108.631 1010.45 108.824L1009.96 109.993C1009.56 109.823 1009.13 109.68 1008.68 109.562C1008.23 109.445 1007.77 109.387 1007.3 109.387C1006.63 109.387 1006.11 109.498 1005.75 109.721C1005.39 109.943 1005.21 110.248 1005.21 110.635C1005.21 110.934 1005.29 111.18 1005.46 111.373C1005.62 111.566 1005.89 111.748 1006.26 111.918C1006.63 112.088 1007.12 112.287 1007.72 112.516C1008.33 112.738 1008.85 112.97 1009.29 113.21C1009.73 113.444 1010.06 113.731 1010.3 114.071C1010.54 114.405 1010.66 114.836 1010.66 115.363Z" fill="#202020"/>
<path d="M470.749 26.3C469.699 26.3 468.84 26.1417 468.174 25.825C467.524 25.4917 467.065 25.05 466.799 24.5H466.674V26H464.874V20.875H466.674V22.025C466.674 22.4417 466.732 22.8333 466.849 23.2C466.982 23.55 467.19 23.8583 467.474 24.125C467.774 24.3917 468.157 24.6 468.624 24.75C469.107 24.9 469.69 24.975 470.374 24.975C471.824 24.975 472.865 24.6667 473.499 24.05C474.149 23.4333 474.474 22.6083 474.474 21.575C474.474 20.6917 474.224 20 473.724 19.5C473.24 19 472.474 18.6083 471.424 18.325L470.049 17.975C468.499 17.575 467.299 16.975 466.449 16.175C465.599 15.375 465.174 14.275 465.174 12.875C465.174 12.175 465.307 11.5417 465.574 10.975C465.84 10.3917 466.215 9.9 466.699 9.5C467.182 9.1 467.757 8.79167 468.424 8.575C469.107 8.35833 469.857 8.25 470.674 8.25C471.624 8.25 472.399 8.4 472.999 8.7C473.615 8.98333 474.049 9.38333 474.299 9.9H474.449V8.55H476.249V13.425H474.449V12.275C474.449 11.8583 474.382 11.4833 474.249 11.15C474.132 10.8167 473.924 10.5333 473.624 10.3C473.324 10.0667 472.932 9.89167 472.449 9.775C471.965 9.64167 471.374 9.575 470.674 9.575C469.507 9.575 468.632 9.84167 468.049 10.375C467.465 10.9083 467.174 11.6083 467.174 12.475C467.174 13.375 467.432 14.0833 467.949 14.6C468.482 15.1 469.315 15.5 470.449 15.8L471.724 16.125C473.24 16.525 474.407 17.125 475.224 17.925C476.04 18.725 476.449 19.775 476.449 21.075C476.449 21.825 476.324 22.525 476.074 23.175C475.824 23.8083 475.457 24.3583 474.974 24.825C474.49 25.2917 473.89 25.6583 473.174 25.925C472.474 26.175 471.665 26.3 470.749 26.3ZM485.324 26.3C484.274 26.3 483.415 26.1417 482.749 25.825C482.099 25.4917 481.64 25.05 481.374 24.5H481.249V26H479.449V20.875H481.249V22.025C481.249 22.4417 481.307 22.8333 481.424 23.2C481.557 23.55 481.765 23.8583 482.049 24.125C482.349 24.3917 482.732 24.6 483.199 24.75C483.682 24.9 484.265 24.975 484.949 24.975C486.399 24.975 487.44 24.6667 488.074 24.05C488.724 23.4333 489.049 22.6083 489.049 21.575C489.049 20.6917 488.799 20 488.299 19.5C487.815 19 487.049 18.6083 485.999 18.325L484.624 17.975C483.074 17.575 481.874 16.975 481.024 16.175C480.174 15.375 479.749 14.275 479.749 12.875C479.749 12.175 479.882 11.5417 480.149 10.975C480.415 10.3917 480.79 9.9 481.274 9.5C481.757 9.1 482.332 8.79167 482.999 8.575C483.682 8.35833 484.432 8.25 485.249 8.25C486.199 8.25 486.974 8.4 487.574 8.7C488.19 8.98333 488.624 9.38333 488.874 9.9H489.024V8.55H490.824V13.425H489.024V12.275C489.024 11.8583 488.957 11.4833 488.824 11.15C488.707 10.8167 488.499 10.5333 488.199 10.3C487.899 10.0667 487.507 9.89167 487.024 9.775C486.54 9.64167 485.949 9.575 485.249 9.575C484.082 9.575 483.207 9.84167 482.624 10.375C482.04 10.9083 481.749 11.6083 481.749 12.475C481.749 13.375 482.007 14.0833 482.524 14.6C483.057 15.1 483.89 15.5 485.024 15.8L486.299 16.125C487.815 16.525 488.982 17.125 489.799 17.925C490.615 18.725 491.024 19.775 491.024 21.075C491.024 21.825 490.899 22.525 490.649 23.175C490.399 23.8083 490.032 24.3583 489.549 24.825C489.065 25.2917 488.465 25.6583 487.749 25.925C487.049 26.175 486.24 26.3 485.324 26.3ZM494.171 24.375L499.846 18.65C500.679 17.8167 501.321 16.9833 501.771 16.15C502.221 15.3167 502.446 14.4 502.446 13.4V12.85C502.446 11.8 502.138 10.975 501.521 10.375C500.921 9.75833 500.079 9.45 498.996 9.45C498.413 9.45 497.904 9.50833 497.471 9.625C497.054 9.74167 496.721 9.875 496.471 10.025V10.075C496.688 10.1583 496.888 10.3333 497.071 10.6C497.271 10.85 497.371 11.1583 497.371 11.525C497.371 11.9583 497.229 12.325 496.946 12.625C496.663 12.9083 496.304 13.05 495.871 13.05C495.404 13.05 495.038 12.9 494.771 12.6C494.504 12.3 494.371 11.9 494.371 11.4C494.371 10.9833 494.496 10.5833 494.746 10.2C495.013 9.81667 495.363 9.48333 495.796 9.2C496.246 8.91667 496.771 8.69167 497.371 8.525C497.988 8.34167 498.646 8.25 499.346 8.25C501.029 8.25 502.354 8.675 503.321 9.525C504.304 10.3583 504.796 11.525 504.796 13.025C504.796 13.775 504.688 14.4583 504.471 15.075C504.254 15.6917 503.963 16.275 503.596 16.825C503.229 17.3583 502.796 17.8667 502.296 18.35C501.813 18.8333 501.296 19.3167 500.746 19.8L496.021 23.975V24.075H504.271V21.65H505.521V26H494.171V24.375ZM516.861 21.975H508.661V20.525L516.986 8.55H518.911V20.375H521.436V21.975H518.911V26H516.861V21.975ZM510.136 20.375H516.861V10.9H516.761L510.136 20.375Z" fill="black"/>
<path d="M300.035 9.7H298.71V8.55H304.56V9.7H302.31L305.56 23.45H305.66L309.485 8.55H311.61L315.535 23.45H315.635L318.91 9.7H316.66V8.55H321.76V9.7H320.435L316.285 26H314.21L310.235 11.4H310.135L306.26 26H304.185L300.035 9.7ZM329.582 26.3C328.532 26.3 327.674 26.1417 327.007 25.825C326.357 25.4917 325.899 25.05 325.632 24.5H325.507V26H323.707V20.875H325.507V22.025C325.507 22.4417 325.565 22.8333 325.682 23.2C325.815 23.55 326.024 23.8583 326.307 24.125C326.607 24.3917 326.99 24.6 327.457 24.75C327.94 24.9 328.524 24.975 329.207 24.975C330.657 24.975 331.699 24.6667 332.332 24.05C332.982 23.4333 333.307 22.6083 333.307 21.575C333.307 20.6917 333.057 20 332.557 19.5C332.074 19 331.307 18.6083 330.257 18.325L328.882 17.975C327.332 17.575 326.132 16.975 325.282 16.175C324.432 15.375 324.007 14.275 324.007 12.875C324.007 12.175 324.14 11.5417 324.407 10.975C324.674 10.3917 325.049 9.9 325.532 9.5C326.015 9.1 326.59 8.79167 327.257 8.575C327.94 8.35833 328.69 8.25 329.507 8.25C330.457 8.25 331.232 8.4 331.832 8.7C332.449 8.98333 332.882 9.38333 333.132 9.9H333.282V8.55H335.082V13.425H333.282V12.275C333.282 11.8583 333.215 11.4833 333.082 11.15C332.965 10.8167 332.757 10.5333 332.457 10.3C332.157 10.0667 331.765 9.89167 331.282 9.775C330.799 9.64167 330.207 9.575 329.507 9.575C328.34 9.575 327.465 9.84167 326.882 10.375C326.299 10.9083 326.007 11.6083 326.007 12.475C326.007 13.375 326.265 14.0833 326.782 14.6C327.315 15.1 328.149 15.5 329.282 15.8L330.557 16.125C332.074 16.525 333.24 17.125 334.057 17.925C334.874 18.725 335.282 19.775 335.282 21.075C335.282 21.825 335.157 22.525 334.907 23.175C334.657 23.8083 334.29 24.3583 333.807 24.825C333.324 25.2917 332.724 25.6583 332.007 25.925C331.307 26.175 330.499 26.3 329.582 26.3ZM338.429 24.375L344.104 18.65C344.938 17.8167 345.579 16.9833 346.029 16.15C346.479 15.3167 346.704 14.4 346.704 13.4V12.85C346.704 11.8 346.396 10.975 345.779 10.375C345.179 9.75833 344.338 9.45 343.254 9.45C342.671 9.45 342.163 9.50833 341.729 9.625C341.313 9.74167 340.979 9.875 340.729 10.025V10.075C340.946 10.1583 341.146 10.3333 341.329 10.6C341.529 10.85 341.629 11.1583 341.629 11.525C341.629 11.9583 341.488 12.325 341.204 12.625C340.921 12.9083 340.563 13.05 340.129 13.05C339.663 13.05 339.296 12.9 339.029 12.6C338.763 12.3 338.629 11.9 338.629 11.4C338.629 10.9833 338.754 10.5833 339.004 10.2C339.271 9.81667 339.621 9.48333 340.054 9.2C340.504 8.91667 341.029 8.69167 341.629 8.525C342.246 8.34167 342.904 8.25 343.604 8.25C345.288 8.25 346.613 8.675 347.579 9.525C348.563 10.3583 349.054 11.525 349.054 13.025C349.054 13.775 348.946 14.4583 348.729 15.075C348.513 15.6917 348.221 16.275 347.854 16.825C347.488 17.3583 347.054 17.8667 346.554 18.35C346.071 18.8333 345.554 19.3167 345.004 19.8L340.279 23.975V24.075H348.529V21.65H349.779V26H338.429V24.375ZM358.67 26.3C357.886 26.3 357.178 26.2083 356.545 26.025C355.911 25.8417 355.37 25.6 354.92 25.3C354.47 25 354.12 24.6667 353.87 24.3C353.636 23.9167 353.52 23.5333 353.52 23.15C353.52 22.65 353.661 22.25 353.945 21.95C354.228 21.65 354.586 21.5 355.02 21.5C355.47 21.5 355.828 21.65 356.095 21.95C356.378 22.2333 356.52 22.6 356.52 23.05C356.52 23.3833 356.42 23.6833 356.22 23.95C356.036 24.2167 355.836 24.3917 355.62 24.475V24.525C355.903 24.6917 356.27 24.825 356.72 24.925C357.186 25.025 357.736 25.075 358.37 25.075C359.67 25.075 360.686 24.7917 361.42 24.225C362.17 23.6417 362.545 22.8 362.545 21.7V20.85C362.545 19.8 362.203 18.9833 361.52 18.4C360.853 17.8 359.878 17.5 358.595 17.5H356.57V16.275H358.445C359.661 16.275 360.586 15.9917 361.22 15.425C361.853 14.8417 362.17 14.1167 362.17 13.25V12.3C362.17 11.35 361.861 10.6417 361.245 10.175C360.645 9.70833 359.836 9.475 358.82 9.475C358.203 9.475 357.661 9.525 357.195 9.625C356.745 9.725 356.386 9.85833 356.12 10.025V10.075C356.353 10.175 356.561 10.3583 356.745 10.625C356.928 10.8917 357.02 11.1917 357.02 11.525C357.02 11.9583 356.878 12.325 356.595 12.625C356.311 12.9083 355.945 13.05 355.495 13.05C355.045 13.05 354.686 12.9 354.42 12.6C354.153 12.3 354.02 11.9 354.02 11.4C354.02 11.0167 354.136 10.6417 354.37 10.275C354.603 9.89167 354.928 9.55 355.345 9.25C355.778 8.95 356.295 8.70833 356.895 8.525C357.511 8.34167 358.195 8.25 358.945 8.25C359.711 8.25 360.428 8.34167 361.095 8.525C361.778 8.70833 362.37 8.98333 362.87 9.35C363.386 9.71667 363.786 10.175 364.07 10.725C364.37 11.275 364.52 11.9167 364.52 12.65C364.52 13.2167 364.411 13.7333 364.195 14.2C363.995 14.65 363.72 15.0417 363.37 15.375C363.036 15.7083 362.645 15.9917 362.195 16.225C361.761 16.4417 361.303 16.6083 360.82 16.725V16.825C361.32 16.925 361.811 17.0917 362.295 17.325C362.778 17.5417 363.211 17.8333 363.595 18.2C363.978 18.5667 364.286 19.0083 364.52 19.525C364.77 20.025 364.895 20.6 364.895 21.25C364.895 22.0333 364.745 22.7417 364.445 23.375C364.145 23.9917 363.72 24.5167 363.17 24.95C362.62 25.3833 361.961 25.7167 361.195 25.95C360.428 26.1833 359.586 26.3 358.67 26.3ZM368.41 24.375L374.085 18.65C374.918 17.8167 375.56 16.9833 376.01 16.15C376.46 15.3167 376.685 14.4 376.685 13.4V12.85C376.685 11.8 376.376 10.975 375.76 10.375C375.16 9.75833 374.318 9.45 373.235 9.45C372.651 9.45 372.143 9.50833 371.71 9.625C371.293 9.74167 370.96 9.875 370.71 10.025V10.075C370.926 10.1583 371.126 10.3333 371.31 10.6C371.51 10.85 371.61 11.1583 371.61 11.525C371.61 11.9583 371.468 12.325 371.185 12.625C370.901 12.9083 370.543 13.05 370.11 13.05C369.643 13.05 369.276 12.9 369.01 12.6C368.743 12.3 368.61 11.9 368.61 11.4C368.61 10.9833 368.735 10.5833 368.985 10.2C369.251 9.81667 369.601 9.48333 370.035 9.2C370.485 8.91667 371.01 8.69167 371.61 8.525C372.226 8.34167 372.885 8.25 373.585 8.25C375.268 8.25 376.593 8.675 377.56 9.525C378.543 10.3583 379.035 11.525 379.035 13.025C379.035 13.775 378.926 14.4583 378.71 15.075C378.493 15.6917 378.201 16.275 377.835 16.825C377.468 17.3583 377.035 17.8667 376.535 18.35C376.051 18.8333 375.535 19.3167 374.985 19.8L370.26 23.975V24.075H378.51V21.65H379.76V26H368.41V24.375ZM391.1 21.975H382.9V20.525L391.225 8.55H393.15V20.375H395.675V21.975H393.15V26H391.1V21.975ZM384.375 20.375H391.1V10.9H391L384.375 20.375Z" fill="black"/>
<line x1="9" y1="74" x2="405" y2="74" stroke="url(#paint1_linear_286_142)" stroke-width="6"/>
<path d="M97.9209 117.982L96.207 112.375C96.1309 112.135 96.0576 111.9 95.9873 111.672C95.9229 111.438 95.8613 111.215 95.8027 111.004C95.75 110.787 95.7002 110.588 95.6533 110.406C95.6123 110.219 95.5771 110.058 95.5479 109.923H95.4863C95.4629 110.058 95.4307 110.219 95.3896 110.406C95.3486 110.588 95.2988 110.787 95.2402 111.004C95.1875 111.221 95.1289 111.449 95.0645 111.689C95 111.924 94.9268 112.161 94.8447 112.401L93.0518 117.982H91.4082L88.7539 108.35H90.2656L91.6543 113.667C91.748 114.019 91.8359 114.367 91.918 114.713C92.0059 115.053 92.0791 115.375 92.1377 115.68C92.2021 115.979 92.249 116.239 92.2783 116.462H92.3486C92.3838 116.315 92.4219 116.14 92.4629 115.935C92.5098 115.729 92.5596 115.513 92.6123 115.284C92.6709 115.05 92.7324 114.818 92.7969 114.59C92.8613 114.355 92.9258 114.136 92.9902 113.931L94.7656 108.35H96.3389L98.0527 113.922C98.1406 114.203 98.2256 114.496 98.3076 114.801C98.3955 115.105 98.4746 115.401 98.5449 115.688C98.6152 115.97 98.665 116.222 98.6943 116.444H98.7646C98.7881 116.245 98.832 115.999 98.8965 115.706C98.9609 115.413 99.0342 115.091 99.1162 114.739C99.2041 114.388 99.2949 114.03 99.3887 113.667L100.795 108.35H102.28L99.6172 117.982H97.9209ZM110.27 115.363C110.27 115.979 110.114 116.497 109.804 116.919C109.499 117.335 109.06 117.648 108.485 117.859C107.917 118.07 107.237 118.176 106.446 118.176C105.772 118.176 105.189 118.123 104.697 118.018C104.205 117.912 103.774 117.763 103.405 117.569V116.225C103.798 116.418 104.267 116.594 104.812 116.752C105.356 116.91 105.913 116.989 106.481 116.989C107.313 116.989 107.917 116.854 108.292 116.585C108.667 116.315 108.854 115.949 108.854 115.486C108.854 115.223 108.778 114.991 108.626 114.792C108.479 114.587 108.23 114.391 107.879 114.203C107.527 114.01 107.041 113.799 106.42 113.57C105.805 113.336 105.271 113.104 104.82 112.876C104.375 112.642 104.029 112.357 103.783 112.023C103.543 111.689 103.423 111.256 103.423 110.723C103.423 109.908 103.751 109.284 104.407 108.851C105.069 108.411 105.937 108.191 107.009 108.191C107.589 108.191 108.131 108.25 108.635 108.367C109.145 108.479 109.619 108.631 110.059 108.824L109.566 109.993C109.168 109.823 108.743 109.68 108.292 109.562C107.841 109.445 107.381 109.387 106.912 109.387C106.238 109.387 105.72 109.498 105.356 109.721C104.999 109.943 104.82 110.248 104.82 110.635C104.82 110.934 104.902 111.18 105.066 111.373C105.236 111.566 105.506 111.748 105.875 111.918C106.244 112.088 106.73 112.287 107.334 112.516C107.938 112.738 108.459 112.97 108.898 113.21C109.338 113.444 109.675 113.731 109.909 114.071C110.149 114.405 110.27 114.836 110.27 115.363ZM120.386 118H111.966V116.778L115.402 113.289C116.041 112.645 116.577 112.07 117.011 111.566C117.45 111.062 117.784 110.567 118.013 110.081C118.241 109.589 118.355 109.05 118.355 108.464C118.355 107.737 118.139 107.184 117.705 106.803C117.277 106.416 116.712 106.223 116.009 106.223C115.394 106.223 114.849 106.328 114.374 106.539C113.899 106.75 113.413 107.049 112.915 107.436L112.133 106.451C112.473 106.164 112.842 105.909 113.24 105.687C113.645 105.464 114.075 105.288 114.532 105.159C114.995 105.03 115.487 104.966 116.009 104.966C116.8 104.966 117.482 105.104 118.057 105.379C118.631 105.654 119.073 106.047 119.384 106.557C119.7 107.066 119.858 107.673 119.858 108.376C119.858 109.056 119.724 109.688 119.454 110.274C119.185 110.854 118.807 111.432 118.32 112.006C117.834 112.574 117.266 113.178 116.615 113.816L113.82 116.603V116.664H120.386V118ZM130.212 108.147C130.212 108.722 130.101 109.22 129.878 109.642C129.655 110.063 129.345 110.409 128.946 110.679C128.548 110.942 128.079 111.127 127.54 111.232V111.303C128.56 111.432 129.324 111.76 129.834 112.287C130.35 112.814 130.607 113.506 130.607 114.361C130.607 115.105 130.432 115.765 130.08 116.339C129.734 116.913 129.201 117.364 128.48 117.692C127.766 118.015 126.849 118.176 125.729 118.176C125.05 118.176 124.42 118.12 123.84 118.009C123.266 117.903 122.715 117.725 122.188 117.473V116.102C122.721 116.365 123.301 116.573 123.928 116.726C124.555 116.872 125.161 116.945 125.747 116.945C126.919 116.945 127.766 116.714 128.287 116.251C128.809 115.782 129.069 115.144 129.069 114.335C129.069 113.778 128.923 113.33 128.63 112.99C128.343 112.645 127.927 112.393 127.382 112.234C126.843 112.07 126.192 111.988 125.431 111.988H124.147V110.74H125.439C126.137 110.74 126.729 110.638 127.215 110.433C127.701 110.228 128.07 109.94 128.322 109.571C128.58 109.196 128.709 108.754 128.709 108.244C128.709 107.594 128.492 107.093 128.059 106.741C127.625 106.384 127.036 106.205 126.292 106.205C125.835 106.205 125.419 106.252 125.044 106.346C124.669 106.439 124.317 106.568 123.989 106.732C123.661 106.896 123.333 107.087 123.005 107.304L122.267 106.302C122.735 105.938 123.307 105.625 123.98 105.361C124.654 105.098 125.419 104.966 126.274 104.966C127.587 104.966 128.571 105.265 129.228 105.862C129.884 106.46 130.212 107.222 130.212 108.147ZM140.987 118H132.567V116.778L136.004 113.289C136.643 112.645 137.179 112.07 137.612 111.566C138.052 111.062 138.386 110.567 138.614 110.081C138.843 109.589 138.957 109.05 138.957 108.464C138.957 107.737 138.74 107.184 138.307 106.803C137.879 106.416 137.313 106.223 136.61 106.223C135.995 106.223 135.45 106.328 134.976 106.539C134.501 106.75 134.015 107.049 133.517 107.436L132.734 106.451C133.074 106.164 133.443 105.909 133.842 105.687C134.246 105.464 134.677 105.288 135.134 105.159C135.597 105.03 136.089 104.966 136.61 104.966C137.401 104.966 138.084 105.104 138.658 105.379C139.232 105.654 139.675 106.047 139.985 106.557C140.302 107.066 140.46 107.673 140.46 108.376C140.46 109.056 140.325 109.688 140.056 110.274C139.786 110.854 139.408 111.432 138.922 112.006C138.436 112.574 137.867 113.178 137.217 113.816L134.422 116.603V116.664H140.987V118ZM151.93 115.021H150.005V118H148.581V115.021H142.367V113.79L148.484 105.08H150.005V113.702H151.93V115.021ZM148.581 113.702V109.501C148.581 109.179 148.584 108.889 148.59 108.631C148.596 108.367 148.604 108.124 148.616 107.901C148.628 107.673 148.637 107.456 148.643 107.251C148.654 107.046 148.663 106.844 148.669 106.645H148.599C148.487 106.879 148.358 107.128 148.212 107.392C148.071 107.649 147.928 107.881 147.781 108.086L143.817 113.702H148.581ZM163.021 108.191C164.223 108.191 165.181 108.604 165.896 109.431C166.61 110.257 166.968 111.499 166.968 113.157C166.968 114.253 166.804 115.173 166.476 115.917C166.147 116.661 165.685 117.224 165.087 117.604C164.495 117.985 163.795 118.176 162.986 118.176C162.477 118.176 162.028 118.108 161.642 117.974C161.255 117.839 160.924 117.657 160.648 117.429C160.373 117.2 160.145 116.951 159.963 116.682H159.857C159.875 116.91 159.896 117.186 159.919 117.508C159.948 117.83 159.963 118.111 159.963 118.352V122.307H158.495V108.367H159.699L159.893 109.791H159.963C160.15 109.498 160.379 109.231 160.648 108.991C160.918 108.745 161.246 108.552 161.633 108.411C162.025 108.265 162.488 108.191 163.021 108.191ZM162.767 109.422C162.099 109.422 161.56 109.551 161.149 109.809C160.745 110.066 160.449 110.453 160.262 110.969C160.074 111.479 159.975 112.12 159.963 112.894V113.175C159.963 113.989 160.051 114.678 160.227 115.24C160.408 115.803 160.704 116.23 161.114 116.523C161.53 116.816 162.087 116.963 162.784 116.963C163.382 116.963 163.88 116.802 164.278 116.479C164.677 116.157 164.973 115.709 165.166 115.135C165.365 114.555 165.465 113.89 165.465 113.14C165.465 112.003 165.242 111.101 164.797 110.433C164.357 109.759 163.681 109.422 162.767 109.422ZM173.894 108.191C174.087 108.191 174.289 108.203 174.5 108.227C174.711 108.244 174.898 108.271 175.062 108.306L174.878 109.659C174.72 109.618 174.544 109.586 174.351 109.562C174.157 109.539 173.976 109.527 173.806 109.527C173.419 109.527 173.053 109.606 172.707 109.765C172.367 109.917 172.068 110.14 171.811 110.433C171.553 110.72 171.351 111.068 171.204 111.479C171.058 111.883 170.984 112.334 170.984 112.832V118H169.517V108.367H170.729L170.888 110.143H170.949C171.148 109.785 171.389 109.46 171.67 109.167C171.951 108.868 172.276 108.631 172.646 108.455C173.021 108.279 173.437 108.191 173.894 108.191ZM185.188 113.166C185.188 113.957 185.085 114.663 184.88 115.284C184.675 115.905 184.379 116.43 183.992 116.857C183.605 117.285 183.137 117.613 182.586 117.842C182.041 118.064 181.423 118.176 180.731 118.176C180.087 118.176 179.495 118.064 178.956 117.842C178.423 117.613 177.96 117.285 177.567 116.857C177.181 116.43 176.879 115.905 176.662 115.284C176.451 114.663 176.346 113.957 176.346 113.166C176.346 112.111 176.524 111.215 176.882 110.477C177.239 109.732 177.749 109.167 178.411 108.78C179.079 108.388 179.873 108.191 180.793 108.191C181.672 108.191 182.439 108.388 183.096 108.78C183.758 109.173 184.271 109.741 184.634 110.485C185.003 111.224 185.188 112.117 185.188 113.166ZM177.857 113.166C177.857 113.939 177.96 114.61 178.165 115.179C178.37 115.747 178.687 116.187 179.114 116.497C179.542 116.808 180.093 116.963 180.767 116.963C181.435 116.963 181.982 116.808 182.41 116.497C182.844 116.187 183.163 115.747 183.368 115.179C183.573 114.61 183.676 113.939 183.676 113.166C183.676 112.398 183.573 111.736 183.368 111.18C183.163 110.617 182.847 110.184 182.419 109.879C181.991 109.574 181.438 109.422 180.758 109.422C179.756 109.422 179.021 109.753 178.552 110.415C178.089 111.077 177.857 111.994 177.857 113.166ZM186.55 122.324C186.251 122.324 185.99 122.301 185.768 122.254C185.545 122.213 185.352 122.163 185.188 122.104V120.918C185.369 120.977 185.554 121.021 185.741 121.05C185.929 121.085 186.14 121.103 186.374 121.103C186.772 121.103 187.095 120.991 187.341 120.769C187.587 120.546 187.71 120.142 187.71 119.556V108.367H189.169V119.521C189.169 120.106 189.075 120.607 188.888 121.023C188.7 121.445 188.413 121.768 188.026 121.99C187.64 122.213 187.147 122.324 186.55 122.324ZM187.578 105.722C187.578 105.394 187.66 105.153 187.824 105.001C187.994 104.843 188.205 104.764 188.457 104.764C188.697 104.764 188.902 104.843 189.072 105.001C189.248 105.153 189.336 105.394 189.336 105.722C189.336 106.044 189.248 106.284 189.072 106.442C188.902 106.601 188.697 106.68 188.457 106.68C188.205 106.68 187.994 106.601 187.824 106.442C187.66 106.284 187.578 106.044 187.578 105.722ZM195.972 108.191C196.792 108.191 197.495 108.373 198.081 108.736C198.667 109.1 199.115 109.609 199.426 110.266C199.736 110.916 199.892 111.678 199.892 112.551V113.456H193.238C193.256 114.587 193.537 115.448 194.082 116.04C194.627 116.632 195.395 116.928 196.385 116.928C196.994 116.928 197.533 116.872 198.002 116.761C198.471 116.649 198.957 116.485 199.461 116.269V117.552C198.975 117.769 198.491 117.927 198.011 118.026C197.536 118.126 196.974 118.176 196.323 118.176C195.397 118.176 194.589 117.988 193.897 117.613C193.212 117.232 192.679 116.676 192.298 115.943C191.917 115.211 191.727 114.314 191.727 113.254C191.727 112.217 191.899 111.32 192.245 110.564C192.597 109.803 193.089 109.217 193.722 108.807C194.36 108.396 195.11 108.191 195.972 108.191ZM195.954 109.387C195.175 109.387 194.554 109.642 194.091 110.151C193.628 110.661 193.353 111.373 193.265 112.287H198.362C198.356 111.713 198.266 111.209 198.09 110.775C197.92 110.336 197.659 109.996 197.308 109.756C196.956 109.51 196.505 109.387 195.954 109.387ZM206.229 118.176C205.361 118.176 204.597 117.997 203.935 117.64C203.272 117.282 202.757 116.737 202.388 116.005C202.019 115.272 201.834 114.35 201.834 113.236C201.834 112.07 202.027 111.118 202.414 110.38C202.807 109.636 203.346 109.085 204.031 108.728C204.717 108.37 205.496 108.191 206.369 108.191C206.85 108.191 207.312 108.241 207.758 108.341C208.209 108.435 208.578 108.555 208.865 108.701L208.426 109.923C208.133 109.806 207.793 109.7 207.406 109.606C207.025 109.513 206.668 109.466 206.334 109.466C205.666 109.466 205.109 109.609 204.664 109.896C204.225 110.184 203.894 110.605 203.671 111.162C203.454 111.719 203.346 112.404 203.346 113.219C203.346 113.998 203.451 114.663 203.662 115.214C203.879 115.765 204.198 116.187 204.62 116.479C205.048 116.767 205.581 116.91 206.22 116.91C206.729 116.91 207.189 116.857 207.6 116.752C208.01 116.641 208.382 116.512 208.716 116.365V117.666C208.394 117.83 208.033 117.956 207.635 118.044C207.242 118.132 206.773 118.176 206.229 118.176ZM214.112 116.98C214.353 116.98 214.599 116.96 214.851 116.919C215.103 116.878 215.308 116.828 215.466 116.77V117.903C215.296 117.979 215.059 118.044 214.754 118.097C214.455 118.149 214.162 118.176 213.875 118.176C213.365 118.176 212.902 118.088 212.486 117.912C212.07 117.73 211.736 117.426 211.484 116.998C211.238 116.57 211.115 115.979 211.115 115.223V109.51H209.744V108.798L211.124 108.227L211.704 106.135H212.583V108.367H215.404V109.51H212.583V115.179C212.583 115.782 212.721 116.233 212.996 116.532C213.277 116.831 213.649 116.98 214.112 116.98ZM223.648 115.363C223.648 115.979 223.493 116.497 223.183 116.919C222.878 117.335 222.438 117.648 221.864 117.859C221.296 118.07 220.616 118.176 219.825 118.176C219.151 118.176 218.568 118.123 218.076 118.018C217.584 117.912 217.153 117.763 216.784 117.569V116.225C217.177 116.418 217.646 116.594 218.19 116.752C218.735 116.91 219.292 116.989 219.86 116.989C220.692 116.989 221.296 116.854 221.671 116.585C222.046 116.315 222.233 115.949 222.233 115.486C222.233 115.223 222.157 114.991 222.005 114.792C221.858 114.587 221.609 114.391 221.258 114.203C220.906 114.01 220.42 113.799 219.799 113.57C219.184 113.336 218.65 113.104 218.199 112.876C217.754 112.642 217.408 112.357 217.162 112.023C216.922 111.689 216.802 111.256 216.802 110.723C216.802 109.908 217.13 109.284 217.786 108.851C218.448 108.411 219.315 108.191 220.388 108.191C220.968 108.191 221.51 108.25 222.014 108.367C222.523 108.479 222.998 108.631 223.438 108.824L222.945 109.993C222.547 109.823 222.122 109.68 221.671 109.562C221.22 109.445 220.76 109.387 220.291 109.387C219.617 109.387 219.099 109.498 218.735 109.721C218.378 109.943 218.199 110.248 218.199 110.635C218.199 110.934 218.281 111.18 218.445 111.373C218.615 111.566 218.885 111.748 219.254 111.918C219.623 112.088 220.109 112.287 220.713 112.516C221.316 112.738 221.838 112.97 222.277 113.21C222.717 113.444 223.054 113.731 223.288 114.071C223.528 114.405 223.648 114.836 223.648 115.363Z" fill="#202020"/>
<rect y="67" width="298" height="15" fill="#202020"/>
<rect x="704" y="67" width="476" height="15" fill="#202020"/>
<defs>
<linearGradient id="paint0_linear_286_142" x1="478.861" y1="74.5047" x2="1220" y2="74.4987" gradientUnits="userSpaceOnUse">
<stop stop-color="#25B6F5"/>
<stop offset="1" stop-color="#3CD29C"/>
</linearGradient>
<linearGradient id="paint1_linear_286_142" x1="17.2971" y1="77.5047" x2="405" y2="77.503" gradientUnits="userSpaceOnUse">
<stop stop-color="#25B6F5"/>
<stop offset="1" stop-color="#3CD29C"/>
</linearGradient>
</defs>
</svg>
