<svg width="156" height="59" viewBox="0 0 156 59" fill="none" xmlns="http://www.w3.org/2000/svg">
<rect y="31" width="156" height="28" fill="url(#paint0_linear_168_545)"/>
<path d="M17.28 41.48C15.6 41.48 14.2267 41.0933 13.16 40.32C12.12 39.5467 11.6 38.56 11.6 37.36C11.6 36.96 11.68 36.56 11.84 36.16C11.9733 35.76 12.1733 35.4 12.44 35.08C12.7067 34.76 13.04 34.5067 13.44 34.32C13.84 34.1333 14.2933 34.04 14.8 34.04C15.6 34.04 16.2267 34.24 16.68 34.64C17.1333 35.0133 17.36 35.56 17.36 36.28C17.36 36.9733 17.16 37.5333 16.76 37.96C16.36 38.3867 15.8933 38.6667 15.36 38.8V38.96C15.5467 39.04 15.76 39.1067 16 39.16C16.2667 39.1867 16.5333 39.2 16.8 39.2C17.8133 39.2 18.6533 38.8267 19.32 38.08C20.0133 37.3333 20.5333 36.24 20.88 34.8L25.68 15.48H22.08L22.68 13.08H34.92L34.32 15.48H31.8L27.36 33.4C26.7467 35.9067 25.6533 37.88 24.08 39.32C22.5333 40.76 20.2667 41.48 17.28 41.48ZM40.5138 39.24C41.5538 39.24 42.3938 38.8133 43.0338 37.96C43.7004 37.1067 44.2071 35.9867 44.5538 34.6C45.0338 32.7333 45.4338 31.2 45.7538 30C46.0738 28.7733 46.3138 27.7867 46.4738 27.04C46.6604 26.2667 46.7804 25.68 46.8338 25.28C46.9138 24.88 46.9538 24.56 46.9538 24.32C46.9538 23.6267 46.7671 23.04 46.3938 22.56C46.0471 22.0533 45.4604 21.8 44.6338 21.8C43.5938 21.8 42.7404 22.2267 42.0738 23.08C41.4338 23.9333 40.9404 25.0533 40.5938 26.44C40.1138 28.3067 39.7138 29.8533 39.3938 31.08C39.0738 32.28 38.8204 33.2667 38.6338 34.04C38.4738 34.7867 38.3538 35.36 38.2738 35.76C38.2204 36.16 38.1938 36.48 38.1938 36.72C38.1938 37.4133 38.3671 38.0133 38.7138 38.52C39.0871 39 39.6871 39.24 40.5138 39.24ZM40.2338 41.48C37.8071 41.48 35.9671 40.7867 34.7138 39.4C33.4871 37.9867 32.8738 36.0667 32.8738 33.64C32.8738 32.0933 33.1404 30.4933 33.6738 28.84C34.2071 27.16 34.9804 25.64 35.9938 24.28C37.0338 22.8933 38.3004 21.76 39.7938 20.88C41.2871 20 42.9938 19.56 44.9138 19.56C47.3404 19.56 49.1671 20.2667 50.3938 21.68C51.6471 23.0667 52.2738 24.9733 52.2738 27.4C52.2738 28.9733 52.0071 30.5867 51.4738 32.24C50.9404 33.8933 50.1538 35.4133 49.1138 36.8C48.1004 38.16 46.8471 39.28 45.3538 40.16C43.8604 41.04 42.1538 41.48 40.2338 41.48ZM59.0669 41.48C58.3469 41.48 57.7469 41.3733 57.2669 41.16C56.7869 40.9733 56.3869 40.7333 56.0669 40.44C55.7735 40.12 55.5602 39.7733 55.4269 39.4C55.3202 39 55.2669 38.6 55.2669 38.2C55.2669 37.88 55.3069 37.5067 55.3869 37.08C55.4669 36.6267 55.5469 36.2533 55.6269 35.96L58.6669 23.76H55.4269L56.0269 21.36L65.5069 19.56L60.9069 37.96L61.6269 38.28L65.2269 33.72L66.6669 34.56L64.4269 37.96C63.4935 39.3733 62.5602 40.32 61.6269 40.8C60.6935 41.2533 59.8402 41.48 59.0669 41.48ZM64.3869 10.36C65.3735 10.36 66.1202 10.6133 66.6269 11.12C67.1602 11.6267 67.4269 12.2267 67.4269 12.92C67.4269 13.2933 67.3869 13.64 67.3069 13.96C67.0935 14.8133 66.6535 15.48 65.9869 15.96C65.3202 16.44 64.5202 16.68 63.5869 16.68C62.6002 16.68 61.8402 16.4267 61.3069 15.92C60.8002 15.4133 60.5469 14.8133 60.5469 14.12C60.5469 13.7467 60.5869 13.4 60.6669 13.08C60.8802 12.2267 61.3202 11.56 61.9869 11.08C62.6535 10.6 63.4535 10.36 64.3869 10.36ZM83.15 41.48C82.43 41.48 81.83 41.3733 81.35 41.16C80.87 40.9733 80.4833 40.7333 80.19 40.44C79.8967 40.12 79.6833 39.7733 79.55 39.4C79.4433 39 79.39 38.6133 79.39 38.24C79.39 37.8933 79.43 37.52 79.51 37.12C79.59 36.6933 79.67 36.32 79.75 36L82.79 25.12C82.87 24.8 82.91 24.52 82.91 24.28C82.91 23.5867 82.6033 23.24 81.99 23.24C81.43 23.24 80.8167 23.5467 80.15 24.16C79.4833 24.7733 78.8033 25.64 78.11 26.76C77.4433 27.88 76.8033 29.2133 76.19 30.76C75.5767 32.3067 75.03 34.0133 74.55 35.88L73.27 41H67.51L71.83 23.76H68.59L69.19 21.36L78.07 19.56L76.47 26L76.95 26.16C77.4567 25.2533 77.9633 24.4 78.47 23.6C78.9767 22.7733 79.5233 22.0667 80.11 21.48C80.7233 20.8933 81.39 20.4267 82.11 20.08C82.8567 19.7333 83.6967 19.56 84.63 19.56C86.07 19.56 87.11 19.9467 87.75 20.72C88.39 21.4667 88.71 22.48 88.71 23.76C88.71 24.24 88.6567 24.7467 88.55 25.28C88.47 25.8133 88.35 26.3733 88.19 26.96L85.07 37.96L85.79 38.28L89.39 33.72L90.83 34.56L88.59 37.96C87.7367 39.24 86.87 40.1467 85.99 40.68C85.11 41.2133 84.1633 41.48 83.15 41.48ZM112.202 41.48C109.215 41.48 106.908 40.9333 105.282 39.84C103.655 38.7467 102.842 36.92 102.842 34.36C102.842 33.8 102.908 33.0933 103.042 32.24C103.202 31.3867 103.402 30.4667 103.642 29.48L107.122 15.48H104.602L105.202 13.08H116.362L115.762 15.48H113.242L109.362 31.04C108.988 32.4533 108.802 33.68 108.802 34.72C108.802 36 109.162 36.9733 109.882 37.64C110.602 38.28 111.722 38.6 113.242 38.6C115.322 38.6 116.962 37.9467 118.162 36.64C119.388 35.3067 120.375 33.1733 121.122 30.24L124.842 15.48H122.322L122.922 13.08H130.922L130.322 15.48H127.762L123.962 30.68C123.082 34.2533 121.708 36.9467 119.842 38.76C117.975 40.5733 115.428 41.48 112.202 41.48ZM132.048 41.48C130.128 41.48 128.782 41.2 128.008 40.64C127.235 40.08 126.848 39.32 126.848 38.36C126.848 37.6133 127.102 36.9333 127.608 36.32C128.088 35.68 128.808 35.36 129.768 35.36C130.462 35.36 131.022 35.5733 131.448 36C131.902 36.4267 132.128 36.9733 132.128 37.64C132.128 38.04 132.048 38.4667 131.888 38.92C131.728 39.3467 131.502 39.68 131.208 39.92L131.568 40.36C132.848 40.12 133.915 39.6533 134.768 38.96C135.622 38.2667 136.048 37.3733 136.048 36.28C136.048 35.7467 135.928 35.2667 135.688 34.84C135.475 34.3867 135.195 33.96 134.848 33.56C134.528 33.16 134.155 32.76 133.728 32.36C133.328 31.96 132.942 31.5467 132.568 31.12C132.062 30.5333 131.595 29.9067 131.168 29.24C130.742 28.5733 130.528 27.76 130.528 26.8C130.528 25.5733 130.782 24.5067 131.288 23.6C131.822 22.6933 132.515 21.9467 133.368 21.36C134.222 20.7467 135.195 20.2933 136.288 20C137.408 19.7067 138.555 19.56 139.728 19.56C141.595 19.56 142.915 19.84 143.688 20.4C144.462 20.96 144.848 21.72 144.848 22.68C144.848 23.4267 144.595 24.12 144.088 24.76C143.608 25.3733 142.888 25.68 141.928 25.68C141.235 25.68 140.662 25.4667 140.208 25.04C139.782 24.6133 139.568 24.0667 139.568 23.4C139.568 23 139.648 22.5867 139.808 22.16C139.968 21.7067 140.195 21.36 140.488 21.12L140.128 20.68C138.928 20.9467 137.968 21.4533 137.248 22.2C136.528 22.92 136.168 23.7733 136.168 24.76C136.168 25.2933 136.275 25.7867 136.488 26.24C136.728 26.6667 137.022 27.08 137.368 27.48C137.715 27.88 138.102 28.28 138.528 28.68C138.955 29.08 139.368 29.5067 139.768 29.96C140.222 30.4667 140.648 31.0667 141.048 31.76C141.475 32.4267 141.688 33.2667 141.688 34.28C141.688 35.5067 141.408 36.5733 140.848 37.48C140.315 38.36 139.595 39.1067 138.688 39.72C137.782 40.3067 136.742 40.7467 135.568 41.04C134.422 41.3333 133.248 41.48 132.048 41.48Z" fill="black"/>
<defs>
<linearGradient id="paint0_linear_168_545" x1="3.26857" y1="45.1308" x2="156" y2="45.1308" gradientUnits="userSpaceOnUse">
<stop stop-color="#25B6F5"/>
<stop offset="1" stop-color="#3CD29C"/>
</linearGradient>
</defs>
</svg>
