<svg width="133" height="46" viewBox="0 0 133 46" fill="none" xmlns="http://www.w3.org/2000/svg">
<rect x="1.7973" y="1.7973" width="129.405" height="42.4054" rx="5.39189" fill="url(#paint0_linear_170_806)" fill-opacity="0.2"/>
<rect x="1.7973" y="1.7973" width="129.405" height="42.4054" rx="5.39189" stroke="url(#paint1_linear_170_806)" stroke-width="3.59459"/>
<path d="M34.4798 34.5V13.9715H37.5689V31.7619H43.1715V34.5H34.4798ZM54.2501 34.5H45.6006V13.9715H54.2501V16.6394H48.6897V22.4665H53.8991V25.1484H48.6897V31.7619H54.2501V34.5ZM66.1432 34.5L64.8373 28.729H60.1194L58.8136 34.5H55.4998L60.4704 13.9715H64.3739L69.4288 34.5H66.1432ZM64.3178 25.9769L62.9838 19.7846C62.909 19.3821 62.8388 18.9936 62.7732 18.6192C62.7077 18.2354 62.6469 17.8656 62.5907 17.5099C62.5345 17.1542 62.483 16.8125 62.4362 16.4849C62.4081 16.8032 62.366 17.1402 62.3099 17.4959C62.2631 17.8516 62.2022 18.2167 62.1273 18.5911C62.0618 18.9655 61.9869 19.3493 61.9027 19.7425L60.5968 25.9769H64.3178ZM75.5509 13.9715C77.0018 13.9715 78.2 14.1868 79.1455 14.6174C80.1003 15.0386 80.8117 15.6845 81.2798 16.5551C81.7478 17.4163 81.9818 18.5022 81.9818 19.8127C81.9818 20.6926 81.8742 21.4836 81.6589 22.1857C81.4436 22.8878 81.1066 23.5056 80.6479 24.0392C80.1986 24.5634 79.6182 25.008 78.9068 25.3731L83.1051 34.5H79.6931L76.1687 26.1454H74.4978V34.5H71.4087V13.9715H75.5509ZM75.5509 16.6394H74.4978V23.646H75.7475C76.7397 23.646 77.498 23.3418 78.0222 22.7333C78.5557 22.1155 78.8225 21.1934 78.8225 19.9672C78.8225 18.8064 78.5557 17.9639 78.0222 17.4397C77.498 16.9061 76.6742 16.6394 75.5509 16.6394ZM98.3962 34.5H94.7174L88.132 18.8439H88.0196C88.0664 19.4242 88.1039 19.9765 88.132 20.5007C88.16 21.025 88.1788 21.5164 88.1881 21.9751C88.2069 22.4338 88.2162 22.8644 88.2162 23.2669V34.5H85.3096V13.9715H88.9604L95.5458 29.3328H95.6441C95.6067 28.7337 95.5739 28.1767 95.5458 27.6618C95.5271 27.1376 95.5084 26.6509 95.4897 26.2015C95.4803 25.7429 95.4756 25.3263 95.4756 24.9519V13.9715H98.3962V34.5Z" fill="url(#paint2_linear_170_806)"/>
<defs>
<linearGradient id="paint0_linear_170_806" x1="2.78667" y1="23.215" x2="133" y2="23.2149" gradientUnits="userSpaceOnUse">
<stop stop-color="#25B6F5"/>
<stop offset="1" stop-color="#3CD29C"/>
</linearGradient>
<linearGradient id="paint1_linear_170_806" x1="2.78667" y1="23.215" x2="133" y2="23.2149" gradientUnits="userSpaceOnUse">
<stop stop-color="#25B6F5"/>
<stop offset="1" stop-color="#3CD29C"/>
</linearGradient>
<linearGradient id="paint2_linear_170_806" x1="33.9248" y1="23.1822" x2="100.5" y2="23.1822" gradientUnits="userSpaceOnUse">
<stop stop-color="#25B6F5"/>
<stop offset="1" stop-color="#3CD29C"/>
</linearGradient>
</defs>
</svg>
