<svg width="202" height="59" viewBox="0 0 202 59" fill="none" xmlns="http://www.w3.org/2000/svg">
<rect y="31" width="202" height="28" fill="url(#paint0_linear_168_547)"/>
<path d="M21.24 38.88C22.92 38.88 24.32 38.2933 25.44 37.12C26.5867 35.92 27.3867 34.3867 27.84 32.52C28.4267 30.2 28.8933 28.3333 29.24 26.92C29.6133 25.48 29.8933 24.32 30.08 23.44C30.2933 22.5333 30.44 21.8133 30.52 21.28C30.6 20.7467 30.64 20.2133 30.64 19.68C30.64 18.4 30.2667 17.3333 29.52 16.48C28.8 15.6267 27.72 15.2 26.28 15.2C24.6 15.2 23.1867 15.8 22.04 17C20.92 18.1733 20.1333 19.6933 19.68 21.56C19.0933 23.88 18.6133 25.76 18.24 27.2C17.8933 28.6133 17.6133 29.7733 17.4 30.68C17.2133 31.56 17.08 32.2667 17 32.8C16.92 33.3333 16.88 33.8667 16.88 34.4C16.88 35.68 17.24 36.7467 17.96 37.6C18.7067 38.4533 19.8 38.88 21.24 38.88ZM20.68 41.48C19.1067 41.48 17.7067 41.24 16.48 40.76C15.28 40.28 14.2667 39.6 13.44 38.72C12.6133 37.8133 11.9867 36.72 11.56 35.44C11.1333 34.16 10.92 32.7333 10.92 31.16C10.92 29.8267 11.0667 28.44 11.36 27C11.68 25.56 12.1333 24.16 12.72 22.8C13.3333 21.4133 14.08 20.1067 14.96 18.88C15.8667 17.6533 16.9067 16.5733 18.08 15.64C19.2533 14.7067 20.5733 13.9733 22.04 13.44C23.5067 12.88 25.1067 12.6 26.84 12.6C28.4133 12.6 29.8 12.84 31 13.32C32.2267 13.8 33.2533 14.4933 34.08 15.4C34.9067 16.28 35.5333 17.36 35.96 18.64C36.3867 19.92 36.6 21.3467 36.6 22.92C36.6 24.2533 36.44 25.64 36.12 27.08C35.8267 28.52 35.3733 29.9333 34.76 31.32C34.1733 32.68 33.4267 33.9733 32.52 35.2C31.64 36.4267 30.6133 37.5067 29.44 38.44C28.2667 39.3733 26.9467 40.12 25.48 40.68C24.0133 41.2133 22.4133 41.48 20.68 41.48ZM42.7669 41.48C41.3269 41.48 40.2869 41.1067 39.6469 40.36C39.0069 39.5867 38.6869 38.56 38.6869 37.28C38.6869 36.7733 38.7269 36.2533 38.8069 35.72C38.9135 35.1867 39.0469 34.64 39.2069 34.08L42.1669 23.76H38.8869L39.4869 21.36L49.1669 19.56L44.6069 35.96C44.5269 36.28 44.4869 36.56 44.4869 36.8C44.4869 37.4667 44.7935 37.8 45.4069 37.8C45.9669 37.8 46.5802 37.4933 47.2469 36.88C47.9135 36.2667 48.5802 35.4133 49.2469 34.32C49.9402 33.2 50.5935 31.8667 51.2069 30.32C51.8202 28.7733 52.3669 27.0533 52.8469 25.16L54.1269 20.04H59.8869L55.4069 37.96L56.1269 38.28L59.7269 33.72L61.1669 34.56L58.9269 37.96C58.4469 38.7067 57.9669 39.32 57.4869 39.8C57.0335 40.2533 56.5802 40.6133 56.1269 40.88C55.7002 41.12 55.2869 41.28 54.8869 41.36C54.4869 41.44 54.1002 41.48 53.7269 41.48C53.0602 41.48 52.5002 41.3867 52.0469 41.2C51.6202 41.0133 51.2735 40.7733 51.0069 40.48C50.7669 40.16 50.5935 39.8133 50.4869 39.44C50.3802 39.0667 50.3269 38.6933 50.3269 38.32C50.3269 37.92 50.3669 37.5067 50.4469 37.08C50.5269 36.6267 50.6069 36.2533 50.6869 35.96L50.9269 35.04L50.4469 34.88C49.9402 35.8133 49.4335 36.68 48.9269 37.48C48.4202 38.28 47.8602 38.9733 47.2469 39.56C46.6602 40.1467 45.9935 40.6133 45.2469 40.96C44.5269 41.3067 43.7002 41.48 42.7669 41.48ZM66.4238 23.76H63.1838L63.7838 21.36L72.4238 19.56L70.7838 26.16L71.2638 26.32C72.1704 24.0267 73.1038 22.3333 74.0638 21.24C75.0504 20.12 76.3038 19.56 77.8238 19.56C79.0238 19.56 79.9304 19.8667 80.5438 20.48C81.1838 21.0933 81.5038 21.9067 81.5038 22.92C81.5038 23.4 81.4238 23.8533 81.2638 24.28C81.1304 24.7067 80.9171 25.0933 80.6238 25.44C80.3304 25.7867 79.9704 26.0667 79.5438 26.28C79.1438 26.4667 78.6904 26.56 78.1838 26.56C77.4371 26.56 76.8104 26.36 76.3038 25.96C75.7971 25.5333 75.5438 24.9733 75.5438 24.28C75.5438 23.88 75.6238 23.4667 75.7838 23.04C75.9704 22.6133 76.1971 22.2667 76.4638 22L76.1838 21.72C75.6771 21.8533 75.0771 22.4 74.3838 23.36C73.7171 24.32 72.9971 25.6 72.2238 27.2C71.5304 28.6133 70.9038 30.1467 70.3438 31.8C69.7838 33.4533 69.2771 35.2133 68.8238 37.08L67.8638 41H62.1038L66.4238 23.76ZM93.8391 38.6H97.4391L103.159 15.64H98.0791L96.8391 20.52H92.4391L94.2791 13.08H119.439L117.559 20.52H113.159L114.359 15.64H109.279L103.559 38.6H107.159L106.599 41H93.2391L93.8391 38.6ZM121.987 41.48C119.827 41.48 118.24 40.8667 117.227 39.64C116.214 38.3867 115.707 36.6533 115.707 34.44C115.707 32.8667 115.934 31.2133 116.387 29.48C116.867 27.72 117.587 26.1067 118.547 24.64C119.507 23.1733 120.734 21.96 122.227 21C123.747 20.04 125.547 19.56 127.627 19.56C128.507 19.56 129.32 19.64 130.067 19.8C130.84 19.96 131.494 20.2267 132.027 20.6C132.587 20.9467 133.027 21.4 133.347 21.96C133.667 22.4933 133.827 23.1467 133.827 23.92C133.827 24.5333 133.667 25.2133 133.347 25.96C133.027 26.68 132.44 27.3733 131.587 28.04C130.734 28.68 129.56 29.2533 128.067 29.76C126.574 30.24 124.64 30.5467 122.267 30.68C122.054 31.6133 121.907 32.4533 121.827 33.2C121.747 33.9467 121.707 34.6 121.707 35.16C121.707 36.3067 121.92 37.12 122.347 37.6C122.774 38.08 123.374 38.32 124.147 38.32C125.374 38.32 126.494 37.8267 127.507 36.84C128.52 35.8267 129.48 34.4133 130.387 32.6L131.947 33.28C131.334 34.56 130.707 35.7067 130.067 36.72C129.427 37.7333 128.707 38.6 127.907 39.32C127.134 40.0133 126.254 40.5467 125.267 40.92C124.307 41.2933 123.214 41.48 121.987 41.48ZM122.667 29.04C123.92 28.8533 124.947 28.5867 125.747 28.24C126.574 27.8667 127.227 27.44 127.707 26.96C128.187 26.4533 128.52 25.9067 128.707 25.32C128.92 24.7333 129.027 24.12 129.027 23.48C129.027 22.92 128.88 22.48 128.587 22.16C128.32 21.84 127.907 21.68 127.347 21.68C126.787 21.68 126.294 21.8133 125.867 22.08C125.467 22.32 125.094 22.7333 124.747 23.32C124.4 23.88 124.054 24.6267 123.707 25.56C123.387 26.4933 123.04 27.6533 122.667 29.04ZM139.408 41.48C137.728 41.48 136.528 40.92 135.808 39.8C135.114 38.68 134.768 37.1467 134.768 35.2C134.768 34.08 134.874 32.92 135.088 31.72C135.301 30.4933 135.621 29.3067 136.048 28.16C136.474 26.9867 136.994 25.88 137.608 24.84C138.221 23.8 138.914 22.8933 139.688 22.12C140.461 21.32 141.314 20.6933 142.248 20.24C143.208 19.7867 144.234 19.56 145.328 19.56C146.501 19.56 147.501 19.88 148.328 20.52C149.181 21.1333 149.741 22.2 150.008 23.72H150.488L153.088 20.04H155.928L151.448 37.96L152.168 38.28L155.768 33.72L157.207 34.56L154.968 37.96C154.141 39.2133 153.314 40.12 152.488 40.68C151.688 41.2133 150.861 41.48 150.008 41.48C149.341 41.48 148.781 41.3867 148.328 41.2C147.901 41.0133 147.554 40.7733 147.288 40.48C147.048 40.1867 146.874 39.8533 146.768 39.48C146.661 39.08 146.608 38.6933 146.608 38.32C146.608 37.92 146.648 37.5067 146.728 37.08C146.808 36.6267 146.888 36.2533 146.968 35.96L147.128 35.32L146.648 35.24C146.274 36.0667 145.848 36.8667 145.368 37.64C144.914 38.3867 144.394 39.0533 143.808 39.64C143.248 40.2 142.594 40.6533 141.848 41C141.128 41.32 140.314 41.48 139.408 41.48ZM141.928 37.8C142.568 37.8 143.221 37.4533 143.888 36.76C144.581 36.0667 145.208 35.2133 145.768 34.2C146.354 33.1867 146.861 32.1067 147.288 30.96C147.741 29.8133 148.074 28.7867 148.288 27.88L148.568 26.72C148.861 25.44 148.901 24.4267 148.688 23.68C148.474 22.9333 147.901 22.56 146.968 22.56C146.034 22.56 145.101 23.08 144.168 24.12C143.261 25.16 142.474 26.8667 141.808 29.24C141.514 30.2533 141.261 31.3867 141.048 32.64C140.834 33.8667 140.728 34.9067 140.728 35.76C140.728 36.3733 140.808 36.8667 140.968 37.24C141.154 37.6133 141.474 37.8 141.928 37.8ZM184.919 41.48C184.199 41.48 183.599 41.3733 183.119 41.16C182.639 40.9733 182.239 40.7333 181.919 40.44C181.626 40.12 181.413 39.7733 181.279 39.4C181.173 39 181.119 38.6133 181.119 38.24C181.119 37.8933 181.159 37.52 181.239 37.12C181.319 36.6933 181.399 36.32 181.479 36L184.519 25.12C184.599 24.8 184.639 24.52 184.639 24.28C184.639 23.5867 184.346 23.24 183.759 23.24C183.199 23.24 182.573 23.5467 181.879 24.16C181.213 24.7733 180.546 25.64 179.879 26.76C179.213 27.8533 178.573 29.1867 177.959 30.76C177.346 32.3067 176.799 34.0133 176.319 35.88L175.039 41H169.279L173.239 25.12C173.319 24.7733 173.359 24.4933 173.359 24.28C173.359 23.5867 173.066 23.24 172.479 23.24C171.919 23.24 171.306 23.56 170.639 24.2C169.973 24.8133 169.306 25.68 168.639 26.8C167.999 27.92 167.373 29.2533 166.759 30.8C166.146 32.3467 165.613 34.04 165.159 35.88L163.879 41H158.119L162.439 23.76H159.199L159.799 21.36L168.679 19.56L167.079 26L167.559 26.16C168.066 25.2533 168.573 24.4 169.079 23.6C169.586 22.7733 170.133 22.0667 170.719 21.48C171.333 20.8933 171.986 20.4267 172.679 20.08C173.399 19.7333 174.199 19.56 175.079 19.56C176.253 19.56 177.106 19.9067 177.639 20.6C178.173 21.2933 178.439 22.2933 178.439 23.6C178.439 23.8667 178.426 24.1467 178.399 24.44C178.373 24.7333 178.333 25.04 178.279 25.36L178.159 26L178.639 26.16C179.146 25.2533 179.653 24.4 180.159 23.6C180.693 22.7733 181.266 22.0667 181.879 21.48C182.493 20.8933 183.159 20.4267 183.879 20.08C184.626 19.7333 185.466 19.56 186.399 19.56C187.839 19.56 188.866 19.9467 189.479 20.72C190.119 21.4933 190.439 22.52 190.439 23.8C190.439 24.28 190.386 24.7867 190.279 25.32C190.199 25.8267 190.079 26.3733 189.919 26.96L186.799 37.96L187.519 38.28L191.119 33.72L192.559 34.56L190.319 37.96C189.466 39.24 188.599 40.1467 187.719 40.68C186.839 41.2133 185.906 41.48 184.919 41.48Z" fill="black"/>
<defs>
<linearGradient id="paint0_linear_168_547" x1="4.23238" y1="45.1308" x2="202" y2="45.1308" gradientUnits="userSpaceOnUse">
<stop stop-color="#25B6F5"/>
<stop offset="1" stop-color="#3CD29C"/>
</linearGradient>
</defs>
</svg>
