<svg width="245" height="59" viewBox="0 0 245 59" fill="none" xmlns="http://www.w3.org/2000/svg">
<rect y="31" width="245" height="28" fill="url(#paint0_linear_168_546)"/>
<path d="M21.24 38.88C22.92 38.88 24.32 38.2933 25.44 37.12C26.5867 35.92 27.3867 34.3867 27.84 32.52C28.4267 30.2 28.8933 28.3333 29.24 26.92C29.6133 25.48 29.8933 24.32 30.08 23.44C30.2933 22.5333 30.44 21.8133 30.52 21.28C30.6 20.7467 30.64 20.2133 30.64 19.68C30.64 18.4 30.2667 17.3333 29.52 16.48C28.8 15.6267 27.72 15.2 26.28 15.2C24.6 15.2 23.1867 15.8 22.04 17C20.92 18.1733 20.1333 19.6933 19.68 21.56C19.0933 23.88 18.6133 25.76 18.24 27.2C17.8933 28.6133 17.6133 29.7733 17.4 30.68C17.2133 31.56 17.08 32.2667 17 32.8C16.92 33.3333 16.88 33.8667 16.88 34.4C16.88 35.68 17.24 36.7467 17.96 37.6C18.7067 38.4533 19.8 38.88 21.24 38.88ZM20.68 41.48C19.1067 41.48 17.7067 41.24 16.48 40.76C15.28 40.28 14.2667 39.6 13.44 38.72C12.6133 37.8133 11.9867 36.72 11.56 35.44C11.1333 34.16 10.92 32.7333 10.92 31.16C10.92 29.8267 11.0667 28.44 11.36 27C11.68 25.56 12.1333 24.16 12.72 22.8C13.3333 21.4133 14.08 20.1067 14.96 18.88C15.8667 17.6533 16.9067 16.5733 18.08 15.64C19.2533 14.7067 20.5733 13.9733 22.04 13.44C23.5067 12.88 25.1067 12.6 26.84 12.6C28.4133 12.6 29.8 12.84 31 13.32C32.2267 13.8 33.2533 14.4933 34.08 15.4C34.9067 16.28 35.5333 17.36 35.96 18.64C36.3867 19.92 36.6 21.3467 36.6 22.92C36.6 24.2533 36.44 25.64 36.12 27.08C35.8267 28.52 35.3733 29.9333 34.76 31.32C34.1733 32.68 33.4267 33.9733 32.52 35.2C31.64 36.4267 30.6133 37.5067 29.44 38.44C28.2667 39.3733 26.9467 40.12 25.48 40.68C24.0133 41.2133 22.4133 41.48 20.68 41.48ZM42.7669 41.48C41.3269 41.48 40.2869 41.1067 39.6469 40.36C39.0069 39.5867 38.6869 38.56 38.6869 37.28C38.6869 36.7733 38.7269 36.2533 38.8069 35.72C38.9135 35.1867 39.0469 34.64 39.2069 34.08L42.1669 23.76H38.8869L39.4869 21.36L49.1669 19.56L44.6069 35.96C44.5269 36.28 44.4869 36.56 44.4869 36.8C44.4869 37.4667 44.7935 37.8 45.4069 37.8C45.9669 37.8 46.5802 37.4933 47.2469 36.88C47.9135 36.2667 48.5802 35.4133 49.2469 34.32C49.9402 33.2 50.5935 31.8667 51.2069 30.32C51.8202 28.7733 52.3669 27.0533 52.8469 25.16L54.1269 20.04H59.8869L55.4069 37.96L56.1269 38.28L59.7269 33.72L61.1669 34.56L58.9269 37.96C58.4469 38.7067 57.9669 39.32 57.4869 39.8C57.0335 40.2533 56.5802 40.6133 56.1269 40.88C55.7002 41.12 55.2869 41.28 54.8869 41.36C54.4869 41.44 54.1002 41.48 53.7269 41.48C53.0602 41.48 52.5002 41.3867 52.0469 41.2C51.6202 41.0133 51.2735 40.7733 51.0069 40.48C50.7669 40.16 50.5935 39.8133 50.4869 39.44C50.3802 39.0667 50.3269 38.6933 50.3269 38.32C50.3269 37.92 50.3669 37.5067 50.4469 37.08C50.5269 36.6267 50.6069 36.2533 50.6869 35.96L50.9269 35.04L50.4469 34.88C49.9402 35.8133 49.4335 36.68 48.9269 37.48C48.4202 38.28 47.8602 38.9733 47.2469 39.56C46.6602 40.1467 45.9935 40.6133 45.2469 40.96C44.5269 41.3067 43.7002 41.48 42.7669 41.48ZM66.4238 23.76H63.1838L63.7838 21.36L72.4238 19.56L70.7838 26.16L71.2638 26.32C72.1704 24.0267 73.1038 22.3333 74.0638 21.24C75.0504 20.12 76.3038 19.56 77.8238 19.56C79.0238 19.56 79.9304 19.8667 80.5438 20.48C81.1838 21.0933 81.5038 21.9067 81.5038 22.92C81.5038 23.4 81.4238 23.8533 81.2638 24.28C81.1304 24.7067 80.9171 25.0933 80.6238 25.44C80.3304 25.7867 79.9704 26.0667 79.5438 26.28C79.1438 26.4667 78.6904 26.56 78.1838 26.56C77.4371 26.56 76.8104 26.36 76.3038 25.96C75.7971 25.5333 75.5438 24.9733 75.5438 24.28C75.5438 23.88 75.6238 23.4667 75.7838 23.04C75.9704 22.6133 76.1971 22.2667 76.4638 22L76.1838 21.72C75.6771 21.8533 75.0771 22.4 74.3838 23.36C73.7171 24.32 72.9971 25.6 72.2238 27.2C71.5304 28.6133 70.9038 30.1467 70.3438 31.8C69.7838 33.4533 69.2771 35.2133 68.8238 37.08L67.8638 41H62.1038L66.4238 23.76ZM88.3191 38.6H90.8391L96.5991 15.48H94.0791L94.6791 13.08H108.719C109.732 13.08 110.666 13.1867 111.519 13.4C112.372 13.5867 113.092 13.8933 113.679 14.32C114.292 14.72 114.759 15.2533 115.079 15.92C115.426 16.5867 115.599 17.4 115.599 18.36C115.599 19.5067 115.412 20.68 115.039 21.88C114.666 23.08 114.066 24.1733 113.239 25.16C112.439 26.1467 111.372 26.96 110.039 27.6C108.732 28.2133 107.132 28.52 105.239 28.52H99.4791L96.9591 38.6H100.559L99.9591 41H87.7191L88.3191 38.6ZM100.119 25.96H103.759C106.372 25.96 108.039 24.52 108.759 21.64C108.812 21.4533 108.879 21.2 108.959 20.88C109.039 20.56 109.106 20.24 109.159 19.92C109.239 19.5733 109.306 19.2533 109.359 18.96C109.412 18.64 109.439 18.3867 109.439 18.2C109.439 17.4267 109.172 16.8133 108.639 16.36C108.132 15.88 107.346 15.64 106.279 15.64H102.679L100.119 25.96ZM119.393 23.76H116.153L116.753 21.36L125.393 19.56L123.753 26.16L124.233 26.32C125.139 24.0267 126.073 22.3333 127.033 21.24C128.019 20.12 129.273 19.56 130.793 19.56C131.993 19.56 132.899 19.8667 133.513 20.48C134.153 21.0933 134.473 21.9067 134.473 22.92C134.473 23.4 134.393 23.8533 134.233 24.28C134.099 24.7067 133.886 25.0933 133.593 25.44C133.299 25.7867 132.939 26.0667 132.513 26.28C132.113 26.4667 131.659 26.56 131.153 26.56C130.406 26.56 129.779 26.36 129.273 25.96C128.766 25.5333 128.513 24.9733 128.513 24.28C128.513 23.88 128.593 23.4667 128.753 23.04C128.939 22.6133 129.166 22.2667 129.433 22L129.153 21.72C128.646 21.8533 128.046 22.4 127.353 23.36C126.686 24.32 125.966 25.6 125.193 27.2C124.499 28.6133 123.873 30.1467 123.313 31.8C122.753 33.4533 122.246 35.2133 121.793 37.08L120.833 41H115.073L119.393 23.76ZM141.865 39.24C142.905 39.24 143.745 38.8133 144.385 37.96C145.052 37.1067 145.559 35.9867 145.905 34.6C146.385 32.7333 146.785 31.2 147.105 30C147.425 28.7733 147.665 27.7867 147.825 27.04C148.012 26.2667 148.132 25.68 148.185 25.28C148.265 24.88 148.305 24.56 148.305 24.32C148.305 23.6267 148.119 23.04 147.745 22.56C147.399 22.0533 146.812 21.8 145.985 21.8C144.945 21.8 144.092 22.2267 143.425 23.08C142.785 23.9333 142.292 25.0533 141.945 26.44C141.465 28.3067 141.065 29.8533 140.745 31.08C140.425 32.28 140.172 33.2667 139.985 34.04C139.825 34.7867 139.705 35.36 139.625 35.76C139.572 36.16 139.545 36.48 139.545 36.72C139.545 37.4133 139.719 38.0133 140.065 38.52C140.439 39 141.039 39.24 141.865 39.24ZM141.585 41.48C139.159 41.48 137.319 40.7867 136.065 39.4C134.839 37.9867 134.225 36.0667 134.225 33.64C134.225 32.0933 134.492 30.4933 135.025 28.84C135.559 27.16 136.332 25.64 137.345 24.28C138.385 22.8933 139.652 21.76 141.145 20.88C142.639 20 144.345 19.56 146.265 19.56C148.692 19.56 150.519 20.2667 151.745 21.68C152.999 23.0667 153.625 24.9733 153.625 27.4C153.625 28.9733 153.359 30.5867 152.825 32.24C152.292 33.8933 151.505 35.4133 150.465 36.8C149.452 38.16 148.199 39.28 146.705 40.16C145.212 41.04 143.505 41.48 141.585 41.48ZM152.338 49.48C150.738 49.48 149.565 49.2133 148.818 48.68C148.045 48.1733 147.658 47.4533 147.658 46.52C147.658 45.7467 147.898 45.0533 148.378 44.44C148.858 43.8267 149.565 43.52 150.498 43.52C151.192 43.52 151.752 43.7067 152.178 44.08C152.605 44.48 152.818 45.0133 152.818 45.68C152.818 46.1067 152.698 46.52 152.458 46.92C152.192 47.32 151.818 47.6533 151.338 47.92L151.698 48.32C152.498 48.24 153.125 47.8667 153.578 47.2C154.032 46.5333 154.432 45.56 154.778 44.28L159.938 23.76H156.698L157.298 21.36L166.778 19.56L161.018 42.32C160.698 43.5467 160.258 44.6133 159.698 45.52C159.138 46.4267 158.485 47.1733 157.738 47.76C156.992 48.3467 156.152 48.7733 155.218 49.04C154.312 49.3333 153.352 49.48 152.338 49.48ZM164.858 16.68C163.872 16.68 163.112 16.4267 162.578 15.92C162.072 15.4133 161.818 14.8133 161.818 14.12C161.818 13.7467 161.858 13.4 161.938 13.08C162.152 12.2267 162.592 11.56 163.258 11.08C163.925 10.6 164.725 10.36 165.658 10.36C166.645 10.36 167.392 10.6133 167.898 11.12C168.432 11.6267 168.698 12.2267 168.698 12.92C168.698 13.2933 168.658 13.64 168.578 13.96C168.365 14.8133 167.925 15.48 167.258 15.96C166.592 16.44 165.792 16.68 164.858 16.68ZM174.448 41.48C172.288 41.48 170.701 40.8667 169.688 39.64C168.674 38.3867 168.168 36.6533 168.168 34.44C168.168 32.8667 168.394 31.2133 168.848 29.48C169.328 27.72 170.048 26.1067 171.008 24.64C171.968 23.1733 173.194 21.96 174.688 21C176.208 20.04 178.008 19.56 180.088 19.56C180.968 19.56 181.781 19.64 182.528 19.8C183.301 19.96 183.954 20.2267 184.488 20.6C185.048 20.9467 185.488 21.4 185.808 21.96C186.128 22.4933 186.288 23.1467 186.288 23.92C186.288 24.5333 186.128 25.2133 185.808 25.96C185.488 26.68 184.901 27.3733 184.048 28.04C183.194 28.68 182.021 29.2533 180.528 29.76C179.034 30.24 177.101 30.5467 174.728 30.68C174.514 31.6133 174.368 32.4533 174.288 33.2C174.208 33.9467 174.168 34.6 174.168 35.16C174.168 36.3067 174.381 37.12 174.808 37.6C175.234 38.08 175.834 38.32 176.608 38.32C177.834 38.32 178.954 37.8267 179.968 36.84C180.981 35.8267 181.941 34.4133 182.848 32.6L184.408 33.28C183.794 34.56 183.168 35.7067 182.528 36.72C181.888 37.7333 181.168 38.6 180.368 39.32C179.594 40.0133 178.714 40.5467 177.728 40.92C176.768 41.2933 175.674 41.48 174.448 41.48ZM175.128 29.04C176.381 28.8533 177.408 28.5867 178.208 28.24C179.034 27.8667 179.688 27.44 180.168 26.96C180.648 26.4533 180.981 25.9067 181.168 25.32C181.381 24.7333 181.488 24.12 181.488 23.48C181.488 22.92 181.341 22.48 181.048 22.16C180.781 21.84 180.368 21.68 179.808 21.68C179.248 21.68 178.754 21.8133 178.328 22.08C177.928 22.32 177.554 22.7333 177.208 23.32C176.861 23.88 176.514 24.6267 176.168 25.56C175.848 26.4933 175.501 27.6533 175.128 29.04ZM193.588 41.48C191.428 41.48 189.842 40.8667 188.828 39.64C187.815 38.3867 187.308 36.68 187.308 34.52C187.308 32.92 187.535 31.24 187.988 29.48C188.442 27.72 189.135 26.1067 190.068 24.64C191.002 23.1733 192.162 21.96 193.548 21C194.935 20.04 196.575 19.56 198.468 19.56C200.442 19.56 201.948 20 202.988 20.88C204.055 21.76 204.588 22.88 204.588 24.24C204.588 24.8 204.508 25.3333 204.348 25.84C204.188 26.32 203.948 26.76 203.628 27.16C203.335 27.5333 202.962 27.84 202.508 28.08C202.082 28.2933 201.588 28.4 201.028 28.4C200.228 28.4 199.615 28.1333 199.188 27.6C198.788 27.04 198.588 26.44 198.588 25.8C198.588 25.4533 198.655 25.1067 198.788 24.76C198.922 24.3867 199.122 24.0533 199.388 23.76C199.682 23.4667 200.028 23.2133 200.428 23C200.855 22.7867 201.348 22.6533 201.908 22.6V22.2C201.588 21.96 201.202 21.7867 200.748 21.68C200.322 21.5467 199.882 21.48 199.428 21.48C198.922 21.48 198.442 21.5733 197.988 21.76C197.562 21.9467 197.148 22.2933 196.748 22.8C196.348 23.3067 195.962 24.0133 195.588 24.92C195.215 25.8 194.842 26.9467 194.468 28.36C194.068 29.8267 193.775 31.1333 193.588 32.28C193.402 33.4267 193.308 34.3867 193.308 35.16C193.308 36.3067 193.522 37.12 193.948 37.6C194.375 38.08 194.975 38.32 195.748 38.32C196.948 38.32 198.028 37.8267 198.988 36.84C199.948 35.8533 200.895 34.44 201.828 32.6L203.388 33.28C202.775 34.5867 202.148 35.7467 201.508 36.76C200.868 37.7733 200.162 38.64 199.388 39.36C198.642 40.0533 197.788 40.5867 196.828 40.96C195.895 41.3067 194.815 41.48 193.588 41.48ZM210.349 41.48C209.655 41.48 209.069 41.3867 208.589 41.2C208.135 41.0133 207.762 40.7733 207.469 40.48C207.175 40.16 206.962 39.8133 206.829 39.44C206.722 39.0667 206.669 38.68 206.669 38.28C206.669 37.9067 206.709 37.5067 206.789 37.08C206.869 36.6267 206.949 36.2533 207.029 35.96L210.349 22.56H206.989L207.629 20.04H209.029C209.509 20.04 209.922 20 210.269 19.92C210.642 19.84 210.962 19.72 211.229 19.56C211.522 19.4 211.789 19.2 212.029 18.96C212.269 18.6933 212.522 18.3733 212.789 18L215.269 14.32H218.189L216.749 20.04H221.269L220.629 22.56H216.149L212.349 37.68L213.149 38.12L217.749 33.76L219.069 34.8L215.709 38.44C215.122 39.08 214.589 39.6 214.109 40C213.629 40.4 213.175 40.7067 212.749 40.92C212.349 41.1333 211.949 41.28 211.549 41.36C211.149 41.44 210.749 41.48 210.349 41.48ZM224.064 41.48C222.144 41.48 220.797 41.2 220.024 40.64C219.251 40.08 218.864 39.32 218.864 38.36C218.864 37.6133 219.117 36.9333 219.624 36.32C220.104 35.68 220.824 35.36 221.784 35.36C222.477 35.36 223.037 35.5733 223.464 36C223.917 36.4267 224.144 36.9733 224.144 37.64C224.144 38.04 224.064 38.4667 223.904 38.92C223.744 39.3467 223.517 39.68 223.224 39.92L223.584 40.36C224.864 40.12 225.931 39.6533 226.784 38.96C227.637 38.2667 228.064 37.3733 228.064 36.28C228.064 35.7467 227.944 35.2667 227.704 34.84C227.491 34.3867 227.211 33.96 226.864 33.56C226.544 33.16 226.171 32.76 225.744 32.36C225.344 31.96 224.957 31.5467 224.584 31.12C224.077 30.5333 223.611 29.9067 223.184 29.24C222.757 28.5733 222.544 27.76 222.544 26.8C222.544 25.5733 222.797 24.5067 223.304 23.6C223.837 22.6933 224.531 21.9467 225.384 21.36C226.237 20.7467 227.211 20.2933 228.304 20C229.424 19.7067 230.571 19.56 231.744 19.56C233.611 19.56 234.931 19.84 235.704 20.4C236.477 20.96 236.864 21.72 236.864 22.68C236.864 23.4267 236.611 24.12 236.104 24.76C235.624 25.3733 234.904 25.68 233.944 25.68C233.251 25.68 232.677 25.4667 232.224 25.04C231.797 24.6133 231.584 24.0667 231.584 23.4C231.584 23 231.664 22.5867 231.824 22.16C231.984 21.7067 232.211 21.36 232.504 21.12L232.144 20.68C230.944 20.9467 229.984 21.4533 229.264 22.2C228.544 22.92 228.184 23.7733 228.184 24.76C228.184 25.2933 228.291 25.7867 228.504 26.24C228.744 26.6667 229.037 27.08 229.384 27.48C229.731 27.88 230.117 28.28 230.544 28.68C230.971 29.08 231.384 29.5067 231.784 29.96C232.237 30.4667 232.664 31.0667 233.064 31.76C233.491 32.4267 233.704 33.2667 233.704 34.28C233.704 35.5067 233.424 36.5733 232.864 37.48C232.331 38.36 231.611 39.1067 230.704 39.72C229.797 40.3067 228.757 40.7467 227.584 41.04C226.437 41.3333 225.264 41.48 224.064 41.48Z" fill="black"/>
<defs>
<linearGradient id="paint0_linear_168_546" x1="5.13333" y1="45.1308" x2="245" y2="45.1308" gradientUnits="userSpaceOnUse">
<stop stop-color="#25B6F5"/>
<stop offset="1" stop-color="#3CD29C"/>
</linearGradient>
</defs>
</svg>
