<svg width="241" height="46" viewBox="0 0 241 46" fill="none" xmlns="http://www.w3.org/2000/svg">
<rect x="1.68296" y="1.68296" width="237.634" height="42.6341" rx="5.04888" fill="url(#paint0_linear_170_808)" fill-opacity="0.2"/>
<rect x="1.68296" y="1.68296" width="237.634" height="42.6341" rx="5.04888" stroke="url(#paint1_linear_170_808)" stroke-width="3.36592"/>
<path d="M52.3326 14.2774V27.3335C52.3326 28.7974 52.1178 30.007 51.6883 30.9624C51.2676 31.9091 50.6452 32.6147 49.8213 33.0793C48.9973 33.5351 47.9805 33.763 46.7709 33.763C44.974 33.763 43.5978 33.2414 42.6424 32.1983C41.6957 31.1465 41.2224 29.538 41.2224 27.373V14.2774H44.1018V27.3204C44.1018 28.6965 44.3341 29.687 44.7987 30.2919C45.2633 30.8879 45.9251 31.1859 46.7841 31.1859C47.3713 31.1859 47.8622 31.0588 48.2567 30.8046C48.6511 30.5417 48.9447 30.1253 49.1376 29.5556C49.3392 28.9858 49.44 28.232 49.44 27.2941V14.2774H52.3326ZM64.5472 28.0567C64.5472 29.1786 64.3281 30.1691 63.8898 31.0282C63.4515 31.8872 62.8336 32.5577 62.0359 33.0398C61.2382 33.5219 60.296 33.763 59.209 33.763C58.6919 33.763 58.1923 33.7323 57.7102 33.6709C57.2281 33.6096 56.7635 33.5088 56.3165 33.3685C55.8694 33.2283 55.4312 33.0486 55.0016 32.8294V29.858C55.6503 30.2524 56.334 30.5548 57.0528 30.7652C57.7803 30.9668 58.4552 31.0676 59.0776 31.0676C59.6298 31.0676 60.0944 30.9493 60.4713 30.7126C60.8482 30.4672 61.1331 30.1385 61.3259 29.7265C61.5187 29.3145 61.6152 28.8543 61.6152 28.3459C61.6152 27.8112 61.5319 27.3554 61.3653 26.9785C61.2076 26.5928 60.9227 26.2335 60.5107 25.9004C60.1075 25.5585 59.5421 25.186 58.8146 24.7828C58.2536 24.4585 57.7452 24.1298 57.2894 23.7967C56.8336 23.4548 56.4436 23.0779 56.1192 22.6659C55.8037 22.2452 55.5583 21.7587 55.3829 21.2065C55.2164 20.6455 55.1331 19.9837 55.1331 19.2211C55.1156 18.178 55.3172 17.2621 55.7379 16.4732C56.1674 15.6843 56.7723 15.0751 57.5524 14.6456C58.3325 14.2073 59.2485 13.9926 60.3003 14.0013C61.0542 14.0013 61.7817 14.0977 62.4829 14.2906C63.1929 14.4834 63.8416 14.742 64.4289 15.0663L63.5874 17.6565C63.0089 17.3234 62.4479 17.078 61.9044 16.9202C61.3697 16.7537 60.8657 16.6704 60.3924 16.6704C59.884 16.6704 59.4545 16.7756 59.1039 16.9859C58.7532 17.1876 58.4859 17.4724 58.3018 17.8406C58.1178 18.2 58.0257 18.6163 58.0257 19.0896C58.0257 19.6506 58.109 20.1196 58.2755 20.4965C58.4508 20.8734 58.7445 21.224 59.1565 21.5483C59.5772 21.8727 60.1513 22.2364 60.8789 22.6396C61.694 23.0954 62.3734 23.5819 62.9168 24.0991C63.4603 24.6075 63.8679 25.1816 64.1396 25.8215C64.4113 26.4614 64.5472 27.2064 64.5472 28.0567ZM75.4338 33.5H67.3346V14.2774H75.4338V16.7756H70.2272V22.2321H75.1051V24.7433H70.2272V30.9361H75.4338V33.5ZM83.3753 33.5V14.2774H86.2679V33.5H83.3753ZM102.23 33.5H98.7849L92.6185 18.8398H92.5133C92.5571 19.3833 92.5922 19.9004 92.6185 20.3913C92.6447 20.8822 92.6623 21.3424 92.671 21.7719C92.6886 22.2014 92.6973 22.6046 92.6973 22.9815V33.5H89.9757V14.2774H93.3942L99.5607 28.6615H99.6527C99.6176 28.1005 99.587 27.579 99.5607 27.0969C99.5431 26.606 99.5256 26.1502 99.5081 25.7295C99.4993 25.2999 99.4949 24.9099 99.4949 24.5593V14.2774H102.23V33.5ZM114.997 14.2774C116.916 14.2774 118.336 14.7595 119.257 15.7237C120.186 16.6792 120.65 18.1255 120.65 20.0626C120.65 21.0443 120.532 21.9209 120.295 22.6922C120.059 23.4636 119.699 24.121 119.217 24.6645C118.744 25.1991 118.148 25.6067 117.429 25.8872C116.71 26.1677 115.86 26.308 114.878 26.308H113.721V33.5H110.829V14.2774H114.997ZM114.813 16.7624H113.721V23.8098H114.602C115.321 23.8098 115.913 23.6871 116.377 23.4417C116.842 23.1875 117.184 22.7887 117.403 22.2452C117.631 21.693 117.745 20.9742 117.745 20.0889C117.745 18.9143 117.503 18.0685 117.021 17.5513C116.548 17.0254 115.812 16.7624 114.813 16.7624ZM127.198 14.2774C128.557 14.2774 129.679 14.479 130.564 14.8822C131.458 15.2767 132.124 15.8815 132.562 16.6967C133.001 17.5031 133.22 18.5199 133.22 19.7471C133.22 20.571 133.119 21.3117 132.917 21.9691C132.716 22.6265 132.4 23.205 131.971 23.7046C131.55 24.1955 131.007 24.6119 130.34 24.9537L134.272 33.5H131.077L127.777 25.6769H126.212V33.5H123.319V14.2774H127.198ZM127.198 16.7756H126.212V23.3365H127.382C128.311 23.3365 129.021 23.0516 129.512 22.4819C130.012 21.9033 130.262 21.04 130.262 19.8917C130.262 18.8048 130.012 18.0159 129.512 17.525C129.021 17.0254 128.25 16.7756 127.198 16.7756ZM144.448 33.5L143.226 28.0961H138.808L137.585 33.5H134.482L139.137 14.2774H142.792L147.525 33.5H144.448ZM142.739 25.5191L141.49 19.7208C141.42 19.3438 141.354 18.9801 141.293 18.6295C141.231 18.2701 141.175 17.9238 141.122 17.5908C141.069 17.2577 141.021 16.9377 140.977 16.6309C140.951 16.929 140.912 17.2445 140.859 17.5776C140.815 17.9107 140.758 18.2525 140.688 18.6032C140.627 18.9538 140.557 19.3132 140.478 19.6813L139.255 25.5191H142.739ZM155.611 16.5258C154.945 16.5258 154.371 16.7186 153.889 17.1043C153.407 17.4812 153.008 18.0115 152.692 18.6952C152.385 19.3701 152.158 20.1546 152.009 21.0487C151.86 21.9428 151.785 22.8982 151.785 23.915C151.785 25.449 151.943 26.7638 152.258 27.8595C152.574 28.9464 153.03 29.7791 153.626 30.3576C154.222 30.9273 154.936 31.2122 155.769 31.2122C156.339 31.2122 156.878 31.129 157.386 30.9624C157.895 30.7871 158.381 30.5811 158.846 30.3444V32.9346C158.355 33.2064 157.82 33.4123 157.242 33.5526C156.672 33.6928 156.049 33.763 155.374 33.763C153.998 33.763 152.819 33.3729 151.838 32.5928C150.856 31.8127 150.102 30.6863 149.576 29.2137C149.05 27.7411 148.787 25.9661 148.787 23.8887C148.787 22.4862 148.928 21.189 149.208 19.9969C149.489 18.796 149.905 17.7442 150.457 16.8413C151.018 15.9385 151.715 15.2372 152.548 14.7376C153.38 14.238 154.345 13.9882 155.44 13.9882C156.141 13.9882 156.816 14.0758 157.465 14.2511C158.114 14.4264 158.74 14.6938 159.345 15.0532L158.438 17.4593C158 17.17 157.548 16.9421 157.084 16.7756C156.619 16.609 156.128 16.5258 155.611 16.5258ZM166.84 33.5H163.973V16.815H160.305V14.2774H170.495V16.815H166.84V33.5ZM172.704 33.5V14.2774H175.596V33.5H172.704ZM185.536 16.5258C184.87 16.5258 184.296 16.7186 183.814 17.1043C183.332 17.4812 182.933 18.0115 182.617 18.6952C182.311 19.3701 182.083 20.1546 181.934 21.0487C181.785 21.9428 181.71 22.8982 181.71 23.915C181.71 25.449 181.868 26.7638 182.184 27.8595C182.499 28.9464 182.955 29.7791 183.551 30.3576C184.147 30.9273 184.861 31.2122 185.694 31.2122C186.264 31.2122 186.803 31.129 187.311 30.9624C187.82 30.7871 188.306 30.5811 188.771 30.3444V32.9346C188.28 33.2064 187.745 33.4123 187.167 33.5526C186.597 33.6928 185.975 33.763 185.3 33.763C183.923 33.763 182.745 33.3729 181.763 32.5928C180.781 31.8127 180.027 30.6863 179.501 29.2137C178.975 27.7411 178.712 25.9661 178.712 23.8887C178.712 22.4862 178.853 21.189 179.133 19.9969C179.414 18.796 179.83 17.7442 180.382 16.8413C180.943 15.9385 181.64 15.2372 182.473 14.7376C183.305 14.238 184.27 13.9882 185.365 13.9882C186.067 13.9882 186.742 14.0758 187.39 14.2511C188.039 14.4264 188.666 14.6938 189.27 15.0532L188.363 17.4593C187.925 17.17 187.473 16.9421 187.009 16.7756C186.544 16.609 186.053 16.5258 185.536 16.5258ZM199.868 33.5H191.769V14.2774H199.868V16.7756H194.661V22.2321H199.539V24.7433H194.661V30.9361H199.868V33.5Z" fill="url(#paint2_linear_170_808)"/>
<defs>
<linearGradient id="paint0_linear_170_808" x1="5.04952" y1="23.215" x2="241" y2="23.2149" gradientUnits="userSpaceOnUse">
<stop stop-color="#25B6F5"/>
<stop offset="1" stop-color="#3CD29C"/>
</linearGradient>
<linearGradient id="paint1_linear_170_808" x1="5.04952" y1="23.215" x2="241" y2="23.2149" gradientUnits="userSpaceOnUse">
<stop stop-color="#25B6F5"/>
<stop offset="1" stop-color="#3CD29C"/>
</linearGradient>
<linearGradient id="paint2_linear_170_808" x1="42.8943" y1="23.1729" x2="201.5" y2="23.1729" gradientUnits="userSpaceOnUse">
<stop stop-color="#25B6F5"/>
<stop offset="1" stop-color="#3CD29C"/>
</linearGradient>
</defs>
</svg>
